<svg width="640.0000000000001" height="480" xmlns="http://www.w3.org/2000/svg" xmlns:svg="http://www.w3.org/2000/svg">
 <!-- Created with SVG-edit - http://svg-edit.googlecode.com/ -->
 <g>
  <title>Layer 1</title>
  <g id="svg_9" stroke="null">
   <circle fill="#000000" stroke-width="2" fill-opacity="0" cx="50" cy="240" r="30" id="svg_2" stroke="#000000"/>
   <line fill="none" stroke-width="2" fill-opacity="0" x1="50" y1="218.57143" x2="50" y2="235.71429" id="svg_4" stroke="#000000"/>
   <line fill="none" stroke-width="2" stroke-dasharray="null" stroke-linejoin="null" stroke-linecap="null" fill-opacity="0" x1="32.85714" y1="240" x2="41.42857" y2="257.14286" id="svg_6" stroke="#000000"/>
   <line fill="none" stroke-width="2" stroke-dasharray="null" stroke-linejoin="null" stroke-linecap="null" fill-opacity="0" x1="67.14286" y1="240" x2="58.57143" y2="257.14286" id="svg_7" stroke="#000000"/>
  </g>
  <g id="svg_45">
   <rect fill="#000000" stroke-width="2" stroke-dasharray="null" stroke-linejoin="null" stroke-linecap="null" fill-opacity="0" x="80" y="20" width="210" height="170" id="svg_10" stroke="#000000"/>
   <line fill="none" stroke="#000000" stroke-width="2" stroke-dasharray="null" stroke-linejoin="null" stroke-linecap="null" fill-opacity="0" x1="80" y1="160" x2="290" y2="160" id="svg_14"/>
   <line fill="none" stroke="#000000" stroke-width="2" stroke-dasharray="null" stroke-linejoin="null" stroke-linecap="null" fill-opacity="0" x1="110" y1="190" x2="110" y2="160" id="svg_15"/>
   <line fill="none" stroke="#000000" stroke-width="2" stroke-dasharray="null" stroke-linejoin="null" stroke-linecap="null" fill-opacity="0" x1="140" y1="190" x2="140" y2="160" id="svg_16"/>
   <line fill="none" stroke="#000000" stroke-width="2" stroke-dasharray="null" stroke-linejoin="null" stroke-linecap="null" fill-opacity="0" x1="170" y1="190" x2="170" y2="160" id="svg_18"/>
   <line fill="none" stroke="#000000" stroke-width="2" stroke-dasharray="null" stroke-linejoin="null" stroke-linecap="null" fill-opacity="0" x1="200" y1="160" x2="200" y2="190" id="svg_19"/>
   <line fill="none" stroke="#000000" stroke-width="2" stroke-dasharray="null" stroke-linejoin="null" stroke-linecap="null" fill-opacity="0" x1="230" y1="160" x2="230" y2="190" id="svg_20"/>
   <line fill="none" stroke="#000000" stroke-width="2" stroke-dasharray="null" stroke-linejoin="null" stroke-linecap="null" fill-opacity="0" x1="260" y1="160" x2="260" y2="190" id="svg_21"/>
   <text fill="#000000" stroke-width="0" stroke-dasharray="null" stroke-linejoin="null" stroke-linecap="null" x="110" y="180" id="svg_23" font-size="24" font-family="serif" text-anchor="middle" xml:space="preserve" transform="matrix(1.3333333730697632,0,0,1,-46.66667103767395,0) " stroke="#000000">L</text>
   <text fill="#000000" stroke-width="0" stroke-dasharray="null" stroke-linejoin="null" stroke-linecap="null" x="130" y="180" id="svg_24" font-size="24" font-family="serif" text-anchor="middle" xml:space="preserve" stroke="#000000">N</text>
   <text fill="#000000" stroke="#000000" stroke-width="0" stroke-dasharray="null" stroke-linejoin="null" stroke-linecap="null" x="160" y="180" id="svg_31" font-size="24" font-family="serif" text-anchor="middle" xml:space="preserve">G</text>
   <text fill="#000000" stroke="#000000" stroke-width="0" stroke-dasharray="null" stroke-linejoin="null" stroke-linecap="null" x="190" y="180" id="svg_32" font-size="24" font-family="serif" text-anchor="middle" xml:space="preserve" font-style="normal" font-weight="normal">+</text>
   <text fill="#000000" stroke="#000000" stroke-width="0" stroke-dasharray="null" stroke-linejoin="null" stroke-linecap="null" x="220" y="180" id="svg_34" font-size="24" font-family="serif" text-anchor="middle" xml:space="preserve">+</text>
   <text fill="#000000" stroke="#000000" stroke-width="0" stroke-dasharray="null" stroke-linejoin="null" stroke-linecap="null" x="250" y="180" id="svg_35" font-size="24" font-family="serif" text-anchor="middle" xml:space="preserve">-</text>
   <text fill="#000000" stroke-width="0" stroke-dasharray="null" stroke-linejoin="null" stroke-linecap="null" x="280" y="180" id="svg_36" font-size="24" font-family="serif" text-anchor="middle" xml:space="preserve" stroke="#000000">-</text>
   <text fill="#000000" stroke-width="0" stroke-dasharray="null" stroke-linejoin="null" stroke-linecap="null" x="178" y="102.5" id="svg_38" font-size="24" font-family="serif" text-anchor="middle" xml:space="preserve" transform="matrix(1.25,0,0,1.3333333730697632,-40,-36.66667103767395) " stroke="#000000">24V 100W</text>
  </g>
  <path fill="none" stroke="#ff0000" stroke-dasharray="null" stroke-linejoin="null" stroke-linecap="null" id="svg_49" d="m95.18816,189.32326c0,1.4258 -0.01517,2.2272 0,3.17134c0.01369,0.85197 0.32417,1.71628 0.62012,2.54788c0.28899,0.81204 0.30064,1.71089 0.33723,2.58441c0.03992,0.95314 0.37309,1.73575 0.47652,2.58521c0.11227,0.92209 0.31972,1.78168 0.43997,2.66516c0.11961,0.87869 0.04085,1.75871 0.04085,2.65494c0,0.87317 0,1.82094 0,2.67369c0,0.85577 0,1.84383 0,2.57898c0,0.97968 0,1.84488 0,2.70433c0,0.91824 0,1.92154 0,2.68103c0,0.83607 0.03488,1.7774 -0.04085,2.62373c-0.08749,0.97783 -0.2717,1.81148 -0.53292,2.66971c-0.22585,0.742 -0.33325,1.73883 -0.38573,2.58577c-0.05584,0.90128 -0.32252,1.67281 -0.47651,2.62c-0.15116,0.92979 -0.30508,1.76988 -0.62228,2.618c-0.30463,0.81453 -0.60505,1.57219 -0.80161,2.52443c-0.18095,0.87668 -0.4374,1.7583 -0.90309,2.42781c-0.5473,0.78685 -0.68017,1.6797 -1.10541,2.37611c-0.5115,0.83768 -1.39111,1.21519 -2.02445,1.71809c-0.78227,0.62114 -1.12905,1.25557 -1.71323,1.93774c-0.58135,0.67888 -1.41707,0.97272 -2.16399,1.47589c-0.70069,0.47203 -1.55252,0.61632 -2.32027,1.04526c-0.75985,0.42453 -1.36811,1.30049 -2.2168,1.5193c-0.86157,0.22214 -1.7552,0.22903 -2.39366,0.77615c-0.7002,0.60002 -1.34283,1.12357 -2.23235,1.19667c-0.89597,0.07364 -1.61895,0.42479 -2.44592,0.78638c-0.7972,0.34857 -1.5671,0.59564 -2.50176,0.879c-0.89742,0.27206 -1.69361,0.24931 -2.64265,0.24931c-0.90947,0 -1.81679,0 -2.68055,-0.10596l-0.76587,-0.37056l-0.83097,-0.20575"/>
  <path fill="none" stroke="#0000ff" stroke-dasharray="null" stroke-linejoin="null" stroke-linecap="null" id="svg_51" d="m128.69502,189.70619c-1.03712,0.47867 -1.62271,1.15901 -1.85661,2.01041c-0.23115,0.84138 -0.43251,1.58167 -0.85131,2.45238c-0.36639,0.76176 -0.74332,1.68263 -1.02061,2.44409c-0.26971,0.74069 -0.65151,1.73711 -0.89606,2.41823c-0.34415,0.95851 -0.53259,1.6637 -0.76077,2.47377c-0.24173,0.8582 -0.4729,1.70578 -0.76898,2.82454c-0.23298,0.88034 -0.42653,1.64996 -0.62682,2.44911c-0.23267,0.92838 -0.39247,1.58728 -0.64589,2.54269c-0.27949,1.05371 -0.52782,1.83447 -0.75821,2.7589c-0.20396,0.81839 -0.43816,1.71542 -0.76587,2.41919c-0.39178,0.84135 -0.66082,1.78558 -0.86161,2.48087c-0.27458,0.95081 -0.61115,1.73909 -0.95032,2.66116c-0.26366,0.71678 -0.51265,1.49088 -0.91776,2.4393c-0.29057,0.68024 -0.65371,1.39061 -1.07222,2.22604c-0.48122,0.96062 -0.81038,1.62016 -1.1437,2.24664c-0.56276,1.05772 -1.05058,1.83447 -1.50047,2.56311c-0.50823,0.82312 -0.9051,1.47815 -1.2881,2.36734c-0.35802,0.83121 -0.58327,1.53659 -1.01861,2.29034c-0.50999,0.88303 -0.93926,1.45576 -1.36372,2.00986c-0.74512,0.9727 -1.28735,1.53279 -1.74619,2.14125c-0.70337,0.93274 -1.03416,1.50464 -1.50797,2.371c-0.54991,1.00552 -0.79557,1.63057 -1.11705,2.37485c-0.37408,0.86606 -0.71705,1.60835 -1.12519,2.30336c-0.55314,0.94193 -1.14536,1.61296 -1.61216,2.29314c-0.5537,0.80681 -1.10583,1.63556 -1.53445,2.17165c-0.52139,0.6521 -1.08521,1.67018 -1.3382,2.22893c-0.47913,1.05815 -0.94286,1.71407 -1.44199,2.33893c-0.58557,0.73308 -1.23159,1.39986 -1.88756,2.16876c-0.48515,0.56866 -0.96133,1.15359 -1.6751,2.02478c-0.43954,0.53647 -1.06133,1.42462 -1.37801,1.87973c-0.48229,0.69308 -1.16682,1.63174 -1.72266,2.16965c-0.67629,0.65445 -1.38126,1.20523 -2.09162,1.81345c-0.64506,0.55228 -1.26248,1.16788 -2.15912,1.83075c-0.53773,0.39755 -1.35582,0.88086 -2.22358,1.37091c-0.61827,0.34915 -1.45474,0.89175 -2.244,1.34155c-0.71869,0.40958 -1.66266,0.71259 -2.44823,0.95862c-0.57307,0.1795 -1.70391,0.54788 -2.43835,0.84436c-0.68997,0.27853 -1.65148,0.68146 -2.49458,0.9552c-0.87438,0.28391 -1.95087,0.59933 -2.60197,0.78851c-0.77377,0.22482 -1.67281,0.4144 -2.49993,0.55389c-0.8774,0.14798 -1.97327,0.33762 -2.67097,0.47357c-0.81506,0.15881 -1.77694,0.2084 -2.65055,0.33252c-0.9545,0.13562 -1.88903,0.36172 -2.71182,0.46368c-0.86721,0.10745 -1.73283,0.48746 -2.54947,0.6828c-0.85974,0.20566 -1.80404,0.23151 -2.67122,0.24994c-0.74504,0.01584 -1.74076,0.194 -2.59885,0.3421c-0.83403,0.14395 -1.82022,0.13596 -2.55474,0.13596c-0.8336,0 -1.89816,0 -2.72786,0c-1.00521,0 -1.88277,0 -2.76033,0c-0.90181,0 -1.74515,0 -2.66675,0c-0.87668,0 -1.70271,0 -2.75817,0c-0.69822,0 -1.75735,0.04968 -2.53296,-0.00998c-0.89544,-0.06888 -1.79401,-0.2963 -2.54477,-0.49805c-0.98661,-0.26514 -1.53601,-1.07489 -2.25422,-1.50177c-0.78655,-0.4675 -1.67205,-0.69196 -2.25677,-1.43665c-0.5188,-0.66074 -1.05484,-1.20355 -1.64024,-1.91977c-0.60523,-0.74048 -1.23827,-1.42493 -1.77945,-1.97794c-0.62707,-0.64075 -0.79323,-1.50296 -0.79323,-2.44305c0,-0.82715 0,-1.79724 0,-2.6582c0,-0.89926 -0.32671,-1.92261 0.24931,-2.61273c0.5743,-0.68808 1.33574,-1.04974 1.7611,-1.88678c0.38791,-0.76337 0.92458,-1.37933 1.47917,-2.08347c0.55328,-0.70245 1.03609,-1.36064 1.70725,-2.02278c0.61397,-0.60571 0.52089,-1.62714 1.16245,-2.06091c0.73304,-0.49564 1.30007,-0.95798 1.7781,-1.69896l0.81374,-0.07979"/>
  <g id="svg_1">
   <rect fill="none" stroke-width="2" stroke-dasharray="null" stroke-linejoin="null" stroke-linecap="null" x="99.98438" y="310" width="40" height="40" id="svg_53" stroke="#000000"/>
   <circle stroke="#000000" fill="none" stroke-width="2" stroke-dasharray="null" stroke-linejoin="null" stroke-linecap="null" cx="119.98438" cy="330" r="10" id="svg_54"/>
   <circle fill="none" stroke-width="2" stroke-dasharray="null" stroke-linejoin="null" stroke-linecap="null" cx="119.98438" cy="330" r="1" id="svg_55" stroke="#000000"/>
  </g>
  <text xml:space="preserve" text-anchor="middle" font-family="serif" font-size="24" id="svg_3" y="380" x="120" stroke-linecap="null" stroke-linejoin="null" stroke-dasharray="null" stroke-width="0" stroke="#000000" fill="#000000">DC 24V 4.5A</text>
  <path d="m216.30002,188.70001c-0.61067,1.60001 -1.14523,2.4967 -1.91467,2.91467c-0.71994,0.39108 -1.20462,0.86603 -1.65999,1.68533c-0.43451,0.78178 -0.73444,1.58405 -1.22667,2.28532c-0.52934,0.75414 -0.92442,1.5424 -1.51984,2.3145c-0.46948,0.60881 -1.19133,1.0304 -1.5645,2.043c-0.33345,0.9048 -0.4326,1.77773 -0.98633,2.16783c-0.7123,0.50182 -1.55801,1.03993 -2.08633,1.58934c-0.75807,0.78836 -1.00708,1.58076 -1.70834,2.16667c-0.68007,0.56821 -1.33002,0.81889 -2.19733,1.26399c-0.91739,0.47079 -1.80249,1.00874 -2.42267,1.43066c-0.71519,0.48656 -1.58942,1.09511 -2.17166,1.61784c-0.66438,0.59648 -1.26347,1.19994 -1.84167,1.82533c-0.52028,0.56274 -1.07208,1.53777 -1.5,2.2115c-0.47435,0.74684 -1.08398,1.2847 -1.85266,1.7885c-0.69347,0.45451 -1.53117,1.13933 -1.90067,1.87016c-0.45537,0.90068 -0.56783,1.74564 -1.16101,2.4825c-0.47069,0.58469 -1.28566,1.34283 -1.88567,1.94284c-0.39999,0.39999 -1,1 -1.79999,1.79999c-0.60001,0.60001 -1.20001,1.20001 -1.99867,1.99867c-0.39067,0.39067 -1.116,1.116 -1.83966,1.83966c-0.64067,0.64067 -1.26167,1.26167 -1.82417,1.82417c-0.45833,0.45833 -1.17905,1.16273 -1.96817,1.9695c-0.45326,0.46339 -1.13899,1.29918 -1.6265,1.97783c-0.36592,0.50938 -0.92715,1.3212 -1.54283,2.06883c-0.58417,0.70937 -1.21822,1.35909 -1.8,2.08801c-0.61516,0.77072 -0.98851,1.32724 -1.34283,1.88066c-0.65308,1.02007 -0.98651,1.72688 -1.45583,2.466c-0.57106,0.89934 -1.09839,1.44734 -1.68533,2.25467c-0.52664,0.72438 -0.84023,1.24417 -1.63068,2.26266c-0.46141,0.59453 -1.02733,1.26877 -1.3645,1.96933c-0.45833,0.95229 -0.1266,1.92943 -0.60616,2.71466c-0.49059,0.80331 -0.76816,1.41939 -1,2.08534c-0.30832,0.88565 -0.79872,1.64124 -1.20001,2.40266c-0.34572,0.65598 -0.8945,1.57281 -1.21466,2.27649c-0.47075,1.03467 -1.10519,1.43915 -1.60001,2.185c-0.52269,0.78784 -0.64381,1.59995 -1.09999,2.36652c-0.44722,0.75153 -1.05724,1.42801 -1.364,2.17999c-0.39217,0.96133 -0.33101,1.83774 -0.76933,2.78934c-0.29636,0.64337 -0.8933,1.16827 -1.5,2c-0.571,0.78278 -0.8795,1.45007 -1.26668,2.42117c-0.31416,0.78799 -0.53128,1.60416 -1.00017,2.43616c-0.47002,0.83401 -1.07132,1.47256 -1.55249,2.14801c-0.52731,0.74023 -0.88496,1.21072 -1.58566,2.18481c-0.49039,0.6817 -0.73058,1.63498 -0.76035,2.32584c-0.04468,1.03705 -0.55009,1.69864 -1.168,2.31735c-0.61838,0.6192 -1.0264,1.29071 -1.53783,1.86667c-0.65021,0.73227 -1.17165,1.51236 -1.3795,2.18533c-0.29622,0.95905 -0.63324,1.69791 -1.32666,2.47867c-0.42738,0.48123 -1.44643,1.00302 -1.93668,1.39316c-0.82703,0.65811 -1.1817,1.45914 -1.75284,2.22131c-0.48726,0.65024 -1.42694,1.1564 -2.0385,1.62152c-0.8148,0.61972 -0.75049,1.50687 -0.86133,2.39999c-0.1116,0.89926 -0.95265,1.23755 -1.64284,1.64734c-0.75017,0.4454 -1.85257,0.58957 -2.23566,1.45267c-0.28813,0.64914 -0.05377,1.6915 -0.68401,2.42084c-0.6575,0.76089 -1.4436,1.12469 -1.91667,1.47916c-0.67517,0.50592 -1.3102,1.42584 -1.80617,2.20001c-0.42689,0.66632 -1.16187,1.31967 -1.66199,2.09549c-0.44999,0.69803 -0.74027,1.28705 -1.06333,2.09384c-0.31599,0.78912 -0.98708,1.31516 -0.98933,2.21066c-0.00226,0.89999 0,1.78934 0,2.73334c0,0.6875 0,1.64514 0,2.66666c0,0.83334 0,1.7045 0,2.60001c0,0.89999 0.28301,2.03763 -0.28533,2.39999c-0.77013,0.491 -1.50397,0.38223 -1.716,1.19867c-0.20788,0.80045 -0.99866,1.30133 -1.57333,1.82666l-0.424,0.69067l-0.00134,0.93134" id="svg_13" stroke-linecap="null" stroke-linejoin="null" stroke-dasharray="null" stroke="#ff0000" fill="none"/>
  <path d="m243.30002,188.70001c-0.01067,1.81467 -0.21175,2.79547 -1.10001,3.00017c-0.89189,0.20552 -1.6498,0.54555 -1.87917,1.49983c-0.21045,0.87561 -0.28427,1.71954 -0.82216,2.3c-0.67223,0.72543 -1.35747,1.25381 -1.79868,1.87199c-0.58322,0.81715 -0.81924,1.56914 -1.04283,2.32266c-0.35219,1.18689 -0.42442,1.97772 -0.64116,2.77335c-0.20059,0.73636 -0.50839,1.90909 -0.70134,2.58133c-0.28795,1.0032 -0.7323,1.65358 -1.164,2.436c-0.29103,0.52747 -0.65741,1.53709 -0.90132,2.43999c-0.25633,0.94885 -0.65067,1.72508 -0.94934,2.25385c-0.42632,0.75475 -0.81253,1.9558 -1.44267,2.62083c-0.47183,0.49797 -1.30531,1.14 -1.724,1.89999c-0.37427,0.67938 -1.05501,1.47548 -1.33333,2.04167c-0.54311,1.10483 -0.69223,1.65045 -1.04167,2.52083c-0.26479,0.65955 -0.78291,1.77545 -1.22899,2.60817c-0.23901,0.44618 -0.76935,1.37198 -1.05067,1.85066c-0.57793,0.98335 -1.17778,1.9792 -1.47867,2.47833c-0.59824,0.9924 -0.89632,1.48132 -1.2,1.95866c-0.59286,0.93192 -0.86961,1.39386 -1.79984,2.59883c-0.57716,0.74765 -1.18178,1.41995 -1.46417,1.75751c-0.5555,0.66399 -1.32555,1.69955 -1.77882,2.4335c-0.44734,0.72432 -0.82317,1.46089 -1.45717,2.4185c-0.38129,0.5759 -1.01134,1.28914 -1.51466,2.01599c-0.49657,0.71709 -0.85321,1.54111 -1.18083,2.36467c-0.40952,1.02942 -0.69669,1.73711 -1.06168,2.40533c-0.53735,0.9838 -0.8968,1.49916 -1.4175,2.32201c-0.34221,0.54077 -0.95,1.53461 -1.3045,2.2045c-0.53606,1.01292 -0.89587,1.82443 -1.22083,2.36366c-0.5583,0.92644 -1.33261,1.62772 -1.8,2.17799c-0.64778,0.76268 -0.99734,1.51543 -1.38533,2.08049c-0.56667,0.82529 -1.1617,1.42023 -1.716,2.16934c-0.62901,0.85007 -0.9976,1.52826 -1.37784,2.2085c-0.36697,0.65652 -0.98204,1.76904 -1.39549,2.33417c-0.48915,0.66861 -1.09825,1.46149 -1.62534,2.16583c-0.50551,0.67551 -1.37254,1.23819 -2,2.02084c-0.40009,0.49905 -0.52551,1.33447 -1.16667,2.16666c-0.56966,0.73938 -1.4501,1.01123 -2.07166,1.63785c-0.73772,0.74371 -0.58781,1.56088 -0.92834,2.52884c-0.25052,0.7121 -0.89865,1.51086 -1.35416,2.16666c-0.60146,0.86594 -1.36278,1.27994 -1.90984,1.79868c-0.6673,0.63275 -0.99184,1.5405 -1.59016,2.20132c-0.48062,0.53082 -1.26921,1.20905 -1.77783,1.884c-0.55081,0.73096 -0.75159,1.50058 -1.20801,2.50134c-0.27902,0.61179 -1.12903,1.39044 -1.72667,1.88666c-0.66856,0.55511 -1.04044,0.82166 -2.09999,1.728c-0.6899,0.59015 -1.33237,1.19824 -1.64584,1.5c-0.61971,0.59653 -1.52284,1.49799 -2.11949,2.10001c-0.59268,0.59802 -1.17703,1.18945 -1.716,1.79999c-0.78107,0.88474 -1.22215,1.49567 -1.66451,2.05835c-0.61125,0.77753 -1.40457,1.59195 -2,2c-0.8343,0.57175 -1.54761,0.94193 -2.41016,1.51633c-0.61339,0.40848 -0.42757,1.52121 -0.89601,2.224c-0.53012,0.79532 -1.51852,0.84464 -2.19733,1.37067c-0.7113,0.55121 -1.23283,1.42749 -1.56551,2.12616c-0.34573,0.72607 -0.96556,1.51852 -1.65182,1.94733c-0.78944,0.49329 -1.86433,0.33212 -2.2955,1.00452c-0.43004,0.67062 -0.92834,1.44666 -1.60451,1.91666c-0.8058,0.56012 -1.58377,0.82349 -2.116,1.43466c-0.46504,0.53403 -0.64116,1.35852 -1.284,2.00134c-0.60001,0.60001 -1.30368,1.29633 -1.8,1.79999c-0.70528,0.7157 -1.33696,1.50189 -1.67917,2.20001c-0.39854,0.81305 -0.80511,1.32205 -1.39932,2.00015c-0.49109,0.56039 -0.89119,1.30542 -1.47417,1.94717c-0.52625,0.57932 -0.44038,1.47278 -0.93134,2.05402c-0.52295,0.61911 -1.42804,0.87756 -1.70534,1.60931c-0.33823,0.89255 -0.40343,1.69333 -1.17734,2.22269c-0.68279,0.46704 -1.44398,0.77731 -2.03333,1.36667c-0.59999,0.60001 -1.32156,1.24429 -2.0955,1.74731c-0.68906,0.44785 -0.44087,1.61438 -1.1405,2.01666c-0.74965,0.43106 -1.84966,-0.10742 -2.51132,0.38867c-0.66843,0.50116 -0.88751,1.31598 -1.5735,1.6265c-0.80116,0.36264 -1.85646,-0.1546 -2.67784,0.30484c-0.7883,0.44092 -1.412,0.716 -2.30133,0.716l-0.89999,0l-0.98933,-0.01068" id="svg_17" stroke-linecap="null" stroke-linejoin="null" stroke-dasharray="null" stroke="#000000" fill="none"/>
  <g id="svg_69">
   <rect height="130" width="210" y="220" x="320" stroke-linecap="null" stroke-linejoin="null" stroke-dasharray="null" fill="none" stroke-width="2" id="svg_46" stroke="#000000"/>
   <line fill="none" stroke-width="2" stroke-dasharray="null" stroke-linejoin="null" stroke-linecap="null" x1="320" y1="320" x2="380" y2="320" stroke="#000000" id="svg_48"/>
   <line fill="none" stroke="#000000" stroke-width="2" stroke-dasharray="null" stroke-linejoin="null" stroke-linecap="null" x1="380" y1="320" x2="380" y2="350" id="svg_50"/>
   <line fill="none" stroke="#000000" stroke-width="2" stroke-dasharray="null" stroke-linejoin="null" stroke-linecap="null" x1="530" y1="320" x2="470" y2="320" id="svg_56"/>
   <line fill="none" stroke="#000000" stroke-width="2" stroke-dasharray="null" stroke-linejoin="null" stroke-linecap="null" x1="470" y1="350" x2="470" y2="320" id="svg_57"/>
   <line fill="none" stroke="#000000" stroke-width="2" stroke-dasharray="null" stroke-linejoin="null" stroke-linecap="null" x1="350" y1="350" x2="350" y2="320" id="svg_58"/>
   <line fill="none" stroke="#000000" stroke-width="2" stroke-dasharray="null" stroke-linejoin="null" stroke-linecap="null" x1="500" y1="350" x2="500" y2="320" id="svg_59"/>
   <text fill="#000000" stroke="#000000" stroke-width="0" stroke-dasharray="null" stroke-linejoin="null" stroke-linecap="null" x="340" y="340" font-size="24" font-family="serif" text-anchor="middle" xml:space="preserve" id="svg_60">+</text>
   <text fill="#000000" stroke="#000000" stroke-width="0" stroke-dasharray="null" stroke-linejoin="null" stroke-linecap="null" x="490" y="340" font-size="24" font-family="serif" text-anchor="middle" xml:space="preserve" id="svg_61">+</text>
   <text fill="#000000" stroke="#000000" stroke-width="0" stroke-dasharray="null" stroke-linejoin="null" stroke-linecap="null" x="370" y="340" font-size="24" font-family="serif" text-anchor="middle" xml:space="preserve" id="svg_62">-</text>
   <text fill="#000000" stroke="#000000" stroke-width="0" stroke-dasharray="null" stroke-linejoin="null" stroke-linecap="null" x="520" y="340" font-size="24" font-family="serif" text-anchor="middle" xml:space="preserve" id="svg_63">-</text>
   <text fill="#000000" stroke="#000000" stroke-width="0" stroke-dasharray="null" stroke-linejoin="null" stroke-linecap="null" x="400" y="340" font-size="24" font-family="serif" text-anchor="middle" xml:space="preserve" id="svg_64">In</text>
   <text fill="#000000" stroke="#000000" stroke-width="0" stroke-dasharray="null" stroke-linejoin="null" stroke-linecap="null" x="450" y="340" font-size="24" font-family="serif" text-anchor="middle" xml:space="preserve" id="svg_65">Out</text>
   <rect fill="none" stroke-width="2" stroke-dasharray="null" stroke-linejoin="null" stroke-linecap="null" x="340" y="230" width="170" height="80" id="svg_66" stroke="#000000"/>
   <text fill="#000000" stroke="#000000" stroke-width="0" stroke-dasharray="null" stroke-linejoin="null" stroke-linecap="null" x="490" y="260" id="svg_67" font-size="24" font-family="serif" text-anchor="middle" xml:space="preserve">V</text>
   <text fill="#000000" stroke="#000000" stroke-width="0" stroke-dasharray="null" stroke-linejoin="null" stroke-linecap="null" x="490" y="290" id="svg_68" font-size="24" font-family="serif" text-anchor="middle" xml:space="preserve">A</text>
  </g>
  <g id="svg_29">
   <text fill="#000000" stroke-width="0" stroke-dasharray="null" stroke-linejoin="null" stroke-linecap="null" x="440" y="70" id="svg_5" font-size="24" font-family="serif" text-anchor="middle" xml:space="preserve" transform="matrix(1.2000000476837158,0,0,1.3333333730697632,-104.00002479553223,-23.333336114883423) " stroke="#000000">DC-DC 1-30V</text>
   <line fill="none" stroke-width="2" stroke-dasharray="null" stroke-linejoin="null" stroke-linecap="null" x1="320" y1="110" x2="380" y2="110" id="svg_8" stroke="#000000"/>
   <line fill="none" stroke="#000000" stroke-width="2" stroke-dasharray="null" stroke-linejoin="null" stroke-linecap="null" x1="380" y1="110" x2="380" y2="140" id="svg_11"/>
   <line fill="none" stroke="#000000" stroke-width="2" stroke-dasharray="null" stroke-linejoin="null" stroke-linecap="null" x1="530" y1="110" x2="470" y2="110" id="svg_12"/>
   <line fill="none" stroke="#000000" stroke-width="2" stroke-dasharray="null" stroke-linejoin="null" stroke-linecap="null" x1="470" y1="140" x2="470" y2="110" id="svg_22"/>
   <line fill="none" stroke="#000000" stroke-width="2" stroke-dasharray="null" stroke-linejoin="null" stroke-linecap="null" x1="350" y1="140" x2="350" y2="110" id="svg_26"/>
   <line fill="none" stroke="#000000" stroke-width="2" stroke-dasharray="null" stroke-linejoin="null" stroke-linecap="null" x1="500" y1="140" x2="500" y2="110" id="svg_27"/>
   <text fill="#000000" stroke="#000000" stroke-width="0" stroke-dasharray="null" stroke-linejoin="null" stroke-linecap="null" x="340" y="130" id="svg_30" font-size="24" font-family="serif" text-anchor="middle" xml:space="preserve">+</text>
   <text fill="#000000" stroke="#000000" stroke-width="0" stroke-dasharray="null" stroke-linejoin="null" stroke-linecap="null" x="490" y="130" font-size="24" font-family="serif" text-anchor="middle" xml:space="preserve" id="svg_33">+</text>
   <text fill="#000000" stroke="#000000" stroke-width="0" stroke-dasharray="null" stroke-linejoin="null" stroke-linecap="null" x="370" y="130" id="svg_37" font-size="24" font-family="serif" text-anchor="middle" xml:space="preserve">-</text>
   <text fill="#000000" stroke="#000000" stroke-width="0" stroke-dasharray="null" stroke-linejoin="null" stroke-linecap="null" x="520" y="130" font-size="24" font-family="serif" text-anchor="middle" xml:space="preserve" id="svg_39">-</text>
   <text fill="#000000" stroke="#000000" stroke-width="0" stroke-dasharray="null" stroke-linejoin="null" stroke-linecap="null" x="400" y="130" id="svg_40" font-size="24" font-family="serif" text-anchor="middle" xml:space="preserve">In</text>
   <text fill="#000000" stroke="#000000" stroke-width="0" stroke-dasharray="null" stroke-linejoin="null" stroke-linecap="null" x="450" y="130" id="svg_41" font-size="24" font-family="serif" text-anchor="middle" xml:space="preserve">Out</text>
   <rect id="svg_25" height="120" width="210" y="20" x="320" stroke-linecap="null" stroke-linejoin="null" stroke-dasharray="null" stroke-width="2" stroke="#000000" fill="none"/>
  </g>
  <path d="m183.300018,189.700012c0.166672,1.833328 0.666687,2.140793 1.166672,2.833328c0.511841,0.708954 1.238907,1.037064 2,1.5c0.72998,0.444016 1.249268,1.071625 2.254501,1.423843c0.768188,0.26915 1.608597,0.157806 2.610825,0.528168c0.655655,0.242294 1.507523,0.823654 2.250671,1.12532c0.571945,0.232162 1.885757,0.752075 2.602661,1.073334c0.752533,0.337219 1.523026,0.696014 1.919174,0.863342c1.188812,0.502121 1.990189,0.771454 2.763489,1.016663c0.722809,0.229202 1.944366,0.611496 2.756012,1.035995c0.54274,0.283859 1.436386,0.711868 2.362656,1c0.670715,0.208633 1.354294,0.377853 2.544006,0.798676c0.753586,0.266556 1.442047,0.5746 2.451996,0.716003c0.791397,0.110809 1.984009,0.085327 2.775665,0.085327c0.941666,0 1.891739,-0.131668 2.641678,0.221329c0.775528,0.365036 1.578171,0.778351 2.442657,1c0.71373,0.182999 1.433701,0.5112 2.489334,0.693344c0.926086,0.15979 1.736008,0.085327 2.717331,0.085327c0.917343,0 1.748291,-0.041656 2.736008,0.283997c0.742111,0.244675 1.711182,0.624069 2.314667,0.680008c0.797333,0.073914 2.005966,-0.050186 2.714661,0.121323c0.908478,0.219849 1.813782,0.783661 2.486176,0.857513c0.932526,0.102417 1.923157,0.057159 2.852493,0.057159c0.667496,0 1.813339,0 2.604996,0c0.850677,0 1.875,0 2.542511,0c0.936661,0 1.912491,0 2.709,0c0.807495,0 1.879501,0 2.690155,0c0.900009,0 1.801346,0 2.766678,0c0.854156,0 1.833328,0 2.633331,0c0.800003,0 1.804504,0 2.435989,0c1.185181,0 1.978668,0 2.754181,0c1.043152,0 1.872314,0 2.773834,0c0.911987,0 1.559998,0 2.735992,0c0.813324,0 1.833344,0 2.518829,0c0.838501,0 1.469208,0.008026 2.866516,-0.001328c0.750671,-0.00502 1.526825,-0.014603 2.315979,-0.084c1.201752,-0.105682 2.000702,-0.262299 2.798676,-0.435501c0.802124,-0.174103 2,-0.479172 2.799988,-0.679169c0.800018,-0.199997 1.200012,-0.300003 2,-0.5c1.200012,-0.300003 2.00708,-0.496063 2.842682,-0.721344c0.90329,-0.24353 1.391174,-0.376907 3.023987,-0.911987c0.620728,-0.203415 1.270172,-0.433716 1.944,-0.676498c0.691528,-0.249161 1.390198,-0.508789 2.088013,-0.775513c0.691528,-0.264313 2.635803,-1.045349 3.21582,-1.293335c0.549255,-0.234833 1.574066,-0.694824 2.064667,-0.921326c0.975403,-0.450333 1.469116,-0.689194 2.520844,-1.166672c1.1521,-0.523041 1.766266,-0.787659 2.397339,-1.058655c0.643585,-0.276367 1.297821,-0.551422 1.958984,-0.822006c0.661499,-0.270737 2.621185,-1.032074 3.253021,-1.267334c0.615143,-0.22905 1.215149,-0.441071 2.335999,-0.874664c0.52298,-0.202316 1.906555,-0.778763 2.614655,-1.212006c0.624268,-0.381958 1.143799,-0.823822 2.106659,-1.765335c0.523102,-0.511505 1.058655,-1.05867 1.608002,-1.608002c0.541351,-0.541336 1.545837,-1.53569 1.989349,-2c0.639984,-0.669983 1.244232,-1.385773 1.835999,-2.177994c0.405701,-0.543121 0.778748,-1.111481 1.599823,-2.126007c0.385864,-0.476761 1.028351,-1.104156 1.633514,-2.087997c0.465424,-0.756683 0.626038,-1.353699 1.050659,-2.149323c0.547668,-1.02623 1.142853,-1.60672 1.546661,-2.197342c0.626892,-0.916901 1.067047,-1.706665 1.402679,-2.486664c0.306091,-0.711288 0.069244,-1.680084 0.280975,-2.404495c0.307068,-1.050598 0.921661,-1.583298 1.403015,-2.195511c0.617096,-0.784836 1.083252,-1.59433 1.582489,-2.599991c0.296234,-0.596725 0.659637,-1.390594 0.847504,-2.395508c0.138702,-0.741867 0.53363,-1.595428 0.886017,-2.571167c0.228821,-0.633606 0.349152,-1.65831 0.741333,-2.422668c0.417023,-0.812805 0.611145,-1.748871 0.946167,-2.41066c0.434174,-0.857635 1.154327,-1.39563 1.421997,-2.295502c0.264496,-0.889252 -0.124207,-1.857986 0.223816,-2.704498c0.275909,-0.671097 0.713501,-1.507095 1,-2.333328c0.250305,-0.721878 0.434998,-1.796631 1,-2.5c0.546906,-0.680832 0.789093,-1.334518 0.833344,-2.166672c0.042725,-0.803406 0.748199,-1.536087 0.963989,-2.389328c0.237457,-0.93895 0.037354,-1.810669 0.257355,-2.710678l0.425995,-0.599991" id="svg_42" stroke-linecap="null" stroke-linejoin="null" stroke-dasharray="null" stroke="#ff0000" fill="none"/>
  <path d="m270.300018,189.700012c1.5,1.479172 2.298615,1.971405 3.200012,2c0.899536,0.028534 1.799988,0 2.717316,0c0.796997,0 1.685333,0 2.678162,0c0.747345,0 1.779297,-0.014313 2.72583,0.000168c0.678925,0.010391 1.627014,0.281677 2.431335,0.647171c0.710052,0.322647 1.65213,0.330383 2.648682,0.353989c0.835144,0.019775 1.769196,0.149689 2.546844,0.351334c0.7948,0.206085 1.725037,0.44751 2.594482,0.636673c0.908325,0.197632 1.607025,0.706085 2.571991,0.925339c0.86734,0.197067 1.685333,0.085327 2.557343,0.085327c0.870667,0 1.828003,0 2.559998,0c0.967163,0 1.82135,0 2.822662,0c0.64267,0 1.701691,0 2.778687,0c0.677338,0 1.583313,0 2.309326,0c1.109344,0 1.91983,0 2.856506,0c1.028839,0 1.879486,0 2.647491,0c1.014984,0 1.815002,0 2.774658,0c0.804016,0 1.626007,0 2.657684,0c0.71698,0 1.487976,0.003433 2.785156,-0.000168c0.79834,-0.002213 1.222931,0.00148 2.095825,-0.035828c0.873932,-0.037354 2.101532,-0.163742 2.83017,-0.321167c1.031586,-0.222885 1.690582,-0.450958 2.731171,-0.742844c0.730011,-0.204773 1.479767,-0.395889 2.226013,-0.599991c1.433167,-0.391983 2.089264,-0.601471 2.710999,-0.779175c0.852661,-0.243698 1.868347,-0.381989 2.766998,-0.582169c0.95639,-0.213043 1.748932,-0.602829 2.477325,-1.123993c0.835602,-0.597855 1.165375,-1.401627 1.868011,-2.014664c0.575531,-0.502136 1.436432,-0.78627 2.218658,-1.199997c0.732208,-0.387268 1.592865,-1.002716 2.094666,-1.485336c0.785126,-0.755081 1.297882,-1.325455 2.115997,-1.947998c0.585083,-0.445221 1.262787,-0.792374 2.166656,-1.5c0.532623,-0.416962 1.089905,-0.901733 1.823517,-1.775665c0.719269,-0.856842 1.042511,-1.489304 1.359161,-2.080338c0.45697,-0.852982 0.95343,-1.674255 1.660492,-2.358002c0.490753,-0.474579 1.092865,-0.854126 2.069183,-1.874832c0.504944,-0.527908 0.967041,-1.178864 1.487976,-1.910995c0.290131,-0.407761 0.931396,-1.334656 1.68634,-2.404175c0.408295,-0.578445 0.832886,-1.174988 1.267517,-1.783493c0.43869,-0.614182 0.877533,-1.226242 1.3125,-1.828506c0.831818,-1.151749 1.594452,-2.193497 1.947815,-2.674667c0.335968,-0.457489 0.96402,-1.306183 1.530853,-2.08667c0.523651,-0.720993 1.023712,-1.38739 1.625488,-2.347656c0.358002,-0.571274 0.87738,-1.608627 0.990509,-2.316345c0.143951,-0.900543 0.049011,-1.908951 0.092834,-2.704498c0.041504,-0.753113 0.516144,-1.813293 0.8125,-2.6875c0.215576,-0.635941 0.166656,-1.666656 0.166656,-2.528824c0,-0.947342 0,-1.825333 0,-2.704498c0,-0.900009 0,-1.798676 0,-2.684006c0,-0.916 0,-1.716003 0,-2.615997l0,-0.942841l0.574677,-0.393158" id="svg_43" stroke-linecap="null" stroke-linejoin="null" stroke-dasharray="null" stroke="#000000" fill="none"/>
  <path d="m156.300018,188.700012c-1.052673,1.699997 -1.553528,2.445786 -2.000168,3.221329c-0.402771,0.699356 -1.053635,1.225281 -1.574493,1.804001c-0.574081,0.637878 -1.19252,1.122055 -2.06134,1.549332c-0.820282,0.403412 -1.590637,0.307251 -2.479996,0.710678c-0.694183,0.314896 -1.54744,0.996506 -2.231339,1.414658c-0.784241,0.479507 -1.50061,1.045837 -2.416672,1.399841c-0.583344,0.225433 -1.5569,0.4776 -2.18399,0.614822c-1.202133,0.263062 -1.840729,0.326309 -3.052002,0.618668c-0.909149,0.219437 -1.42038,0.372437 -1.962662,0.517334c-1.121109,0.299561 -1.671753,0.472809 -3.20401,0.81601c-0.806061,0.180542 -1.483887,0.238785 -2.325165,0.43866c-1.166779,0.277222 -1.813492,0.600006 -2.508163,0.894669c-0.694664,0.294662 -1.947083,0.80835 -2.717331,0.927994c-0.788239,0.122437 -1.761833,0.070145 -2.582672,0.072006c-0.995506,0.002258 -1.506813,0.670624 -2.220833,0.979172c-0.817055,0.353073 -1.802765,-0.015045 -2.520828,0.041656c-1.13089,0.08931 -1.91008,0.335281 -2.733002,0.553833c-0.540741,0.143616 -1.778053,0.365005 -2.486664,0.450668c-1.073471,0.129761 -1.706963,0.257294 -2.73867,0.47467c-0.694862,0.146408 -1.665436,0.342529 -2.485664,0.447327c-0.904091,0.115509 -1.913017,0.348816 -2.556,0.552673c-0.724777,0.229782 -1.925453,0.429016 -2.609001,0.464005c-1.043106,0.053406 -2.016403,0.014465 -2.834999,0.040497c-0.906403,0.028824 -1.710342,0.23024 -2.556,0.495499c-0.725479,0.22757 -1.924667,0.419983 -2.598335,0.47467c-0.673019,0.054642 -1.889061,0.11586 -2.652,0.450668c-0.848251,0.372238 -1.378326,1.121323 -2.06517,1.517502c-0.814568,0.469849 -1.453812,0.729233 -2.184494,1.036331c-0.868942,0.365204 -1.633003,0.020828 -2.701172,0.020828c-0.85733,0 -1.64563,-0.066757 -2.582497,0.010666c-1.016541,0.084 -1.604919,0.59465 -2.479164,0.936661c-0.828491,0.324112 -1.677795,0.600891 -2.528839,0.886002c-0.79113,0.265045 -1.369492,0.901535 -2.302666,1.082672c-0.852165,0.165405 -1.577942,-0.171753 -2.639832,0.436661c-0.718788,0.411835 -1.52417,0.647339 -2.424164,0.647339c-0.899834,0 -1.780838,-0.044617 -2.661339,0.010666c-0.658936,0.041382 -1.592613,0.539368 -2.434166,0.932175c-0.686592,0.32048 -1.086716,0.846466 -1.903164,1.058487c-0.800457,0.20787 -1.388638,0.674622 -2.190666,1.009338c-0.759941,0.317154 -1.051685,0.900513 -1.915169,0.993835c-1.033512,0.111694 -1.741226,0.379852 -2.585667,0.942825c-0.69772,0.465164 -1.456894,0.889084 -2.209831,1.274002c-0.763199,0.390167 -1.542835,0.831345 -2.066669,1.612l-0.807999,0.166672" id="svg_44" stroke-linecap="null" stroke-linejoin="null" stroke-width="null" stroke="#00bf00" fill="none"/>
  <path d="m520.300049,138.700012c-0.878723,1.221329 -1.471375,1.812225 -2.099854,2.442841c-0.488037,0.489685 -0.446899,1.735046 -1.066833,2.390488c-0.61676,0.652054 -1.483582,0.651855 -2.333313,1.1875c-0.752319,0.474228 -1.047913,1.199844 -1.600037,1.957672c-0.550537,0.755646 -1.200012,1.321503 -1.899994,2.0215c-0.541656,0.541672 -1.333344,1.333328 -1.768005,1.768005c-0.731995,0.731995 -1.223999,1.229309 -1.898651,1.898666c-0.680023,0.674683 -1.293701,1.226288 -2.102692,1.818665c-0.487457,0.356918 -1.297699,0.899704 -2.063995,1.514664c-0.719727,0.577591 -1.328156,1.155777 -2,1.833328c-0.632813,0.638199 -0.983307,1.602203 -1.666656,2.166672c-0.680389,0.562042 -1.533478,0.633438 -2.357178,1.100174c-0.65329,0.370178 -1.455353,1.230148 -1.96817,1.714493c-0.513336,0.484818 -1.482178,0.993195 -2.058655,1.43866c-0.88559,0.684326 -1.100494,1.298721 -1.717316,1.980011c-0.759949,0.839401 -1.457672,1.272598 -1.970184,1.571991c-0.922302,0.538757 -1.68103,0.9664 -2.525818,1.445343c-0.443237,0.251282 -1.353973,0.754044 -1.82135,0.981323c-1.34613,0.654617 -2.228149,0.964142 -3.081329,1.268005c-0.425079,0.151398 -1.297974,0.436493 -2.621338,1.042664c-0.467896,0.214325 -1.403687,0.708588 -1.878662,0.957336c-0.946716,0.495819 -1.396301,0.77681 -2.779663,1.357498c-0.883057,0.370682 -1.357758,0.506409 -2.361664,0.829163c-0.55365,0.177994 -1.156952,0.35968 -2.52533,0.813339c-0.784698,0.260162 -1.626862,0.552841 -2.52002,0.862503c-0.933502,0.323639 -1.896149,0.659851 -2.880005,0.997498c-0.992798,0.340714 -1.982391,0.6866 -3.933319,1.306671c-0.934021,0.29686 -1.846985,0.56752 -2.742004,0.823502c-0.881012,0.251968 -1.757538,0.490662 -2.634003,0.724487c-0.881531,0.235184 -1.77652,0.46608 -3.623993,0.952011c-0.964447,0.253662 -1.953339,0.517334 -2.962494,0.785995c-1.02417,0.272659 -2.058105,0.548279 -3.097504,0.822006c-1.03891,0.273605 -2.071655,0.548019 -4.106659,1.058655c-0.991364,0.248764 -1.976746,0.486557 -2.968506,0.718506c-1.009552,0.236115 -2.051849,0.471191 -3.139496,0.709503c-1.144653,0.250809 -2.360443,0.512192 -5.058685,1.071991c-1.501495,0.311508 -3.095398,0.63623 -4.763977,0.967499c-1.723419,0.342163 -3.485077,0.683365 -5.268005,1.012512c-1.783081,0.329178 -3.547729,0.660309 -6.968018,1.186661c-1.613068,0.248245 -3.159241,0.450333 -4.634979,0.628494c-1.404297,0.16954 -2.739777,0.311508 -4.005005,0.439499c-1.194763,0.120865 -2.320984,0.218567 -4.360016,0.432007c-0.916443,0.095932 -1.768646,0.196228 -2.561981,0.304504c-0.742676,0.101364 -1.439117,0.210236 -2.093994,0.331497c-0.623108,0.115387 -1.220612,0.231491 -2.344025,0.53067c-0.548218,0.145996 -1.087006,0.316223 -1.627502,0.485992c-0.546173,0.171555 -1.100555,0.350937 -1.672485,0.522003c-0.589722,0.176392 -1.201233,0.365021 -2.533325,0.658661c-0.716644,0.157959 -1.473816,0.286789 -2.262024,0.4095c-0.814453,0.126801 -1.654297,0.239273 -2.513977,0.346512c-0.874969,0.109146 -1.762573,0.210068 -3.557343,0.41066c-0.899628,0.10054 -1.797546,0.199509 -2.69101,0.304504c-0.887878,0.10434 -1.767853,0.212555 -2.636993,0.331497c-0.858185,0.117447 -1.704651,0.230545 -3.338654,0.53067c-0.792542,0.145569 -1.56723,0.31488 -2.33252,0.485992c-0.761383,0.170242 -1.52121,0.34935 -2.287476,0.522003c-0.775391,0.174713 -1.563049,0.36084 -3.213348,0.658661c-0.861908,0.155548 -1.748993,0.285049 -2.648987,0.414001c-0.905334,0.12973 -1.809662,0.250412 -2.703003,0.378006c-0.875977,0.125122 -1.730377,0.23172 -3.314667,0.541336c-0.729034,0.142471 -1.413696,0.312378 -2.065521,0.490494c-0.632172,0.172745 -1.247375,0.362411 -1.85849,0.553497c-0.615906,0.192581 -1.240204,0.403549 -2.575989,0.789337c-0.717072,0.207092 -1.47168,0.402573 -2.253021,0.604507c-0.802643,0.207443 -1.622589,0.414001 -2.450989,0.631485c-0.833618,0.218842 -1.670166,0.428955 -3.29599,0.930679c-0.79361,0.244904 -1.565765,0.513779 -2.323517,0.790497c-0.750275,0.274002 -1.489807,0.561584 -2.224487,0.8535c-0.734344,0.291779 -1.466461,0.594559 -2.951996,1.189331c-0.753387,0.301636 -1.512634,0.599121 -2.272522,0.891006c-0.753479,0.289429 -1.497559,0.569412 -2.227478,0.83699c-0.708435,0.259705 -1.390411,0.509933 -2.666687,0.938675c-0.579681,0.194733 -1.128296,0.365707 -1.647003,0.532501c-0.497284,0.159912 -0.979797,0.316589 -1.448975,0.487488c-0.468872,0.170792 -0.946594,0.344406 -1.904022,0.813339c-0.516144,0.252792 -1.043549,0.553497 -1.594482,0.876007c-0.578522,0.338669 -1.176758,0.706619 -1.801514,1.091995c-0.651611,0.401932 -1.325043,0.8284 -2.77066,1.698669c-0.761444,0.458389 -1.549438,0.91716 -2.348999,1.386002c-0.805756,0.472488 -1.611328,0.944046 -2.403015,1.421997c-0.777618,0.469437 -1.541565,0.917191 -2.914642,1.858658c-0.633698,0.434509 -1.214264,0.876266 -1.752014,1.318512c-0.518127,0.426117 -1.003357,0.863373 -1.463989,1.309494c-0.457397,0.442993 -0.903564,0.901093 -1.783997,1.871994c-0.458649,0.505768 -0.918182,1.033936 -1.386017,1.572006c-0.473511,0.544601 -0.946899,1.095016 -1.421997,1.643997c-0.47226,0.545685 -0.935699,1.087662 -1.858673,2.11734c-0.441833,0.492905 -0.878571,0.961655 -1.291504,1.423492c-0.399017,0.446259 -0.779358,0.882431 -1.120483,1.324509c-0.329712,0.427277 -0.663757,0.842026 -1.088013,1.751999c-0.20694,0.443817 -0.339447,0.917282 -0.446991,1.394989c-0.108612,0.482529 -0.180603,0.97966 -0.248993,1.485001c-0.069641,0.514648 -0.114319,1.04361 -0.304016,2.12001c-0.098114,0.556747 -0.231354,1.118134 -0.371979,1.685989c-0.142029,0.573517 -0.296295,1.146912 -0.444,1.722c-0.146973,0.572266 -0.306702,1.136566 -0.517334,2.258667c-0.10202,0.543442 -0.169586,1.083313 -0.219025,1.6185c-0.049225,0.532913 -0.076752,1.068863 -0.092987,1.609512c-0.016479,0.548386 -0.019989,1.107986 -0.021332,2.271988c-0.000702,0.609833 0,1.238678 0,1.885498c0,0.663834 0,1.343674 0,2.038513c0,0.708832 0,1.430664 0,2.909317c0,0.755005 0,1.52002 0,2.295013c0,0.785004 0,1.579987 0,2.38501c0,0.814972 0,1.639984 0,3.319977c0,0.854675 0,1.717346 0,2.585999c0,0.872681 0,1.747345 0,2.622009c0,0.872681 0,1.741333 0,3.458679c0,0.845154 0,1.681335 0,2.509491c0,0.821167 0,1.636322 0,2.446503c0,0.806152 -0.000336,1.609344 0,3.210663c0.000183,0.799835 -0.000366,1.598694 0.009003,2.395508c0.009338,0.793854 0.02652,1.583923 0.062988,2.3685c0.036224,0.779144 0.069092,1.554108 0.261353,3.069336c0.094788,0.746979 0.229797,1.480927 0.371979,2.204987c0.140564,0.715942 0.295563,1.41983 0.444,2.11499c0.14624,0.684845 0.306732,1.355957 0.517334,2.680023c0.102386,0.643707 0.16925,1.28363 0.227997,1.918488c0.058594,0.633179 0.103668,1.269135 0.156006,1.909515c0.053009,0.648651 0.095215,1.310852 0.282684,2.671997c0.097961,0.711182 0.231781,1.436829 0.376495,2.176483c0.147217,0.75235 0.310242,1.511169 0.475494,2.275513c0.165741,0.766632 0.341949,1.529938 0.64801,3.048004c0.150024,0.744171 0.284119,1.480835 0.409485,2.209503c0.123993,0.720673 0.237976,1.436066 0.346497,2.146484c0.107819,0.705933 0.209717,1.409271 0.410675,2.810669c0.100342,0.699799 0.199646,1.398926 0.304504,2.09549c0.104492,0.694092 0.212891,1.384247 0.331482,2.068512c0.117767,0.679443 0.232758,1.35434 0.53067,2.669342c0.146515,0.646729 0.313782,1.279633 0.486023,1.900482c0.169189,0.609833 0.345978,1.204071 0.521973,1.783508c0.171356,0.56424 0.347687,1.108734 0.658691,2.149323c0.287201,0.960938 0.534302,1.860413 0.755981,2.712006c0.21286,0.817749 0.409729,1.621582 0.610687,2.420013c0.199036,0.790894 0.392944,1.567261 0.599976,2.315979c0.388153,1.403748 0.578766,2.061859 0.957184,2.980835c0.378052,0.918091 0.717133,1.508942 1.242828,2.383667c0.341064,0.567505 0.988434,1.593842 1.364014,2.284851c0.340576,0.626648 0.835999,1.635986 1.135986,2.235992c0.5,1 0.87442,1.803986 1.200012,2.342834c0.557434,0.922577 1.336884,1.394073 2.099976,1.74118c0.854279,0.38858 1.63324,0.838196 2.206665,1.36264c0.720764,0.65918 1.404968,1.217102 2.035004,1.532501c0.654053,0.327423 1.621521,0.700226 2.453003,0.920013c0.753052,0.199066 1.850128,0.581085 2.472015,0.954163c0.686646,0.411926 1.353882,0.897125 1.97998,1.380005c1.01062,0.779449 1.61087,1.448059 2.537354,1.681335c0.840851,0.2117 1.760284,0.033752 2.718658,0.08667c0.771423,0.042603 1.565125,0.293213 2.338989,0.498657c0.858002,0.227753 2.061829,0.421753 2.690338,0.47467c0.675507,0.056854 1.425873,0.09259 2.73233,0.246674c1.004272,0.118439 1.532562,0.207367 2.631683,0.353333c0.56012,0.074371 1.120422,0.166107 2.781982,0.303833c0.532074,0.044098 1.553833,0.092987 2.503357,0.110809c0.861237,0.016144 1.954315,0.010681 2.82132,0.010681c0.740997,0 1.718842,0 2.533325,0c0.8685,0 1.764008,0 2.659515,0c0.8685,0 1.937836,0 2.642822,0c0.975006,0 1.950439,0.12085 2.761658,-0.004486c0.931366,-0.14389 1.539337,-0.606506 2.414673,-0.994171c0.766296,-0.339386 1.484467,-0.946228 2.451996,-1.001343c0.811462,-0.046234 1.5112,-0.441589 2.190521,-0.947327c0.727997,-0.541962 1.477356,-0.687805 2.342834,-1.105347c0.818695,-0.394989 1.271393,-1.241516 1.299988,-2.168823c0.027069,-0.878082 0,-1.778503 0,-2.578491l0,-0.914673l0,-0.895996l0,-0.910187" id="svg_70" stroke-linecap="null" stroke-linejoin="null" stroke-width="null" stroke="#000000" fill="none"/>
  <path d="m486.300018,138.700012c-2.005341,0.357162 -2.783813,0.53775 -3.666656,1c-0.829529,0.434326 -1.432251,1.10112 -2.033356,1.699997c-0.603363,0.60112 -1.14856,1.16301 -1.961639,1.595505c-0.77002,0.409576 -1.758575,0.592911 -2.56369,0.679169c-0.820984,0.087952 -1.865845,0.211334 -2.559998,0.472c-0.739563,0.277725 -1.85553,0.879013 -2.528992,1.205994c-0.725067,0.352036 -1.485382,0.718079 -2.685669,1.180664c-0.396912,0.152969 -1.193542,0.416122 -1.979156,0.645844c-0.76181,0.222763 -2.202484,0.613297 -2.881683,0.829834c-0.704315,0.224548 -1.467133,0.495529 -2.805817,1.024323c-0.520355,0.205536 -1.070404,0.435379 -2.245331,0.917343c-0.608704,0.249695 -1.221924,0.50058 -1.834503,0.743988c-0.602081,0.239227 -2.28775,0.866806 -2.798828,1.036011c-0.954712,0.316071 -1.860565,0.577881 -2.736023,0.85199c-0.887268,0.277817 -1.802124,0.599136 -2.266815,0.770004c-0.932617,0.342941 -1.841583,0.695755 -2.282501,0.863342c-1.225189,0.465683 -2.300934,0.849487 -2.947998,1.109329c-0.622284,0.249893 -1.823059,0.855652 -2.421356,1.199997c-0.601715,0.346313 -1.793854,1.021454 -2.399994,1.289337c-0.594299,0.26265 -1.498047,0.5867 -2.699982,0.985168c-0.59903,0.198593 -1.494476,0.488144 -2.100006,0.614822c-1.189697,0.248871 -2.082001,0.260773 -2.642853,0.338013c-1.283417,0.176773 -1.97403,0.478958 -2.726501,0.748657c-0.868744,0.311386 -1.87677,0.591873 -2.543976,0.834671c-0.639618,0.232758 -1.636688,0.848633 -2.20752,1.384827c-0.617188,0.579742 -1.454529,1.198273 -2.194336,1.574677c-0.795319,0.404663 -1.631592,0.746704 -2.034149,0.919159c-1.395599,0.597855 -1.945618,0.843246 -2.84668,1.283997c-0.806671,0.394577 -1.583679,0.839264 -2.603668,1.080002c-0.747772,0.176483 -1.523438,0.528381 -2.300323,1.121338c-0.505096,0.385498 -1.490906,0.675323 -2.357178,0.878662c-0.883789,0.207458 -1.803406,0.481003 -2.389496,0.73201c-0.918304,0.393265 -1.70343,0.708405 -2.563995,0.953323c-0.586304,0.166855 -1.791412,0.327454 -2.668488,0.456833c-0.839508,0.12384 -1.853821,0.522675 -2.5,1c-0.63858,0.47171 -1.412964,1.113312 -2.0625,1.479172c-0.717896,0.404373 -1.599213,0.824417 -2.259186,1.148163c-1.01004,0.495483 -1.628143,0.829727 -2.643158,1.18251c-0.839233,0.291687 -1.536316,0.711105 -2.256012,1.367996c-0.584503,0.533478 -1.499054,0.855713 -2.299988,1.301331c-0.799042,0.44455 -1.700012,0.497604 -2.599823,0.5c-0.847504,0.002258 -1.406097,0.572327 -2.221497,1.099838c-0.652802,0.422318 -1.665344,0.75116 -2.376007,0.961502c-0.812653,0.240524 -1.666656,0.651001 -2.34433,0.93866c-0.711609,0.302048 -1.784912,0.699402 -2.810181,0.894669c-0.665283,0.126709 -1.367401,0.168503 -2.481506,0.43866c-0.842957,0.204407 -1.718384,0.525024 -2.166656,0.6875c-0.89682,0.325058 -2.164764,0.817703 -2.926666,1.092499c-0.678345,0.244644 -1.531555,0.608337 -2.601349,0.801346c-0.841339,0.151794 -1.675964,0.143433 -2.471985,0.585327c-0.799469,0.443802 -1.698669,0.5 -2.56134,0.5c-0.799988,0 -1.772003,-0.000076 -2.600006,0c-0.881317,0.000092 -1.847687,-0.046219 -2.570648,0.085327c-0.978699,0.178085 -1.636566,0.689789 -2.604004,0.889343c-0.757141,0.156174 -1.753998,0.406738 -2.563995,0.672668c-0.791077,0.25972 -1.797363,0.271271 -2.578674,0.57399c-0.823822,0.319168 -1.744263,0.501953 -2.451996,0.862671c-0.809021,0.412354 -1.370667,0.915329 -2.269348,0.916c-0.899994,0.000671 -1.78363,0.109985 -2.352661,0.647339c-0.581085,0.548737 -1.255066,1.279053 -1.747314,1.784668c-0.690399,0.709152 -1.510345,1.186127 -2.400024,1.482666c-0.857635,0.285873 -1.799988,0.085327 -2.599976,0.085327c-0.842834,0 -1.612976,0.46315 -2.398682,0.916c-0.698486,0.402573 -1.299591,0.935822 -2,1.367996c-0.815308,0.503082 -1.462708,0.945969 -2.322174,1.216003c-0.710297,0.22316 -1.69104,0.366562 -2.645813,0.666672c-0.678894,0.213394 -1.690399,0.803665 -2.197357,1.233322c-0.77478,0.656647 -1.315491,1.29425 -2.15683,1.600006c-0.943787,0.342972 -1.65921,0.560135 -2.592499,0.916c-0.769958,0.293594 -1.042389,1.250702 -1.648315,1.783997c-0.659485,0.580414 -1.436798,0.863632 -2.216827,1.399841c-0.74118,0.509506 -1.562317,0.837708 -2.342834,1.121658c-0.881378,0.320648 -1.679108,0.852829 -2.268005,1.37851c-0.748962,0.668564 -1.200653,1.149567 -2.180023,1.599991c-0.735138,0.338104 -1.561676,0.56752 -2.545319,1.001343c-0.674622,0.297531 -1.305023,0.656845 -2.085327,1.282654c-0.617371,0.495117 -1.588409,1.366714 -2.195496,1.758835c-0.733948,0.474075 -1.538452,0.938614 -2.157166,1.514343c-0.586609,0.545837 -1.260956,1.279984 -1.934021,1.758835c-0.707428,0.503311 -1.549133,0.8367 -2.360657,1.236664c-0.796844,0.392731 -1.496307,0.899017 -2.141998,1.421997c-0.811676,0.657425 -1.396637,1.117538 -2.325012,1.520828c-0.801422,0.348145 -1.800385,0.599075 -2.5065,0.846176c-0.736389,0.257706 -1.829834,0.765671 -2.492493,1.226334c-0.658173,0.45755 -1.230682,0.992355 -1.799988,1.463989c-0.984253,0.815384 -1.613586,1.283981 -2.52002,1.601334c-0.736176,0.257736 -1.592407,0.576538 -2.266479,1.266678c-0.56543,0.578903 -0.812164,1.404114 -0.900177,2.289322c-0.094818,0.953903 -0.604767,1.596466 -0.87851,2.589172c-0.193115,0.700333 -0.123566,1.614655 -0.62149,2.5215c-0.315094,0.573868 -0.78302,1.171188 -1.223999,1.824005c-0.788666,1.167542 -1.126678,1.808411 -1.35733,2.642654c-0.221039,0.799484 -0.436737,1.575912 -0.720001,2.436005c-0.295776,0.898132 -0.585754,1.791321 -0.898682,2.640167c-0.384064,1.041779 -0.730103,1.717972 -0.94281,2.409836c-0.29306,0.953247 -0.319092,1.795181 -0.409851,2.709c-0.099945,1.0065 -0.228241,1.722931 -0.37265,2.463669c-0.14621,0.749939 -0.418823,2.206772 -0.490662,2.890656c-0.069092,0.657654 -0.110657,1.639954 -0.250671,2.650665c-0.100128,0.722809 -0.266052,1.480743 -0.444,2.279999c-0.187195,0.84079 -0.491943,2.174255 -0.588013,2.638672c-0.196381,0.949524 -0.373138,1.924164 -0.444153,2.419159c-0.214111,1.49231 -0.239807,1.995728 -0.309021,3.009003c-0.0354,0.518402 -0.099426,1.595459 -0.15799,2.15802c-0.190765,1.832184 -0.328918,2.493378 -0.45816,3.181824c-0.133301,0.70993 -0.283173,1.433228 -0.432007,2.167511c-0.149811,0.739075 -0.306854,1.476166 -0.432007,2.212494c-0.360138,2.118805 -0.404327,2.802124 -0.453674,3.474823c-0.049347,0.672699 -0.076843,1.354218 -0.092987,2.050507c-0.016632,0.718079 -0.019989,1.465332 -0.021332,3.074677c-0.000732,0.873993 0,1.791992 0,2.747986c0,0.988007 0,2.002014 0,3.036011c0,1.048004 0,2.104004 0,4.216003c0,1.044983 0,2.079987 0,3.10498c0,1.015015 0,2.02002 0,3.015015c0,0.984985 -0.000153,1.959991 0,3.880005c0.000092,0.945313 -0.000183,1.88266 0.004486,2.813995c0.004669,0.927338 0.013397,1.852722 0.031525,2.777985c0.018188,0.927399 0.035736,1.859314 0.130646,3.741333c0.048126,0.954376 0.114685,1.912445 0.195007,2.868011c0.079712,0.948456 0.173431,1.882782 0.285004,2.79599c0.108612,0.888794 0.211121,1.749359 0.519989,3.335999c0.141785,0.728363 0.309998,1.408173 0.494995,2.042999c0.175568,0.602509 0.371002,1.168884 0.585022,1.701019c0.20639,0.513184 0.420807,1.007507 0.919983,1.922668c0.24585,0.450714 0.516571,0.887085 0.7995,1.318481c0.286377,0.436676 0.593109,0.871399 0.916504,1.309509c0.332855,0.450958 0.685272,0.911224 1.450684,1.872009c0.406982,0.510895 0.833038,1.033569 1.267487,1.567505c0.438904,0.539398 0.878906,1.07785 1.3125,1.612488c0.424744,0.523712 0.838867,1.028992 1.58667,1.986664c0.338501,0.433533 0.931763,1.236633 1.5,1.9375c0.271179,0.334473 0.8125,1.004761 1.863831,1.862c0.762573,0.621796 1.191467,0.884613 2.02417,1.392487c0.765717,0.46701 1.742065,0.907928 2.5495,1.28717c0.903717,0.424469 1.40155,0.901703 2.02417,1.42984c0.948242,0.804352 1.478882,1.200714 2.03833,1.549347c0.799622,0.498291 1.826508,0.850647 2.541656,1.083313c0.82309,0.267792 1.826324,0.838715 2.214355,1.097015c0.859863,0.572357 1.301697,0.909912 2.257477,1.565002c0.488098,0.334534 1.47525,0.983521 2.487854,1.525665c0.497803,0.26651 1.516846,0.735352 2.034668,0.949341c1.044098,0.431488 2.130249,0.822418 2.684998,1.021332c1.121857,0.402222 1.68399,0.597198 2.237335,0.799988c1.07663,0.394592 1.604126,0.561707 2.977142,1.199829c0.80365,0.373535 1.498779,0.785187 2.151001,1.143005c0.909058,0.498718 1.813599,0.911865 2.434357,1.136322c0.63205,0.228516 1.998383,0.629486 2.736328,0.816345c0.761414,0.19278 1.54245,0.380981 2.742828,0.537842c0.793396,0.103668 1.567719,0.140106 2.291992,0.155975c1.207764,0.026459 2,0.010681 2.90802,0.010681c0.899994,0 1.799988,0 2.715973,0c0.788513,0 1.736328,0.26358 2.584015,-0.041656c0.825775,-0.297363 1.047119,-1.230194 1.821503,-1.936829c0.635315,-0.579742 1.279419,-0.820984 2.269501,-1.317017c0.694397,-0.34787 1.408997,-0.989838 1.408997,-1.90451c0,-0.899994 -0.481628,-1.953247 0,-2.633331c0.43869,-0.619446 0.999329,-0.967987 1,-1.866669c0.000671,-0.899994 0,-1.863983 0,-2.735992l0,-0.863983" id="svg_71" stroke-linecap="null" stroke-linejoin="null" stroke-width="null" stroke="#ff0000" fill="none"/>
  <circle id="svg_73" r="10" cy="390" cx="520" stroke-linecap="null" stroke-linejoin="null" stroke-width="5" stroke="#ff0000" fill="#ffffff"/>
  <circle id="svg_74" r="10" cy="390" cx="460" stroke-linecap="null" stroke-linejoin="null" stroke-dasharray="null" stroke-width="5" stroke="#00bf00" fill="#ffffff"/>
  <circle id="svg_75" r="10" cy="390" cx="400" stroke-linecap="null" stroke-linejoin="null" stroke-dasharray="null" stroke-width="5" stroke="#000000" fill="#ffffff"/>
  <g id="svg_85">
   <line id="svg_80" y2="420" x2="460" y1="400" x1="460" stroke-linecap="null" stroke-linejoin="null" stroke-dasharray="null" stroke-width="3" stroke="#000000" fill="none"/>
   <line id="svg_81" y2="420" x2="480" y1="420" x1="440" stroke-linecap="null" stroke-linejoin="null" stroke-dasharray="null" stroke-width="3" stroke="#000000" fill="none"/>
   <line id="svg_82" y2="430" x2="470" y1="430" x1="450" stroke-linecap="null" stroke-linejoin="null" stroke-dasharray="null" stroke-width="3" stroke="#000000" fill="none"/>
   <line id="svg_83" y2="440" x2="465" y1="440" x1="455" stroke-linecap="null" stroke-linejoin="null" stroke-dasharray="null" stroke-width="3" stroke="#000000" fill="none"/>
  </g>
  <line id="svg_86" y2="460" x2="400" y1="400" x1="400" stroke-linecap="null" stroke-linejoin="null" stroke-dasharray="null" stroke-width="3" stroke="#000000" fill="none"/>
  <line id="svg_87" y2="460" x2="520" y1="400" x1="520" stroke-linecap="null" stroke-linejoin="null" stroke-dasharray="null" stroke-width="3" stroke="#000000" fill="none"/>
  <line id="svg_88" y2="460" x2="410" y1="460" x1="400" stroke-linecap="null" stroke-linejoin="null" stroke-dasharray="null" stroke-width="3" stroke="#000000" fill="none"/>
  <line id="svg_89" y2="460" x2="510" y1="460" x1="520" stroke-linecap="null" stroke-linejoin="null" stroke-dasharray="null" stroke-width="3" stroke="#000000" fill="none"/>
  <text xml:space="preserve" text-anchor="middle" font-family="serif" font-size="24" id="svg_90" y="470" x="460" stroke-linecap="null" stroke-linejoin="null" stroke-dasharray="null" stroke-width="0" stroke="#000000" fill="#000000">5A max</text>
  <path d="m399.899994,376.700012c2.5,0 3.300537,0.026459 4.056335,-0.057159c1.029144,-0.113861 1.933014,-0.47998 2.627655,-0.658844c0.990387,-0.255005 1.861511,-0.28125 2.477661,-0.393829c1.012787,-0.185028 2.091827,-0.58783 2.817505,-0.911011c0.716431,-0.319061 1.683685,-0.820313 2.250183,-1.092499c0.943146,-0.453125 1.763855,-0.771362 2.559998,-0.850647c1.03949,-0.103516 1.872009,-0.036011 2.753662,-0.036011c0.729004,0 1.56601,0.004181 2.757172,-0.000153c0.60434,-0.002197 1.537781,-0.014771 2.18515,-0.085175c1.407043,-0.153015 2.160522,-0.344482 2.961334,-0.489349c0.414581,-0.074982 1.718964,-0.271088 2.636017,-0.341309c0.931122,-0.071289 1.39743,-0.069763 2.307495,-0.136688c1.278107,-0.093994 2.041992,-0.224182 3.088989,-0.447327c0.669983,-0.142792 1.685547,-0.352844 2.403503,-0.414673c1.09433,-0.094269 1.807495,-0.083069 2.783997,-0.085327c0.819,-0.001892 1.724548,0.019501 2.736023,-0.001343c0.869843,-0.017914 1.932678,-0.15506 2.565308,-0.283997c0.685028,-0.139618 1.734558,-0.394409 2.698669,-0.714661c0.826294,-0.274475 1.491974,-0.638519 2.533173,-0.878662c0.768524,-0.177277 1.75827,-0.383301 2.425507,-0.696014c0.837341,-0.392456 1.585297,-0.419983 2.574677,-0.425323c0.799988,-0.004303 1.801056,0.03186 2.599976,-0.010681c0.802368,-0.042725 1.787384,-0.378815 2.600006,-0.636658c0.985443,-0.312653 1.768555,-0.260406 2.714661,-0.354004c0.896271,-0.088684 1.4729,-0.818481 2.332001,-0.998657c0.856049,-0.179535 1.732056,0.085968 2.667999,-0.001343c0.896759,-0.083649 1.476501,-0.680389 2.374664,-1.197327c0.569336,-0.327698 1.362244,-0.556427 2.374512,-0.67984c0.786469,-0.095886 1.615204,-0.107422 2.42099,-0.117004c1.32959,-0.015808 2.19986,0.009064 3.215179,-0.171143c0.555664,-0.098633 1.498749,-0.338898 2.141998,-0.480682c1.091614,-0.240601 1.962524,-0.321106 3.019653,-0.357147c0.585541,-0.019958 1.76236,-0.206085 2.553009,-0.420837c0.778473,-0.211456 1.655396,-0.396973 2.533508,-0.62735c0.921783,-0.241821 1.60141,-0.587982 2.494659,-0.894653c0.959686,-0.329498 1.525299,-0.899048 2.393158,-1.041992c1.003235,-0.165253 1.711334,-0.009949 2.717346,-0.010681c0.930664,-0.000671 1.493591,-0.588837 2.188324,-1c0.697357,-0.41272 1.903625,-0.242035 2.449341,-1.052673c0.421387,-0.625946 0.552612,-1.688538 1.408997,-1.911316c0.871704,-0.226776 1.96106,0.274536 2.600159,-0.257355c0.6203,-0.516266 1.014801,-1.166229 1.574524,-1.803986c0.517456,-0.5896 0.977448,-1.395538 1.646667,-1.85318c0.786743,-0.537994 1.694641,-0.405487 2.131317,-1.068817l0.647339,-0.552673" id="svg_91" stroke-linecap="null" stroke-linejoin="null" stroke-dasharray="null" stroke="#000000" fill="none"/>
  <path d="m153.899994,188.700012c0.664169,2.863663 1.046021,3.658569 1.520828,4.458328c0.462463,0.778976 1.126495,1.726746 1.673843,2.282837c0.590469,0.599884 1.152252,1.250641 1.577332,1.97084c0.52774,0.894135 0.790176,1.413177 1.085327,1.951996c0.308502,0.563187 1.306763,2.337524 1.664337,2.936829c0.362396,0.607391 0.740784,1.221191 1.125,1.852509c0.395798,0.650345 0.803772,1.324463 1.214996,2.032501c0.42894,0.738556 1.309311,2.345261 1.760498,3.222c0.473022,0.919174 0.951859,1.887573 1.456512,2.893494c0.524307,1.04509 1.069931,2.127167 1.654495,3.235504c0.603271,1.143814 1.925049,3.501556 2.652832,4.706665c0.746689,1.23642 1.539658,2.486252 2.358002,3.760498c0.836258,1.302139 1.700562,2.624115 2.57399,3.976501c0.889267,1.376923 2.687729,4.215988 3.581512,5.682999c0.902298,1.480988 1.790161,2.979141 2.668488,4.480499c0.872665,1.491653 1.724792,2.971558 2.560501,4.426498c0.816254,1.421082 2.370239,4.130234 3.106842,5.400497c0.706131,1.217712 1.389038,2.385773 2.04599,3.513c0.635712,1.09079 1.252838,2.150772 1.848007,3.189011c0.58345,1.017792 1.706924,3.025406 2.249496,4.027145c0.541428,0.999603 1.073044,2.004303 1.606506,3.010529c0.535538,1.010132 1.073227,2.026825 1.624496,3.046478c0.556702,1.029694 1.71907,3.112061 2.33284,4.164001c0.620865,1.064117 1.260757,2.128174 1.90799,3.193512c0.64743,1.065643 1.299118,2.123718 1.944,3.175507c0.637787,1.040222 1.874298,3.075104 2.462341,4.066498c0.57457,0.968689 1.128784,1.919922 1.67099,2.849976c0.530457,0.909943 1.048492,1.8013 1.563004,2.670013c0.504196,0.851288 1.505463,2.492249 2.008835,3.280487c0.495377,0.775726 0.995209,1.533325 1.489502,2.281525c0.48938,0.740784 0.977356,1.474243 1.453506,2.209503c0.474518,0.732758 1.395355,2.215607 1.835663,2.972992c0.441055,0.758667 0.866226,1.52597 1.285492,2.293488c0.417053,0.763458 0.824173,1.524658 1.231506,2.275513c0.402023,0.741089 1.200897,2.178589 1.604828,2.867645c0.398788,0.680298 0.807556,1.351013 1.221008,2.023529c0.419205,0.681854 0.852005,1.376495 1.292999,2.09549c0.457733,0.746307 1.422043,2.354736 1.928329,3.230164c0.528519,0.913849 1.064941,1.864075 1.608002,2.841003c0.551636,0.992371 1.10051,1.996307 1.643997,3.002991c0.539169,0.998688 1.57338,2.948273 2.062668,3.88501c0.476013,0.911285 0.937698,1.805817 1.391998,2.687988c0.451035,0.875824 0.900635,1.75238 1.356003,2.634003c0.46196,0.894379 1.426056,2.743042 1.938171,3.707001c0.52916,0.996063 1.081467,2.021545 1.660492,3.075012c0.597244,1.086609 1.22168,2.202057 1.876495,3.345001c0.674423,1.177155 2.115906,3.617188 2.883514,4.878815c0.784317,1.289093 1.59227,2.590729 2.411987,3.90152c0.822281,1.31488 1.64801,2.62265 2.466003,3.919495c0.806,1.277832 2.358734,3.748047 3.093842,4.928986c0.711533,1.143066 1.398895,2.254761 2.077499,3.331512c0.663132,1.052216 1.320496,2.080078 1.987488,3.079498c0.65976,0.988586 2.024216,2.914795 2.742004,3.85318c0.718277,0.938995 1.460159,1.857056 2.218491,2.753998c0.752777,0.890381 1.51825,1.754608 2.290497,2.59198c0.759857,0.823914 2.275909,2.381744 3.027344,3.111511c0.735382,0.714172 1.475006,1.400574 2.227509,2.056488c0.749268,0.653107 1.519897,1.28476 2.317505,1.894501c0.809052,0.618469 2.537018,1.82196 3.462646,2.413849c0.955627,0.611084 1.960632,1.215057 3.010498,1.820984c1.086365,0.626984 2.223022,1.254974 3.406525,1.893005c1.225739,0.660797 3.828766,2.020416 5.202484,2.728333c1.410278,0.726776 2.848602,1.461487 4.299011,2.208008c1.453613,0.748138 2.898071,1.49472 4.316986,2.243988c1.389038,0.73349 4.014832,2.165344 5.226013,2.861511c1.148621,0.660217 2.222534,1.302856 3.225006,1.918488c0.937378,0.575653 1.800903,1.122589 2.595001,1.630493c0.7258,0.464203 1.963501,1.263885 2.481323,1.587341c0.453003,0.282959 0.852753,0.525024 1.208984,0.727509c0.314667,0.178833 0.601013,0.330139 0.867004,0.457489c0.24881,0.11911 0.740326,0.324188 0.996521,0.422668c0.267822,0.102936 0.552429,0.205902 0.856476,0.310516c0.324951,0.111816 0.675629,0.226563 1.054504,0.346497c0.409088,0.129517 1.333191,0.410492 1.85318,0.564331c0.557343,0.164886 1.15094,0.337036 1.778992,0.514496c0.659271,0.186279 1.348846,0.376495 2.066986,0.568512c0.743164,0.1987 2.300476,0.597778 3.110352,0.795319c0.824768,0.201172 1.66214,0.39801 2.507996,0.589508c0.848816,0.192169 1.69812,0.377228 2.544006,0.553497c0.836823,0.174377 2.471527,0.493042 3.261841,0.635651c0.768402,0.138641 1.515472,0.26535 2.239502,0.385529c0.699677,0.116119 1.374786,0.224579 2.023499,0.331482c0.621948,0.102478 1.780792,0.302826 2.31665,0.404327c0.513489,0.09726 1.01001,0.197449 1.498505,0.28952c0.48584,0.091583 0.976624,0.179352 1.480499,0.253479c0.521454,0.076721 1.651154,0.195557 2.270996,0.23584c0.656158,0.042664 1.346954,0.070129 2.068512,0.096008c0.74942,0.026855 1.524048,0.049042 2.320496,0.078003c0.815552,0.029663 2.491791,0.109619 3.345337,0.168823c0.857117,0.059448 1.710022,0.131775 2.551483,0.214508c0.824249,0.081024 1.623169,0.170624 2.389496,0.268494c0.728333,0.093018 2.039246,0.291382 2.610168,0.395325c0.522369,0.095093 1.003357,0.195618 1.455017,0.28952c0.431671,0.089752 0.85257,0.178864 1.274994,0.253479c0.430939,0.076141 1.364563,0.195679 1.884155,0.23584c0.553772,0.042816 1.138275,0.070068 1.747498,0.096008c0.62912,0.026794 1.273438,0.048798 1.927521,0.078003c0.659241,0.029449 1.972992,0.108643 2.617828,0.169006c0.637848,0.059692 1.269379,0.134949 1.895996,0.224976c0.626068,0.089966 1.251495,0.195557 1.877991,0.315002c0.632233,0.120514 1.914642,0.402374 2.569,0.559662c0.665649,0.160004 1.339935,0.331604 2.025024,0.504028c0.694916,0.174896 1.399292,0.352295 2.11499,0.521973c0.724304,0.171692 2.203918,0.491608 2.959839,0.631012c0.762817,0.140656 1.534882,0.265289 2.314484,0.375c0.784119,0.110352 1.574158,0.205109 2.3685,0.285004c0.796356,0.080109 2.395264,0.199402 3.194855,0.240173c0.795105,0.040527 1.582581,0.067169 2.357971,0.08548c0.759277,0.017944 1.498688,0.026794 2.21402,0.031525c0.687317,0.004547 1.962006,0.004486 2.54248,0.004486c0.543518,0 1.053009,0 1.531525,0c0.4505,0 0.875977,0 1.27948,0c0.384521,0 1.108521,-0.000519 1.45401,0.000153c0.338501,0.000671 0.673035,0.00238 1.0065,0.010529c0.335571,0.008209 0.676208,0.022278 1.024506,0.046478c0.359741,0.024994 1.123871,0.106812 1.53299,0.164185c0.42691,0.059875 0.867065,0.130981 1.318512,0.203979c0.459564,0.07431 0.923706,0.151245 1.390503,0.222015c0.46521,0.070526 1.381104,0.190063 1.826477,0.231171c0.434692,0.040131 0.859894,0.067139 1.275024,0.08548c0.404877,0.017883 0.799957,0.026825 1.184998,0.031525c0.375,0.004578 1.095001,0.004486 1.440491,0.004486c0.338501,0 0.673004,0 1.0065,0c0.33551,0 0.675995,0 1.024506,0c0.359497,0 1.123505,0 1.53299,0c0.426514,0 0.867004,0 1.318512,0c0.459503,0 0.923981,0 1.390503,0c0.465485,0 1.3815,0 1.82666,0c0.436157,0 0.864319,0 1.285492,0c0.415161,0 0.825348,0 1.231506,0c0.403168,0 1.204498,0.000519 1.60434,-0.000153c0.398834,-0.000671 0.795685,-0.002289 1.189484,-0.010529c0.389893,-0.008148 0.774902,-0.021576 1.153503,-0.046478c0.372101,-0.024475 1.091278,-0.104828 1.435669,-0.164185c0.337006,-0.058075 0.664703,-0.1297 0.985504,-0.203979c0.315521,-0.073059 0.624969,-0.15094 0.931488,-0.222015c0.302826,-0.070221 0.90387,-0.190491 1.204681,-0.231171c0.300568,-0.040649 0.604156,-0.067413 0.910492,-0.08548c0.309998,-0.01828 0.625305,-0.026886 0.946503,-0.031525c0.328125,-0.00473 1.009491,-0.003998 1.364655,-0.004639c0.36618,-0.000671 0.744385,-0.002533 1.135498,-0.010529c0.405212,-0.008301 0.8255,-0.022369 1.261505,-0.046478c0.453369,-0.025085 1.414856,-0.106384 1.923523,-0.164185c0.523346,-0.059448 1.054169,-0.130066 1.586975,-0.203979c0.529205,-0.073425 1.047943,-0.14978 1.551025,-0.222015c0.480927,-0.069061 1.352814,-0.187561 1.733826,-0.231506c0.345673,-0.039886 0.661926,-0.070709 0.952484,-0.106476c0.271118,-0.033386 0.527893,-0.07019 0.772522,-0.124512c0.242157,-0.053772 0.729889,-0.218079 0.982483,-0.33316c0.2677,-0.121979 0.541321,-0.268982 0.825012,-0.429016c0.296387,-0.167206 0.600006,-0.349335 0.914978,-0.536987c0.325012,-0.193665 1.003906,-0.592957 1.359863,-0.791168c0.733429,-0.408386 1.500671,-0.818237 1.88916,-1.035828c0.793427,-0.444397 1.992126,-1.180054 2.775818,-1.707672c0.383118,-0.257935 1.089722,-0.783173 1.757507,-1.20166c1.158691,-0.726105 2.056,-0.854675 2.934662,-1.076019l0.405334,-0.694641l0.679993,-0.509338" id="svg_92" stroke-linecap="null" stroke-linejoin="null" stroke-dasharray="null" stroke="#00bf00" fill="none"/>
  <path d="m517.899963,379.700012c-1.138611,-1.200012 -2.043213,-1.494873 -2.703613,-1.700012c-1.256409,-0.390259 -2.029602,-0.688629 -2.687378,-1c-0.816223,-0.386383 -1.67395,-0.837097 -2.180481,-1.114319c-0.933105,-0.510681 -1.680908,-0.952972 -2.504486,-1.43634c-0.424225,-0.248962 -1.261475,-0.751862 -2.424011,-1.415985c-0.640198,-0.365723 -1.388184,-0.844666 -2.333344,-1.166687c-0.842072,-0.286896 -1.629761,-0.740204 -2.466644,-1.113983c-0.772034,-0.344788 -1.375916,-0.870178 -1.725342,-1.652679c-0.36084,-0.807983 -1.058685,-1.484009 -1.679169,-2.104492c-0.59549,-0.59549 -1.382965,-1.223938 -1.859497,-1.895508c-0.514893,-0.725677 -1.148041,-1.2789 -1.425323,-2.010651c-0.338226,-0.892548 -0.485809,-1.589508 -1.177338,-2.222687c-0.598053,-0.547577 -1.275299,-0.95224 -2.032013,-1.451996c-0.608917,-0.402161 -0.61319,-1.457001 -0.837341,-2.325317c-0.217621,-0.842957 -0.748444,-1.678741 -1.247986,-2.305328c-0.496613,-0.622925 -1,-1.284027 -1.549347,-2.084015l-0.165314,-0.714661l-0.648682,-0.342499" id="svg_94" stroke-linecap="null" stroke-linejoin="null" stroke-dasharray="null" stroke="#ff0000" fill="none"/>
 </g>
</svg>
