<?xml version="1.0"?>
<!-- Created by MetaPost 1.9991 on 2016.09.29:1645 -->
<svg version="1.1" xmlns="http://www.w3.org/2000/svg" xmlns:xlink="http://www.w3.org/1999/xlink" width="265.820496" height="303.831238" viewBox="0 0 265.820496 303.831238">
<!-- Original BoundingBox: -39.528259 -292.696259 226.292236 11.134979 -->
  <defs>
    <g transform="scale(0.009963,0.009963)" id="GLYPHcmmi10_69">
      <path style="fill-rule: evenodd;" d="M708.000000 -233.000000C710.000000 -238.000000,713.000000 -245.000000,713.000000 -247.000000C713.000000 -248.000000,713.000000 -258.000000,701.000000 -258.000000C692.000000 -258.000000,690.000000 -252.000000,688.000000 -246.000000C623.000000 -98.000000,586.000000 -31.000000,415.000000 -31.000000L269.000000 -31.000000C255.000000 -31.000000,253.000000 -31.000000,247.000000 -32.000000C237.000000 -33.000000,234.000000 -34.000000,234.000000 -42.000000C234.000000 -45.000000,234.000000 -47.000000,239.000000 -65.000000L307.000000 -338.000000L406.000000 -338.000000C491.000000 -338.000000,491.000000 -317.000000,491.000000 -292.000000C491.000000 -285.000000,491.000000 -273.000000,484.000000 -243.000000C482.000000 -238.000000,481.000000 -235.000000,481.000000 -232.000000C481.000000 -227.000000,485.000000 -221.000000,494.000000 -221.000000C502.000000 -221.000000,505.000000 -226.000000,509.000000 -241.000000L566.000000 -475.000000C566.000000 -481.000000,561.000000 -486.000000,554.000000 -486.000000C545.000000 -486.000000,543.000000 -480.000000,540.000000 -468.000000C519.000000 -392.000000,501.000000 -369.000000,409.000000 -369.000000L315.000000 -369.000000L375.000000 -610.000000C384.000000 -645.000000,385.000000 -649.000000,429.000000 -649.000000L570.000000 -649.000000C692.000000 -649.000000,722.000000 -620.000000,722.000000 -538.000000C722.000000 -514.000000,722.000000 -512.000000,718.000000 -485.000000C718.000000 -479.000000,717.000000 -472.000000,717.000000 -467.000000C717.000000 -462.000000,720.000000 -455.000000,729.000000 -455.000000C740.000000 -455.000000,741.000000 -461.000000,743.000000 -480.000000L763.000000 -653.000000C766.000000 -680.000000,761.000000 -680.000000,736.000000 -680.000000L231.000000 -680.000000C211.000000 -680.000000,201.000000 -680.000000,201.000000 -660.000000C201.000000 -649.000000,210.000000 -649.000000,229.000000 -649.000000C266.000000 -649.000000,294.000000 -649.000000,294.000000 -631.000000C294.000000 -627.000000,294.000000 -625.000000,289.000000 -607.000000L157.000000 -78.000000C147.000000 -39.000000,145.000000 -31.000000,66.000000 -31.000000C49.000000 -31.000000,38.000000 -31.000000,38.000000 -12.000000C38.000000 -0.000000,47.000000 -0.000000,66.000000 -0.000000L585.000000 -0.000000C608.000000 -0.000000,609.000000 -1.000000,616.000000 -17.000000"></path>
    </g>
    <g transform="scale(0.009963,0.009963)" id="GLYPHcmmi10_71">
      <path style="fill-rule: evenodd;" d="M760.000000 -695.000000C760.000000 -698.000000,758.000000 -705.000000,749.000000 -705.000000C746.000000 -705.000000,745.000000 -704.000000,734.000000 -693.000000L664.000000 -616.000000C655.000000 -630.000000,609.000000 -705.000000,498.000000 -705.000000C275.000000 -705.000000,50.000000 -484.000000,50.000000 -252.000000C50.000000 -93.000000,161.000000 22.000000,323.000000 22.000000C367.000000 22.000000,412.000000 13.000000,448.000000 -2.000000C498.000000 -22.000000,517.000000 -43.000000,535.000000 -63.000000C544.000000 -38.000000,570.000000 -1.000000,580.000000 -1.000000C585.000000 -1.000000,587.000000 -4.000000,587.000000 -5.000000C589.000000 -7.000000,599.000000 -45.000000,604.000000 -66.000000L623.000000 -143.000000C627.000000 -160.000000,632.000000 -177.000000,636.000000 -194.000000C647.000000 -239.000000,648.000000 -241.000000,705.000000 -242.000000C710.000000 -242.000000,721.000000 -243.000000,721.000000 -262.000000C721.000000 -269.000000,716.000000 -273.000000,708.000000 -273.000000C685.000000 -273.000000,626.000000 -270.000000,603.000000 -270.000000C572.000000 -270.000000,494.000000 -273.000000,463.000000 -273.000000C454.000000 -273.000000,442.000000 -273.000000,442.000000 -253.000000C442.000000 -242.000000,450.000000 -242.000000,472.000000 -242.000000C473.000000 -242.000000,502.000000 -242.000000,525.000000 -240.000000C551.000000 -237.000000,556.000000 -234.000000,556.000000 -221.000000C556.000000 -212.000000,545.000000 -167.000000,535.000000 -130.000000C507.000000 -20.000000,377.000000 -9.000000,342.000000 -9.000000C246.000000 -9.000000,141.000000 -66.000000,141.000000 -219.000000C141.000000 -250.000000,151.000000 -415.000000,256.000000 -545.000000C310.000000 -613.000000,407.000000 -674.000000,506.000000 -674.000000C608.000000 -674.000000,667.000000 -597.000000,667.000000 -481.000000C667.000000 -441.000000,664.000000 -440.000000,664.000000 -430.000000C664.000000 -420.000000,675.000000 -420.000000,679.000000 -420.000000C692.000000 -420.000000,692.000000 -422.000000,697.000000 -440.000000"></path>
    </g>
    <g transform="scale(0.009963,0.009963)" id="GLYPHcmmi10_79">
      <path style="fill-rule: evenodd;" d="M740.000000 -436.000000C740.000000 -597.000000,634.000000 -705.000000,485.000000 -705.000000C269.000000 -705.000000,49.000000 -478.000000,49.000000 -245.000000C49.000000 -79.000000,161.000000 22.000000,305.000000 22.000000C517.000000 22.000000,740.000000 -197.000000,740.000000 -436.000000M311.000000 -4.000000C212.000000 -4.000000,142.000000 -85.000000,142.000000 -217.000000C142.000000 -261.000000,156.000000 -407.000000,233.000000 -524.000000C302.000000 -628.000000,400.000000 -680.000000,479.000000 -680.000000C561.000000 -680.000000,651.000000 -624.000000,651.000000 -475.000000C651.000000 -403.000000,624.000000 -247.000000,525.000000 -124.000000C477.000000 -63.000000,395.000000 -4.000000,311.000000 -4.000000"></path>
    </g>
    <g transform="scale(0.009963,0.009963)" id="GLYPHcmmi10_97">
      <path style="fill-rule: evenodd;" d="M373.000000 -378.000000C355.000000 -415.000000,326.000000 -442.000000,281.000000 -442.000000C164.000000 -442.000000,40.000000 -295.000000,40.000000 -149.000000C40.000000 -55.000000,95.000000 11.000000,173.000000 11.000000C193.000000 11.000000,243.000000 7.000000,303.000000 -64.000000C311.000000 -22.000000,346.000000 11.000000,394.000000 11.000000C429.000000 11.000000,452.000000 -12.000000,468.000000 -44.000000C485.000000 -80.000000,498.000000 -141.000000,498.000000 -143.000000C498.000000 -153.000000,489.000000 -153.000000,486.000000 -153.000000C476.000000 -153.000000,475.000000 -149.000000,472.000000 -135.000000C455.000000 -70.000000,437.000000 -11.000000,396.000000 -11.000000C369.000000 -11.000000,366.000000 -37.000000,366.000000 -57.000000C366.000000 -79.000000,368.000000 -87.000000,379.000000 -131.000000C390.000000 -173.000000,392.000000 -183.000000,401.000000 -221.000000L437.000000 -361.000000C444.000000 -389.000000,444.000000 -391.000000,444.000000 -395.000000C444.000000 -412.000000,432.000000 -422.000000,415.000000 -422.000000C391.000000 -422.000000,376.000000 -400.000000,373.000000 -378.000000M308.000000 -119.000000C303.000000 -101.000000,303.000000 -99.000000,288.000000 -82.000000C244.000000 -27.000000,203.000000 -11.000000,175.000000 -11.000000C125.000000 -11.000000,111.000000 -66.000000,111.000000 -105.000000C111.000000 -155.000000,143.000000 -278.000000,166.000000 -324.000000C197.000000 -383.000000,242.000000 -420.000000,282.000000 -420.000000C347.000000 -420.000000,361.000000 -338.000000,361.000000 -332.000000C361.000000 -326.000000,359.000000 -320.000000,358.000000 -315.000000"></path>
    </g>
    <g transform="scale(0.009963,0.009963)" id="GLYPHcmmi10_103">
      <path style="fill-rule: evenodd;" d="M471.000000 -377.000000C472.000000 -383.000000,474.000000 -388.000000,474.000000 -395.000000C474.000000 -412.000000,462.000000 -422.000000,445.000000 -422.000000C435.000000 -422.000000,408.000000 -415.000000,404.000000 -379.000000C386.000000 -416.000000,351.000000 -442.000000,311.000000 -442.000000C197.000000 -442.000000,73.000000 -302.000000,73.000000 -158.000000C73.000000 -59.000000,134.000000 -0.000000,206.000000 -0.000000C265.000000 -0.000000,312.000000 -47.000000,322.000000 -58.000000L323.000000 -57.000000C302.000000 32.000000,290.000000 73.000000,290.000000 75.000000C286.000000 84.000000,252.000000 183.000000,146.000000 183.000000C127.000000 183.000000,94.000000 182.000000,66.000000 173.000000C96.000000 164.000000,107.000000 138.000000,107.000000 121.000000C107.000000 105.000000,96.000000 86.000000,69.000000 86.000000C47.000000 86.000000,15.000000 104.000000,15.000000 144.000000C15.000000 185.000000,52.000000 205.000000,148.000000 205.000000C273.000000 205.000000,345.000000 127.000000,360.000000 67.000000M341.000000 -128.000000C335.000000 -102.000000,312.000000 -77.000000,290.000000 -58.000000C269.000000 -40.000000,238.000000 -22.000000,209.000000 -22.000000C159.000000 -22.000000,144.000000 -74.000000,144.000000 -114.000000C144.000000 -162.000000,173.000000 -280.000000,200.000000 -331.000000C227.000000 -380.000000,270.000000 -420.000000,312.000000 -420.000000C378.000000 -420.000000,392.000000 -339.000000,392.000000 -334.000000C392.000000 -329.000000,390.000000 -323.000000,389.000000 -319.000000"></path>
    </g>
    <g transform="scale(0.009963,0.009963)" id="GLYPHcmmi10_108">
      <path style="fill-rule: evenodd;" d="M258.000000 -683.000000C258.000000 -684.000000,258.000000 -694.000000,245.000000 -694.000000C222.000000 -694.000000,149.000000 -686.000000,123.000000 -684.000000C115.000000 -683.000000,104.000000 -682.000000,104.000000 -663.000000C104.000000 -652.000000,114.000000 -652.000000,129.000000 -652.000000C177.000000 -652.000000,178.000000 -643.000000,178.000000 -635.000000L175.000000 -615.000000L49.000000 -115.000000C46.000000 -104.000000,44.000000 -97.000000,44.000000 -81.000000C44.000000 -24.000000,88.000000 11.000000,135.000000 11.000000C168.000000 11.000000,193.000000 -9.000000,210.000000 -45.000000C228.000000 -83.000000,240.000000 -141.000000,240.000000 -143.000000C240.000000 -153.000000,231.000000 -153.000000,228.000000 -153.000000C218.000000 -153.000000,217.000000 -149.000000,214.000000 -135.000000C197.000000 -70.000000,178.000000 -11.000000,138.000000 -11.000000C108.000000 -11.000000,108.000000 -43.000000,108.000000 -57.000000C108.000000 -81.000000,109.000000 -86.000000,114.000000 -105.000000"></path>
    </g>
    <g transform="scale(0.009963,0.009963)" id="GLYPHcmmi10_113">
      <path style="fill-rule: evenodd;" d="M452.000000 -431.000000C452.000000 -435.000000,449.000000 -441.000000,442.000000 -441.000000C431.000000 -441.000000,391.000000 -401.000000,374.000000 -372.000000C352.000000 -426.000000,313.000000 -442.000000,281.000000 -442.000000C163.000000 -442.000000,40.000000 -294.000000,40.000000 -149.000000C40.000000 -51.000000,99.000000 11.000000,172.000000 11.000000C215.000000 11.000000,254.000000 -13.000000,290.000000 -49.000000C281.000000 -14.000000,248.000000 121.000000,245.000000 130.000000C237.000000 158.000000,229.000000 162.000000,173.000000 163.000000C160.000000 163.000000,150.000000 163.000000,150.000000 183.000000C150.000000 184.000000,150.000000 194.000000,163.000000 194.000000C195.000000 194.000000,230.000000 191.000000,263.000000 191.000000C297.000000 191.000000,333.000000 194.000000,366.000000 194.000000C371.000000 194.000000,384.000000 194.000000,384.000000 174.000000C384.000000 163.000000,374.000000 163.000000,358.000000 163.000000C310.000000 163.000000,310.000000 156.000000,310.000000 147.000000C310.000000 140.000000,312.000000 134.000000,314.000000 125.000000M175.000000 -11.000000C115.000000 -11.000000,111.000000 -88.000000,111.000000 -105.000000C111.000000 -153.000000,140.000000 -262.000000,157.000000 -304.000000C188.000000 -378.000000,240.000000 -420.000000,281.000000 -420.000000C346.000000 -420.000000,360.000000 -339.000000,360.000000 -332.000000C360.000000 -326.000000,305.000000 -107.000000,302.000000 -103.000000C287.000000 -75.000000,231.000000 -11.000000,175.000000 -11.000000"></path>
    </g>
    <g transform="scale(0.009963,0.009963)" id="GLYPHcmmi10_120">
      <path style="fill-rule: evenodd;" d="M334.000000 -302.000000C340.000000 -328.000000,363.000000 -420.000000,433.000000 -420.000000C438.000000 -420.000000,462.000000 -420.000000,483.000000 -407.000000C455.000000 -402.000000,435.000000 -377.000000,435.000000 -353.000000C435.000000 -337.000000,446.000000 -318.000000,473.000000 -318.000000C495.000000 -318.000000,527.000000 -336.000000,527.000000 -376.000000C527.000000 -428.000000,468.000000 -442.000000,434.000000 -442.000000C376.000000 -442.000000,341.000000 -389.000000,329.000000 -366.000000C304.000000 -432.000000,250.000000 -442.000000,221.000000 -442.000000C117.000000 -442.000000,60.000000 -313.000000,60.000000 -288.000000C60.000000 -278.000000,70.000000 -278.000000,72.000000 -278.000000C80.000000 -278.000000,83.000000 -280.000000,85.000000 -289.000000C119.000000 -395.000000,185.000000 -420.000000,219.000000 -420.000000C238.000000 -420.000000,273.000000 -411.000000,273.000000 -353.000000C273.000000 -322.000000,256.000000 -255.000000,219.000000 -115.000000C203.000000 -53.000000,168.000000 -11.000000,124.000000 -11.000000C118.000000 -11.000000,95.000000 -11.000000,74.000000 -24.000000C99.000000 -29.000000,121.000000 -50.000000,121.000000 -78.000000C121.000000 -105.000000,99.000000 -113.000000,84.000000 -113.000000C54.000000 -113.000000,29.000000 -87.000000,29.000000 -55.000000C29.000000 -9.000000,79.000000 11.000000,123.000000 11.000000C189.000000 11.000000,225.000000 -59.000000,228.000000 -65.000000C240.000000 -28.000000,276.000000 11.000000,336.000000 11.000000C439.000000 11.000000,496.000000 -118.000000,496.000000 -143.000000C496.000000 -153.000000,487.000000 -153.000000,484.000000 -153.000000C475.000000 -153.000000,473.000000 -149.000000,471.000000 -142.000000C438.000000 -35.000000,370.000000 -11.000000,338.000000 -11.000000C299.000000 -11.000000,283.000000 -43.000000,283.000000 -77.000000C283.000000 -99.000000,289.000000 -121.000000,300.000000 -165.000000"></path>
    </g>
    <g transform="scale(0.009963,0.009963)" id="GLYPHcmmi10_121">
      <path style="fill-rule: evenodd;" d="M486.000000 -381.000000C490.000000 -395.000000,490.000000 -397.000000,490.000000 -404.000000C490.000000 -422.000000,476.000000 -431.000000,461.000000 -431.000000C451.000000 -431.000000,435.000000 -425.000000,426.000000 -410.000000C424.000000 -405.000000,416.000000 -374.000000,412.000000 -356.000000C405.000000 -330.000000,398.000000 -303.000000,392.000000 -276.000000L347.000000 -96.000000C343.000000 -81.000000,300.000000 -11.000000,234.000000 -11.000000C183.000000 -11.000000,172.000000 -55.000000,172.000000 -92.000000C172.000000 -138.000000,189.000000 -200.000000,223.000000 -288.000000C239.000000 -329.000000,243.000000 -340.000000,243.000000 -360.000000C243.000000 -405.000000,211.000000 -442.000000,161.000000 -442.000000C66.000000 -442.000000,29.000000 -297.000000,29.000000 -288.000000C29.000000 -278.000000,39.000000 -278.000000,41.000000 -278.000000C51.000000 -278.000000,52.000000 -280.000000,57.000000 -296.000000C84.000000 -390.000000,124.000000 -420.000000,158.000000 -420.000000C166.000000 -420.000000,183.000000 -420.000000,183.000000 -388.000000C183.000000 -363.000000,173.000000 -337.000000,166.000000 -318.000000C126.000000 -212.000000,108.000000 -155.000000,108.000000 -108.000000C108.000000 -19.000000,171.000000 11.000000,230.000000 11.000000C269.000000 11.000000,303.000000 -6.000000,331.000000 -34.000000C318.000000 18.000000,306.000000 67.000000,266.000000 120.000000C240.000000 154.000000,202.000000 183.000000,156.000000 183.000000C142.000000 183.000000,97.000000 180.000000,80.000000 141.000000C96.000000 141.000000,109.000000 141.000000,123.000000 129.000000C133.000000 120.000000,143.000000 107.000000,143.000000 88.000000C143.000000 57.000000,116.000000 53.000000,106.000000 53.000000C83.000000 53.000000,50.000000 69.000000,50.000000 118.000000C50.000000 168.000000,94.000000 205.000000,156.000000 205.000000C259.000000 205.000000,362.000000 114.000000,390.000000 1.000000"></path>
    </g>
    <g transform="scale(0.009963,0.009963)" id="GLYPHcmmi10_123">
      <path style="fill-rule: evenodd;" d="M208.000000 -249.000000C220.000000 -278.000000,220.000000 -280.000000,230.000000 -307.000000C238.000000 -327.000000,243.000000 -341.000000,243.000000 -360.000000C243.000000 -405.000000,211.000000 -442.000000,161.000000 -442.000000C67.000000 -442.000000,29.000000 -297.000000,29.000000 -288.000000C29.000000 -278.000000,39.000000 -278.000000,41.000000 -278.000000C51.000000 -278.000000,52.000000 -280.000000,57.000000 -296.000000C84.000000 -390.000000,124.000000 -420.000000,158.000000 -420.000000C166.000000 -420.000000,183.000000 -420.000000,183.000000 -388.000000C183.000000 -367.000000,176.000000 -346.000000,172.000000 -336.000000C164.000000 -310.000000,119.000000 -194.000000,103.000000 -151.000000C93.000000 -125.000000,80.000000 -92.000000,80.000000 -71.000000C80.000000 -24.000000,114.000000 11.000000,162.000000 11.000000C256.000000 11.000000,293.000000 -134.000000,293.000000 -143.000000C293.000000 -153.000000,284.000000 -153.000000,281.000000 -153.000000C271.000000 -153.000000,271.000000 -150.000000,266.000000 -135.000000C248.000000 -72.000000,215.000000 -11.000000,164.000000 -11.000000C147.000000 -11.000000,140.000000 -21.000000,140.000000 -44.000000C140.000000 -69.000000,146.000000 -83.000000,169.000000 -144.000000"></path>
    </g>
    <g transform="scale(0.009963,0.009963)" id="GLYPHcmmi10_124">
      <path style="fill-rule: evenodd;" d="M356.000000 -313.000000C361.000000 -333.000000,361.000000 -347.000000,361.000000 -350.000000C361.000000 -407.000000,319.000000 -442.000000,269.000000 -442.000000C166.000000 -442.000000,109.000000 -296.000000,109.000000 -288.000000C109.000000 -278.000000,119.000000 -278.000000,121.000000 -278.000000C129.000000 -278.000000,130.000000 -279.000000,139.000000 -298.000000C173.000000 -378.000000,222.000000 -420.000000,266.000000 -420.000000C280.000000 -420.000000,298.000000 -417.000000,298.000000 -374.000000C298.000000 -351.000000,295.000000 -340.000000,291.000000 -323.000000L197.000000 50.000000C179.000000 121.000000,139.000000 183.000000,82.000000 183.000000C74.000000 183.000000,53.000000 182.000000,36.000000 174.000000C59.000000 168.000000,79.000000 146.000000,79.000000 121.000000C79.000000 105.000000,68.000000 86.000000,41.000000 86.000000C17.000000 86.000000,-13.000000 107.000000,-13.000000 143.000000C-13.000000 191.000000,43.000000 205.000000,82.000000 205.000000C158.000000 205.000000,241.000000 145.000000,264.000000 53.000000"></path>
    </g>
    <g transform="scale(0.009963,0.009963)" id="GLYPHcmr10_94">
      <path style="fill-rule: evenodd;" d="M250.000000 -694.000000L116.000000 -558.000000L134.000000 -540.000000L250.000000 -642.000000L365.000000 -540.000000L383.000000 -558.000000"></path>
    </g>
    <g transform="scale(0.006974,0.006974)" id="GLYPHcmr7_49">
      <path style="fill-rule: evenodd;" d="M335.000000 -636.000000C335.000000 -663.000000,333.000000 -664.000000,305.000000 -664.000000C241.000000 -601.000000,150.000000 -600.000000,109.000000 -600.000000L109.000000 -564.000000C133.000000 -564.000000,199.000000 -564.000000,254.000000 -592.000000L254.000000 -82.000000C254.000000 -49.000000,254.000000 -36.000000,154.000000 -36.000000L116.000000 -36.000000L116.000000 -0.000000C134.000000 -1.000000,257.000000 -4.000000,294.000000 -4.000000C325.000000 -4.000000,451.000000 -1.000000,473.000000 -0.000000L473.000000 -36.000000L435.000000 -36.000000C335.000000 -36.000000,335.000000 -49.000000,335.000000 -82.000000"></path>
    </g>
    <g transform="scale(0.006974,0.006974)" id="GLYPHcmr7_50">
      <path style="fill-rule: evenodd;" d="M505.000000 -182.000000L471.000000 -182.000000C468.000000 -160.000000,458.000000 -101.000000,445.000000 -91.000000C437.000000 -85.000000,360.000000 -85.000000,346.000000 -85.000000L162.000000 -85.000000C267.000000 -178.000000,302.000000 -206.000000,362.000000 -253.000000C436.000000 -312.000000,505.000000 -374.000000,505.000000 -469.000000C505.000000 -590.000000,399.000000 -664.000000,271.000000 -664.000000C147.000000 -664.000000,63.000000 -577.000000,63.000000 -485.000000C63.000000 -434.000000,106.000000 -429.000000,116.000000 -429.000000C140.000000 -429.000000,169.000000 -446.000000,169.000000 -482.000000C169.000000 -500.000000,162.000000 -535.000000,110.000000 -535.000000C141.000000 -606.000000,209.000000 -628.000000,256.000000 -628.000000C356.000000 -628.000000,408.000000 -550.000000,408.000000 -469.000000C408.000000 -382.000000,346.000000 -313.000000,314.000000 -277.000000L73.000000 -39.000000C63.000000 -30.000000,63.000000 -28.000000,63.000000 -0.000000L475.000000 -0.000000"></path>
    </g>
  </defs>
  <g transform="translate(136.344360 161.477631)" style="fill: rgb(0.000000%,0.000000%,0.000000%);">
    <use xlink:href="#GLYPHcmmi10_69"></use>
  </g>
  <path d="M124.898361 172.923630L140.933609 188.958878L150.554855 179.337631L134.519608 163.302383Z" style="fill: rgb(100.000000%,100.000000%,100.000000%);stroke: none;"></path>
  <g transform="matrix(0.707107,0.707107,-0.707107,0.707107,0.000000,0.000000)">
    <path d="M212.859641 27.155745C212.859641 26.554289,212.620673 25.977543,212.195412 25.552282C211.770151 25.127020,211.193404 24.888053,210.591949 24.888053C209.990494 24.888053,209.413747 25.127020,208.988486 25.552282C208.563225 25.977543,208.324257 26.554289,208.324257 27.155745C208.324257 27.757200,208.563225 28.333947,208.988486 28.759208C209.413747 29.184469,209.990494 29.423436,210.591949 29.423436C211.193404 29.423436,211.770151 29.184469,212.195412 28.759208C212.620673 28.333947,212.859641 27.757200,212.859641 27.155745Z" style="stroke:rgb(0.000000%,0.000000%,0.000000%); stroke-width: 0.996268;stroke-linecap: round;stroke-linejoin: round;stroke-miterlimit: 10.000000;fill: none;"></path>
  </g>
  <g transform="matrix(0.707107,0.707107,-0.707107,0.707107,0.000000,0.000000)">
    <path d="M210.591949 20.352474C208.787541 20.352474,207.057236 21.069400,205.781431 22.345226C204.505605 23.621031,203.788679 25.351336,203.788679 27.155745C203.788679 28.960153,204.505605 30.690458,205.781431 31.966263C207.057236 33.242089,208.787541 33.959015,210.591949 33.959015" style="stroke:rgb(0.000000%,0.000000%,0.000000%); stroke-width: 0.996268;stroke-linecap: round;stroke-linejoin: round;stroke-miterlimit: 10.000000;fill: none;"></path>
  </g>
  <path d="M262.801620 291.584396L246.766373 275.549149L237.145126 285.170395L253.180374 301.205643Z" style="fill: rgb(100.000000%,100.000000%,100.000000%);stroke: none;"></path>
  <g transform="matrix(-0.707107,-0.707107,0.707107,-0.707107,0.000000,0.000000)">
    <path d="M-389.742420 -27.155745C-389.742420 -27.757200,-389.981388 -28.333947,-390.406649 -28.759208C-390.831910 -29.184469,-391.408657 -29.423436,-392.010112 -29.423436C-392.611567 -29.423436,-393.188314 -29.184469,-393.613575 -28.759208C-394.038858 -28.333947,-394.277825 -27.757200,-394.277825 -27.155745C-394.277825 -26.554289,-394.038858 -25.977543,-393.613575 -25.552282C-393.188314 -25.127020,-392.611567 -24.888053,-392.010112 -24.888053C-391.408657 -24.888053,-390.831910 -25.127020,-390.406649 -25.552282C-389.981388 -25.977543,-389.742420 -26.554289,-389.742420 -27.155745Z" style="stroke:rgb(0.000000%,0.000000%,0.000000%); stroke-width: 0.996268;stroke-linecap: round;stroke-linejoin: round;stroke-miterlimit: 10.000000;fill: none;"></path>
  </g>
  <g transform="matrix(-0.707107,-0.707107,0.707107,-0.707107,0.000000,0.000000)">
    <path d="M-392.010112 -33.959015C-393.814520 -33.959015,-395.544826 -33.242089,-396.820630 -31.966263C-398.096457 -30.690458,-398.813382 -28.960153,-398.813382 -27.155745C-398.813382 -25.351336,-398.096457 -23.621031,-396.820630 -22.345226C-395.544826 -21.069400,-393.814520 -20.352474,-392.010112 -20.352474" style="stroke:rgb(0.000000%,0.000000%,0.000000%); stroke-width: 0.996268;stroke-linecap: round;stroke-linejoin: round;stroke-miterlimit: 10.000000;fill: none;"></path>
  </g>
  <g transform="matrix(0.707107,0.707107,-0.707107,0.707107,0.000000,0.000000)">
    <path d="M210.591949 20.352496L392.010112 20.352496" style="stroke:rgb(0.000000%,0.000000%,0.000000%); stroke-width: 0.996268;stroke-linecap: round;stroke-linejoin: round;stroke-miterlimit: 10.000000;fill: none;"></path>
  </g>
  <g transform="matrix(0.707107,0.707107,-0.707107,0.707107,0.000000,0.000000)">
    <path d="M210.591949 33.958993L392.010112 33.958993" style="stroke:rgb(0.000000%,0.000000%,0.000000%); stroke-width: 0.996268;stroke-linecap: round;stroke-linejoin: round;stroke-miterlimit: 10.000000;fill: none;"></path>
  </g>
  <g transform="matrix(0.707107,0.707107,-0.707107,0.707107,0.000000,0.000000)">
    <path d="M285.427014 27.155745C285.427014 25.351336,284.710111 23.621031,283.434284 22.345226C282.158480 21.069400,280.428174 20.352474,278.623766 20.352474C276.819336 20.352474,275.089052 21.069400,273.813247 22.345226C272.537421 23.621031,271.820496 25.351336,271.820496 27.155745C271.820496 28.960153,272.537421 30.690458,273.813247 31.966263C275.089052 33.242089,276.819336 33.959015,278.623766 33.959015C280.428174 33.959015,282.158480 33.242089,283.434284 31.966263C284.710111 30.690458,285.427014 28.960153,285.427014 27.155745Z" style="stroke:rgb(0.000000%,0.000000%,0.000000%); stroke-width: 0.500011;stroke-linecap: round;stroke-linejoin: round;stroke-miterlimit: 10.000000;fill: none;"></path>
  </g>
  <g transform="matrix(0.707107,0.707107,-0.707107,0.707107,0.000000,0.000000)">
    <path d="M278.623766 27.155745L278.623766 20.352474C276.819336 20.352474,275.088836 21.069184,273.813031 22.345010C272.537205 23.620836,271.820496 25.351336,271.820496 27.155745Z" style="stroke:rgb(0.000000%,0.000000%,0.000000%); stroke-width: 0.500011;fill: rgb(0.000000%,0.000000%,0.000000%);"></path>
  </g>
  <g transform="matrix(0.707107,0.707107,-0.707107,0.707107,0.000000,0.000000)">
    <path d="M278.623766 27.155745L278.623766 33.959015C280.428174 33.959015,282.158674 33.242305,283.434500 31.966479C284.710305 30.690653,285.427014 28.960153,285.427014 27.155745Z" style="stroke:rgb(0.000000%,0.000000%,0.000000%); stroke-width: 0.500011;fill: rgb(0.000000%,0.000000%,0.000000%);"></path>
  </g>
  <g transform="matrix(0.707107,0.707107,-0.707107,0.707107,0.000000,0.000000)">
    <path d="M210.591949 27.155745L392.010112 27.155745" style="stroke:rgb(0.000000%,0.000000%,0.000000%); stroke-width: 0.500011;stroke-linecap: round;stroke-dasharray: 2.000000 2.000000 4.000000 2.000000 ;stroke-linejoin: round;stroke-miterlimit: 10.000000;fill: none;"></path>
  </g>
  <g transform="matrix(0.707107,0.707107,-0.707107,0.707107,0.000000,0.000000)">
    <path d="M210.591949 27.155745L210.591949 54.368415" style="stroke:rgb(0.000000%,0.000000%,0.000000%); stroke-width: 0.500011;stroke-linecap: round;stroke-linejoin: round;stroke-miterlimit: 10.000000;fill: none;"></path>
  </g>
  <g transform="matrix(0.707107,0.707107,-0.707107,0.707107,0.000000,0.000000)">
    <path d="M278.623766 27.155745L278.623766 54.368415" style="stroke:rgb(0.000000%,0.000000%,0.000000%); stroke-width: 0.500011;stroke-linecap: round;stroke-linejoin: round;stroke-miterlimit: 10.000000;fill: none;"></path>
  </g>
  <g transform="matrix(0.707107,0.707107,-0.707107,0.707107,0.000000,0.000000)">
    <path d="M210.591949 49.833009L278.623766 49.833009" style="stroke:rgb(0.000000%,0.000000%,0.000000%); stroke-width: 0.500011;stroke-linecap: round;stroke-linejoin: round;stroke-miterlimit: 10.000000;fill: none;"></path>
  </g>
  <g transform="matrix(0.707107,0.707107,-0.707107,0.707107,0.000000,0.000000)">
    <path d="M274.928546 51.363664L278.623766 49.833009L274.928546 48.302355Z" style="stroke:rgb(0.000000%,0.000000%,0.000000%); stroke-width: 0.500011;fill: rgb(0.000000%,0.000000%,0.000000%);"></path>
  </g>
  <g transform="matrix(0.707107,0.707107,-0.707107,0.707107,0.000000,0.000000)">
    <path d="M214.287169 48.302355L210.591949 49.833009L214.287169 51.363664Z" style="stroke:rgb(0.000000%,0.000000%,0.000000%); stroke-width: 0.500011;fill: rgb(0.000000%,0.000000%,0.000000%);"></path>
  </g>
  <g transform="matrix(0.707108,0.707108,-0.707108,0.707108,130.710297 211.493744)" style="fill: rgb(0.000000%,0.000000%,0.000000%);">
    <use xlink:href="#GLYPHcmmi10_97"></use>
  </g>
  <g transform="matrix(0.707108,0.707108,-0.707108,0.707108,181.453796 203.880493)" style="fill: rgb(0.000000%,0.000000%,0.000000%);">
    <use xlink:href="#GLYPHcmmi10_71"></use>
  </g>
  <g transform="matrix(0.707108,0.707108,-0.707108,0.707108,185.935944 210.476044)" style="fill: rgb(0.000000%,0.000000%,0.000000%);">
    <use xlink:href="#GLYPHcmr7_50"></use>
  </g>
  <g transform="matrix(0.707107,0.707107,-0.707107,0.707107,0.000000,0.000000)">
    <path d="M319.443947 4.478480L353.459845 4.478480" style="stroke:rgb(0.000000%,0.000000%,0.000000%); stroke-width: 0.500011;stroke-linecap: round;stroke-linejoin: round;stroke-miterlimit: 10.000000;fill: none;"></path>
  </g>
  <g transform="matrix(0.707107,0.707107,-0.707107,0.707107,0.000000,0.000000)">
    <path d="M349.764107 6.009350L353.459845 4.478480L349.764107 2.947609Z" style="stroke:rgb(0.000000%,0.000000%,0.000000%); stroke-width: 0.500011;fill: rgb(0.000000%,0.000000%,0.000000%);"></path>
  </g>
  <g transform="matrix(0.707108,0.707108,-0.707108,0.707108,247.418304 257.587250)" style="fill: rgb(0.000000%,0.000000%,0.000000%);">
    <use xlink:href="#GLYPHcmr10_94"></use>
  </g>
  <g transform="matrix(0.707108,0.707108,-0.707108,0.707108,246.970703 257.139648)" style="fill: rgb(0.000000%,0.000000%,0.000000%);">
    <use xlink:href="#GLYPHcmmi10_120"></use>
  </g>
  <g transform="matrix(0.707108,0.707108,-0.707108,0.707108,249.940201 262.222549)" style="fill: rgb(0.000000%,0.000000%,0.000000%);">
    <use xlink:href="#GLYPHcmr7_50"></use>
  </g>
  <g transform="matrix(0.707107,0.707107,-0.707107,0.707107,0.000000,0.000000)">
    <path d="M319.443947 4.478480L319.443947 -29.537439" style="stroke:rgb(0.000000%,0.000000%,0.000000%); stroke-width: 0.500011;stroke-linecap: round;stroke-linejoin: round;stroke-miterlimit: 10.000000;fill: none;"></path>
  </g>
  <g transform="matrix(0.707107,0.707107,-0.707107,0.707107,0.000000,0.000000)">
    <path d="M320.974818 -25.841680L319.443947 -29.537439L317.913077 -25.841680Z" style="stroke:rgb(0.000000%,0.000000%,0.000000%); stroke-width: 0.500011;fill: rgb(0.000000%,0.000000%,0.000000%);"></path>
  </g>
  <g transform="matrix(0.707108,0.707108,-0.707108,0.707108,236.753922 198.504013)" style="fill: rgb(0.000000%,0.000000%,0.000000%);">
    <use xlink:href="#GLYPHcmr10_94"></use>
  </g>
  <g transform="matrix(0.707108,0.707108,-0.707108,0.707108,236.270401 198.020493)" style="fill: rgb(0.000000%,0.000000%,0.000000%);">
    <use xlink:href="#GLYPHcmmi10_121"></use>
  </g>
  <g transform="matrix(0.707108,0.707108,-0.707108,0.707108,238.667572 202.531067)" style="fill: rgb(0.000000%,0.000000%,0.000000%);">
    <use xlink:href="#GLYPHcmr7_50"></use>
  </g>
  <path d="M129.708984 168.113007L129.708984 236.144745" style="stroke:rgb(0.000000%,0.000000%,0.000000%); stroke-width: 0.500000;stroke-linecap: round;stroke-dasharray: 2.000000 2.000000 4.000000 2.000000 ;stroke-linejoin: round;stroke-miterlimit: 10.000000;fill: none;"></path>
  <path d="M129.708984 190.790253C132.686890 190.790253,135.636093 190.203735,138.387344 189.063919C141.138611 187.924103,143.638321 186.253830,145.744232 184.148254" style="stroke:rgb(0.000000%,0.000000%,0.000000%); stroke-width: 0.500000;stroke-linecap: round;stroke-linejoin: round;stroke-miterlimit: 10.000000;fill: none;"></path>
  <path d="M143.893402 187.694336C144.611862 186.571777,145.231674 185.385437,145.744232 184.148254C144.506973 184.660614,143.229813 185.061188,141.928009 185.346924Z" style="stroke:rgb(0.000000%,0.000000%,0.000000%); stroke-width: 0.500000;fill: rgb(0.000000%,0.000000%,0.000000%);"></path>
  <g transform="translate(133.928940 196.353424)" style="fill: rgb(0.000000%,0.000000%,0.000000%);">
    <use xlink:href="#GLYPHcmmi10_113"></use>
  </g>
  <g transform="translate(138.376343 197.847824)" style="fill: rgb(0.000000%,0.000000%,0.000000%);">
    <use xlink:href="#GLYPHcmr7_50"></use>
  </g>
  <path d="M33.108200 14.401627L44.446823 34.040756L56.230423 27.237503L44.891800 7.598373Z" style="fill: rgb(100.000000%,100.000000%,100.000000%);stroke: none;"></path>
  <g transform="matrix(0.500004,0.866023,-0.866023,0.500004,0.000000,0.000000)">
    <path d="M31.294105 -28.274858C31.294100 -28.876316,31.055135 -29.453076,30.629883 -29.878351C30.204610 -30.303620,29.627867 -30.542588,29.026409 -30.542583C28.424952 -30.542578,27.848191 -30.303614,27.422917 -29.878361C26.997647 -29.453088,26.758679 -28.876346,26.758684 -28.274888C26.758689 -27.673430,26.997653 -27.096670,27.422906 -26.671395C27.848179 -26.246126,28.424921 -26.007157,29.026379 -26.007162C29.627837 -26.007168,30.204597 -26.246132,30.629872 -26.671384C31.055141 -27.096657,31.294110 -27.673400,31.294105 -28.274858Z" style="stroke:rgb(0.000000%,0.000000%,0.000000%); stroke-width: 0.996270;stroke-linecap: round;stroke-linejoin: round;stroke-miterlimit: 10.000000;fill: none;"></path>
  </g>
  <g transform="matrix(0.500004,0.866023,-0.866023,0.500004,0.000000,0.000000)">
    <path d="M29.026427 -35.078134C27.222014 -35.078142,25.491704 -34.361230,24.215891 -33.085432C22.940058 -31.809627,22.223140 -30.079319,22.223133 -28.274905C22.223125 -26.470492,22.940037 -24.740183,24.215836 -23.464370C25.491640 -22.188536,27.221949 -21.471619,29.026362 -21.471611" style="stroke:rgb(0.000000%,0.000000%,0.000000%); stroke-width: 0.996270;stroke-linecap: round;stroke-linejoin: round;stroke-miterlimit: 10.000000;fill: none;"></path>
  </g>
  <path d="M135.600784 164.711380L124.262161 145.072250L112.478561 151.875504L123.817184 171.514633Z" style="fill: rgb(100.000000%,100.000000%,100.000000%);stroke: none;"></path>
  <g transform="matrix(-0.500004,-0.866023,0.866023,-0.500004,0.000000,0.000000)">
    <path d="M-208.177044 28.273925C-208.177049 27.672467,-208.416021 27.095720,-208.841274 26.670445C-209.266534 26.245183,-209.843276 26.006215,-210.444726 26.006207C-211.046184 26.006212,-211.622958 26.245168,-212.048219 26.670428C-212.473488 27.095702,-212.712457 27.672444,-212.712452 28.273902C-212.712447 28.875360,-212.473482 29.452120,-212.048230 29.877395C-211.622970 30.302656,-211.046214 30.541633,-210.444757 30.541627C-209.843306 30.541636,-209.266546 30.302671,-208.841285 29.877411C-208.416015 29.452138,-208.177039 28.875382,-208.177044 28.273925Z" style="stroke:rgb(0.000000%,0.000000%,0.000000%); stroke-width: 0.996270;stroke-linecap: round;stroke-linejoin: round;stroke-miterlimit: 10.000000;fill: none;"></path>
  </g>
  <g transform="matrix(-0.500004,-0.866023,0.866023,-0.500004,0.000000,0.000000)">
    <path d="M-210.444709 21.470655C-212.249122 21.470648,-213.979431 22.187559,-215.255244 23.463358C-216.531078 24.739163,-217.248009 26.469464,-217.248016 28.273877C-217.248024 30.078290,-216.531099 31.808607,-215.255300 33.084420C-213.979496 34.360254,-212.249187 35.077171,-210.444774 35.077179" style="stroke:rgb(0.000000%,0.000000%,0.000000%); stroke-width: 0.996270;stroke-linecap: round;stroke-linejoin: round;stroke-miterlimit: 10.000000;fill: none;"></path>
  </g>
  <g transform="matrix(0.500004,0.866023,-0.866023,0.500004,0.000000,0.000000)">
    <path d="M29.026427 -35.078134L210.444774 -35.077179" style="stroke:rgb(0.000000%,0.000000%,0.000000%); stroke-width: 0.996270;stroke-linecap: round;stroke-linejoin: round;stroke-miterlimit: 10.000000;fill: none;"></path>
  </g>
  <g transform="matrix(0.500004,0.866023,-0.866023,0.500004,0.000000,0.000000)">
    <path d="M29.026362 -21.471611L210.444709 -21.470655" style="stroke:rgb(0.000000%,0.000000%,0.000000%); stroke-width: 0.996270;stroke-linecap: round;stroke-linejoin: round;stroke-miterlimit: 10.000000;fill: none;"></path>
  </g>
  <g transform="matrix(0.499999,0.866026,-0.866026,0.499999,0.000000,0.000000)">
    <path d="M103.861397 -28.275024C103.861395 -30.079438,103.144461 -31.809751,101.868655 -33.085557C100.592857 -34.361376,98.862545 -35.078285,97.058119 -35.078290C95.253705 -35.078288,93.523408 -34.361381,92.247607 -33.085554C90.971767 -31.809751,90.254858 -30.079438,90.254860 -28.275025C90.254862 -26.470612,90.971783 -24.740307,92.247602 -23.464493C93.523407 -22.188686,95.253712 -21.471765,97.058125 -21.471767C98.862552 -21.471761,100.592857 -22.188682,101.868650 -23.464495C103.144477 -24.740306,103.861399 -26.470611,103.861397 -28.275024Z" style="stroke:rgb(0.000000%,0.000000%,0.000000%); stroke-width: 0.500001;stroke-linecap: round;stroke-linejoin: round;stroke-miterlimit: 10.000000;fill: none;"></path>
  </g>
  <g transform="matrix(0.499999,0.866026,-0.866026,0.499999,0.000000,0.000000)">
    <path d="M97.058122 -28.275029L97.058119 -35.078290C95.253705 -35.078288,93.523208 -34.361584,92.247394 -33.085765C90.971559 -31.809941,90.254858 -30.079438,90.254860 -28.275025Z" style="stroke:rgb(0.000000%,0.000000%,0.000000%); stroke-width: 0.500001;fill: rgb(0.000000%,0.000000%,0.000000%);"></path>
  </g>
  <g transform="matrix(0.499999,0.866026,-0.866026,0.499999,0.000000,0.000000)">
    <path d="M97.058122 -28.275029L97.058125 -21.471767C98.862552 -21.471761,100.593049 -22.188465,101.868863 -23.464284C103.144685 -24.740116,103.861399 -26.470611,103.861397 -28.275024Z" style="stroke:rgb(0.000000%,0.000000%,0.000000%); stroke-width: 0.500001;fill: rgb(0.000000%,0.000000%,0.000000%);"></path>
  </g>
  <g transform="matrix(0.499999,0.866026,-0.866026,0.499999,0.000000,0.000000)">
    <path d="M29.026245 -28.275026L210.444592 -28.275028" style="stroke:rgb(0.000000%,0.000000%,0.000000%); stroke-width: 0.500001;stroke-linecap: round;stroke-dasharray: 2.000000 2.000000 4.000000 2.000000 ;stroke-linejoin: round;stroke-miterlimit: 10.000000;fill: none;"></path>
  </g>
  <g transform="matrix(0.499999,0.866026,-0.866026,0.499999,0.000000,0.000000)">
    <path d="M29.026245 -28.275026L29.026252 -1.062335" style="stroke:rgb(0.000000%,0.000000%,0.000000%); stroke-width: 0.500001;stroke-linecap: round;stroke-linejoin: round;stroke-miterlimit: 10.000000;fill: none;"></path>
  </g>
  <g transform="matrix(0.499999,0.866026,-0.866026,0.499999,0.000000,0.000000)">
    <path d="M97.058122 -28.275029L97.058129 -1.062338" style="stroke:rgb(0.000000%,0.000000%,0.000000%); stroke-width: 0.500001;stroke-linecap: round;stroke-linejoin: round;stroke-miterlimit: 10.000000;fill: none;"></path>
  </g>
  <g transform="matrix(0.499999,0.866026,-0.866026,0.499999,0.000000,0.000000)">
    <path d="M29.026243 -5.597729L97.058120 -5.597732" style="stroke:rgb(0.000000%,0.000000%,0.000000%); stroke-width: 0.500001;stroke-linecap: round;stroke-linejoin: round;stroke-miterlimit: 10.000000;fill: none;"></path>
  </g>
  <g transform="matrix(0.499999,0.866026,-0.866026,0.499999,0.000000,0.000000)">
    <path d="M93.362897 -4.067068L97.058120 -5.597732L93.362899 -7.128388Z" style="stroke:rgb(0.000000%,0.000000%,0.000000%); stroke-width: 0.500001;fill: rgb(0.000000%,0.000000%,0.000000%);"></path>
  </g>
  <g transform="matrix(0.499999,0.866026,-0.866026,0.499999,0.000000,0.000000)">
    <path d="M32.721480 -7.128385L29.026243 -5.597729L32.721478 -4.067065Z" style="stroke:rgb(0.000000%,0.000000%,0.000000%); stroke-width: 0.500001;fill: rgb(0.000000%,0.000000%,0.000000%);"></path>
  </g>
  <g transform="matrix(0.500000,0.866028,-0.866028,0.500000,28.739365 53.161774)" style="fill: rgb(0.000000%,0.000000%,0.000000%);">
    <use xlink:href="#GLYPHcmmi10_97"></use>
  </g>
  <g transform="matrix(0.500000,0.866028,-0.866028,0.500000,79.724335 58.941376)" style="fill: rgb(0.000000%,0.000000%,0.000000%);">
    <use xlink:href="#GLYPHcmmi10_71"></use>
  </g>
  <g transform="matrix(0.500000,0.866028,-0.866028,0.500000,82.346680 66.472275)" style="fill: rgb(0.000000%,0.000000%,0.000000%);">
    <use xlink:href="#GLYPHcmr7_49"></use>
  </g>
  <g transform="matrix(0.499999,0.866026,-0.866026,0.499999,0.000000,0.000000)">
    <path d="M29.026245 -28.275026L29.026242 17.079567" style="stroke:rgb(0.000000%,0.000000%,0.000000%); stroke-width: 0.500001;stroke-linecap: round;stroke-linejoin: round;stroke-miterlimit: 10.000000;fill: none;"></path>
  </g>
  <g transform="matrix(0.499999,0.866026,-0.866026,0.499999,0.000000,0.000000)">
    <path d="M210.444592 -28.275028L210.444589 17.079566" style="stroke:rgb(0.000000%,0.000000%,0.000000%); stroke-width: 0.500001;stroke-linecap: round;stroke-linejoin: round;stroke-miterlimit: 10.000000;fill: none;"></path>
  </g>
  <g transform="matrix(0.499999,0.866026,-0.866026,0.499999,0.000000,0.000000)">
    <path d="M29.026254 12.544168L210.444601 12.544166" style="stroke:rgb(0.000000%,0.000000%,0.000000%); stroke-width: 0.500001;stroke-linecap: round;stroke-linejoin: round;stroke-miterlimit: 10.000000;fill: none;"></path>
  </g>
  <g transform="matrix(0.499999,0.866026,-0.866026,0.499999,0.000000,0.000000)">
    <path d="M206.749021 14.074958L210.444601 12.544166L206.749018 11.013371Z" style="stroke:rgb(0.000000%,0.000000%,0.000000%); stroke-width: 0.500001;fill: rgb(0.000000%,0.000000%,0.000000%);"></path>
  </g>
  <g transform="matrix(0.499999,0.866026,-0.866026,0.499999,0.000000,0.000000)">
    <path d="M32.721834 11.013375L29.026254 12.544168L32.721836 14.074962Z" style="stroke:rgb(0.000000%,0.000000%,0.000000%); stroke-width: 0.500001;fill: rgb(0.000000%,0.000000%,0.000000%);"></path>
  </g>
  <g transform="matrix(0.500000,0.866028,-0.866028,0.500000,39.622131 113.553223)" style="fill: rgb(0.000000%,0.000000%,0.000000%);">
    <use xlink:href="#GLYPHcmmi10_108"></use>
  </g>
  <g transform="matrix(0.499999,0.866026,-0.866026,0.499999,0.000000,0.000000)">
    <path d="M137.878356 -50.952333L171.894301 -50.952330" style="stroke:rgb(0.000000%,0.000000%,0.000000%); stroke-width: 0.500001;stroke-linecap: round;stroke-linejoin: round;stroke-miterlimit: 10.000000;fill: none;"></path>
  </g>
  <g transform="matrix(0.499999,0.866026,-0.866026,0.499999,0.000000,0.000000)">
    <path d="M168.198552 -49.421459L171.894301 -50.952330L168.198553 -52.483203Z" style="stroke:rgb(0.000000%,0.000000%,0.000000%); stroke-width: 0.500001;fill: rgb(0.000000%,0.000000%,0.000000%);"></path>
  </g>
  <g transform="matrix(0.500000,0.866028,-0.866028,0.500000,129.540802 127.891113)" style="fill: rgb(0.000000%,0.000000%,0.000000%);">
    <use xlink:href="#GLYPHcmr10_94"></use>
  </g>
  <g transform="matrix(0.500000,0.866028,-0.866028,0.500000,129.224304 127.342926)" style="fill: rgb(0.000000%,0.000000%,0.000000%);">
    <use xlink:href="#GLYPHcmmi10_120"></use>
  </g>
  <g transform="matrix(0.500000,0.866028,-0.866028,0.500000,130.777039 133.021210)" style="fill: rgb(0.000000%,0.000000%,0.000000%);">
    <use xlink:href="#GLYPHcmr7_49"></use>
  </g>
  <g transform="matrix(0.499999,0.866026,-0.866026,0.499999,0.000000,0.000000)">
    <path d="M137.878356 -50.952333L137.878351 -84.968265" style="stroke:rgb(0.000000%,0.000000%,0.000000%); stroke-width: 0.500001;stroke-linecap: round;stroke-linejoin: round;stroke-miterlimit: 10.000000;fill: none;"></path>
  </g>
  <g transform="matrix(0.499999,0.866026,-0.866026,0.499999,0.000000,0.000000)">
    <path d="M139.409223 -81.272516L137.878351 -84.968265L136.347478 -81.272516Z" style="stroke:rgb(0.000000%,0.000000%,0.000000%); stroke-width: 0.500001;fill: rgb(0.000000%,0.000000%,0.000000%);"></path>
  </g>
  <g transform="matrix(0.500000,0.866028,-0.866028,0.500000,134.531723 68.060913)" style="fill: rgb(0.000000%,0.000000%,0.000000%);">
    <use xlink:href="#GLYPHcmr10_94"></use>
  </g>
  <g transform="matrix(0.500000,0.866028,-0.866028,0.500000,134.189819 67.468719)" style="fill: rgb(0.000000%,0.000000%,0.000000%);">
    <use xlink:href="#GLYPHcmmi10_121"></use>
  </g>
  <g transform="matrix(0.500000,0.866028,-0.866028,0.500000,135.337891 72.446030)" style="fill: rgb(0.000000%,0.000000%,0.000000%);">
    <use xlink:href="#GLYPHcmr7_49"></use>
  </g>
  <path d="M39.000000 11.000000L39.000000 79.031738" style="stroke:rgb(0.000000%,0.000000%,0.000000%); stroke-width: 0.500000;stroke-linecap: round;stroke-dasharray: 2.000000 2.000000 4.000000 2.000000 ;stroke-linejoin: round;stroke-miterlimit: 10.000000;fill: none;"></path>
  <path d="M39.000000 45.015869C41.972717 45.015869,44.932632 44.626236,47.803970 43.857025C50.675308 43.087463,53.433487 41.945221,56.007935 40.458694" style="stroke:rgb(0.000000%,0.000000%,0.000000%); stroke-width: 0.500000;stroke-linecap: round;stroke-linejoin: round;stroke-miterlimit: 10.000000;fill: none;"></path>
  <path d="M53.390594 43.483505C54.320633 42.528488,55.194733 41.518616,56.007935 40.458694C54.683441 40.633118,53.351273 40.729111,52.018311 40.746750Z" style="stroke:rgb(0.000000%,0.000000%,0.000000%); stroke-width: 0.500000;fill: rgb(0.000000%,0.000000%,0.000000%);"></path>
  <g transform="translate(43.345566 51.146362)" style="fill: rgb(0.000000%,0.000000%,0.000000%);">
    <use xlink:href="#GLYPHcmmi10_113"></use>
  </g>
  <g transform="translate(47.792969 52.640762)" style="fill: rgb(0.000000%,0.000000%,0.000000%);">
    <use xlink:href="#GLYPHcmr7_49"></use>
  </g>
  <path d="M28.115021 1.929245L29.929245 0.115021" style="stroke:rgb(0.000000%,0.000000%,0.000000%); stroke-width: 0.500000;stroke-linecap: round;stroke-linejoin: round;stroke-miterlimit: 10.000000;fill: none;"></path>
  <path d="M29.929245 1.929245L31.743454 0.115021" style="stroke:rgb(0.000000%,0.000000%,0.000000%); stroke-width: 0.500000;stroke-linecap: round;stroke-linejoin: round;stroke-miterlimit: 10.000000;fill: none;"></path>
  <path d="M31.743454 1.929245L33.557678 0.115021" style="stroke:rgb(0.000000%,0.000000%,0.000000%); stroke-width: 0.500000;stroke-linecap: round;stroke-linejoin: round;stroke-miterlimit: 10.000000;fill: none;"></path>
  <path d="M33.557678 1.929245L35.371902 0.115021" style="stroke:rgb(0.000000%,0.000000%,0.000000%); stroke-width: 0.500000;stroke-linecap: round;stroke-linejoin: round;stroke-miterlimit: 10.000000;fill: none;"></path>
  <path d="M35.371902 1.929245L37.186127 0.115021" style="stroke:rgb(0.000000%,0.000000%,0.000000%); stroke-width: 0.500000;stroke-linecap: round;stroke-linejoin: round;stroke-miterlimit: 10.000000;fill: none;"></path>
  <path d="M37.186127 1.929245L39.000351 0.115021" style="stroke:rgb(0.000000%,0.000000%,0.000000%); stroke-width: 0.500000;stroke-linecap: round;stroke-linejoin: round;stroke-miterlimit: 10.000000;fill: none;"></path>
  <path d="M39.000351 1.929245L40.814560 0.115021" style="stroke:rgb(0.000000%,0.000000%,0.000000%); stroke-width: 0.500000;stroke-linecap: round;stroke-linejoin: round;stroke-miterlimit: 10.000000;fill: none;"></path>
  <path d="M40.814560 1.929245L42.628784 0.115021" style="stroke:rgb(0.000000%,0.000000%,0.000000%); stroke-width: 0.500000;stroke-linecap: round;stroke-linejoin: round;stroke-miterlimit: 10.000000;fill: none;"></path>
  <path d="M42.628784 1.929245L44.443008 0.115021" style="stroke:rgb(0.000000%,0.000000%,0.000000%); stroke-width: 0.500000;stroke-linecap: round;stroke-linejoin: round;stroke-miterlimit: 10.000000;fill: none;"></path>
  <path d="M44.443008 1.929245L46.257233 0.115021" style="stroke:rgb(0.000000%,0.000000%,0.000000%); stroke-width: 0.500000;stroke-linecap: round;stroke-linejoin: round;stroke-miterlimit: 10.000000;fill: none;"></path>
  <path d="M46.257233 1.929245L48.071457 0.115021" style="stroke:rgb(0.000000%,0.000000%,0.000000%); stroke-width: 0.500000;stroke-linecap: round;stroke-linejoin: round;stroke-miterlimit: 10.000000;fill: none;"></path>
  <path d="M48.071457 1.929245L49.885666 0.115021" style="stroke:rgb(0.000000%,0.000000%,0.000000%); stroke-width: 0.500000;stroke-linecap: round;stroke-linejoin: round;stroke-miterlimit: 10.000000;fill: none;"></path>
  <path d="M32.196762 10.773346L45.803238 10.773346L45.803238 1.929245L32.196762 1.929245Z" style="fill: rgb(100.000000%,100.000000%,100.000000%);stroke: none;"></path>
  <path d="M28.115021 1.929245L49.884979 1.929245" style="stroke:rgb(0.000000%,0.000000%,0.000000%); stroke-width: 0.996262;stroke-linecap: round;stroke-linejoin: round;stroke-miterlimit: 10.000000;fill: none;"></path>
  <path d="M41.267700 11.000000C41.267700 10.398544,41.028732 9.821793,40.603470 9.396530C40.178207 8.971268,39.601456 8.732300,39.000000 8.732300C38.398544 8.732300,37.821793 8.971268,37.396530 9.396530C36.971268 9.821793,36.732300 10.398544,36.732300 11.000000C36.732300 11.601456,36.971268 12.178207,37.396530 12.603470C37.821793 13.028732,38.398544 13.267700,39.000000 13.267700C39.601456 13.267700,40.178207 13.028732,40.603470 12.603470C41.028732 12.178207,41.267700 11.601456,41.267700 11.000000Z" style="stroke:rgb(0.000000%,0.000000%,0.000000%); stroke-width: 0.996262;stroke-linecap: round;stroke-linejoin: round;stroke-miterlimit: 10.000000;fill: none;"></path>
  <path d="M32.196762 1.929245L32.196762 11.000000C32.196762 12.804535,32.913727 14.534668,34.189529 15.810471C35.465332 17.086273,37.195465 17.803238,39.000000 17.803238C40.804535 17.803238,42.534668 17.086273,43.810471 15.810471C45.086273 14.534668,45.803238 12.804535,45.803238 11.000000L45.803238 1.929245" style="stroke:rgb(0.000000%,0.000000%,0.000000%); stroke-width: 0.996262;stroke-linecap: round;stroke-linejoin: round;stroke-miterlimit: 10.000000;fill: none;"></path>
  <g transform="translate(48.803238 14.403900)" style="fill: rgb(0.000000%,0.000000%,0.000000%);">
    <use xlink:href="#GLYPHcmmi10_79"></use>
  </g>
  <path d="M118.370361 45.015869L152.386230 45.015869" style="stroke:rgb(0.000000%,0.000000%,0.000000%); stroke-width: 0.500000;stroke-linecap: round;stroke-linejoin: round;stroke-miterlimit: 10.000000;fill: none;"></path>
  <path d="M148.690491 46.546738L152.386230 45.015869L148.690491 43.485001Z" style="stroke:rgb(0.000000%,0.000000%,0.000000%); stroke-width: 0.500000;fill: rgb(0.000000%,0.000000%,0.000000%);"></path>
  <g transform="translate(154.778534 48.475128)" style="fill: rgb(0.000000%,0.000000%,0.000000%);">
    <use xlink:href="#GLYPHcmr10_94"></use>
  </g>
  <g transform="translate(155.386230 48.475128)" style="fill: rgb(0.000000%,0.000000%,0.000000%);">
    <use xlink:href="#GLYPHcmmi10_123"></use>
  </g>
  <path d="M118.370361 45.015869L118.370361 11.000000" style="stroke:rgb(0.000000%,0.000000%,0.000000%); stroke-width: 0.500000;stroke-linecap: round;stroke-linejoin: round;stroke-miterlimit: 10.000000;fill: none;"></path>
  <path d="M119.901230 14.695740L118.370361 11.000000L116.839493 14.695740Z" style="stroke:rgb(0.000000%,0.000000%,0.000000%); stroke-width: 0.500000;fill: rgb(0.000000%,0.000000%,0.000000%);"></path>
  <g transform="translate(111.796951 13.490662)" style="fill: rgb(0.000000%,0.000000%,0.000000%);">
    <use xlink:href="#GLYPHcmr10_94"></use>
  </g>
  <g transform="translate(111.544357 13.490662)" style="fill: rgb(0.000000%,0.000000%,0.000000%);">
    <use xlink:href="#GLYPHcmmi10_124"></use>
  </g>
  <path d="M129.708984 16.669312L129.708984 39.346558" style="stroke:rgb(0.000000%,0.000000%,0.000000%); stroke-width: 0.500000;stroke-linecap: round;stroke-linejoin: round;stroke-miterlimit: 10.000000;fill: none;"></path>
  <path d="M128.178207 35.651016L129.708984 39.346558L131.239761 35.651016Z" style="stroke:rgb(0.000000%,0.000000%,0.000000%); stroke-width: 0.500000;fill: rgb(0.000000%,0.000000%,0.000000%);"></path>
  <g transform="translate(131.808975 23.058807)" style="fill: rgb(0.000000%,0.000000%,0.000000%);">
    <use xlink:href="#GLYPHcmmi10_103"></use>
  </g>
</svg>
