<?xml version="1.0"?>
<!-- Created by MetaPost 2.000 on 2017.11.16:2256 -->
<svg version="1.1" xmlns="http://www.w3.org/2000/svg" xmlns:xlink="http://www.w3.org/1999/xlink" width="440.259720" height="165.988892" viewBox="0 0 440.259720 165.988892">
<!-- Original BoundingBox: -8.424271 -38.312119 431.835449 127.676773 -->
  <defs>
    <g transform="scale(0.009963,0.009963)" id="GLYPHcmr10_48">
      <path style="fill-rule: evenodd;" d="M460.000000 -320.000000C460.000000 -400.000000,455.000000 -480.000000,420.000000 -554.000000C374.000000 -650.000000,292.000000 -666.000000,250.000000 -666.000000C190.000000 -666.000000,117.000000 -640.000000,76.000000 -547.000000C44.000000 -478.000000,39.000000 -400.000000,39.000000 -320.000000C39.000000 -245.000000,43.000000 -155.000000,84.000000 -79.000000C127.000000 2.000000,200.000000 22.000000,249.000000 22.000000C303.000000 22.000000,379.000000 1.000000,423.000000 -94.000000C455.000000 -163.000000,460.000000 -241.000000,460.000000 -320.000000M249.000000 -0.000000C210.000000 -0.000000,151.000000 -25.000000,133.000000 -121.000000C122.000000 -181.000000,122.000000 -273.000000,122.000000 -332.000000C122.000000 -396.000000,122.000000 -462.000000,130.000000 -516.000000C149.000000 -635.000000,224.000000 -644.000000,249.000000 -644.000000C282.000000 -644.000000,348.000000 -626.000000,367.000000 -527.000000C377.000000 -471.000000,377.000000 -395.000000,377.000000 -332.000000C377.000000 -257.000000,377.000000 -189.000000,366.000000 -125.000000C351.000000 -30.000000,294.000000 -0.000000,249.000000 -0.000000"></path>
    </g>
    <g transform="scale(0.009963,0.009963)" id="GLYPHcmr10_49">
      <path style="fill-rule: evenodd;" d="M294.000000 -640.000000C294.000000 -664.000000,294.000000 -666.000000,271.000000 -666.000000C209.000000 -602.000000,121.000000 -602.000000,89.000000 -602.000000L89.000000 -571.000000C109.000000 -571.000000,168.000000 -571.000000,220.000000 -597.000000L220.000000 -79.000000C220.000000 -43.000000,217.000000 -31.000000,127.000000 -31.000000L95.000000 -31.000000L95.000000 -0.000000C130.000000 -3.000000,217.000000 -3.000000,257.000000 -3.000000C297.000000 -3.000000,384.000000 -3.000000,419.000000 -0.000000L419.000000 -31.000000L387.000000 -31.000000C297.000000 -31.000000,294.000000 -42.000000,294.000000 -79.000000"></path>
    </g>
    <g transform="scale(0.009963,0.009963)" id="GLYPHcmr10_50">
      <path style="fill-rule: evenodd;" d="M127.000000 -77.000000L233.000000 -180.000000C389.000000 -318.000000,449.000000 -372.000000,449.000000 -472.000000C449.000000 -586.000000,359.000000 -666.000000,237.000000 -666.000000C124.000000 -666.000000,50.000000 -574.000000,50.000000 -485.000000C50.000000 -429.000000,100.000000 -429.000000,103.000000 -429.000000C120.000000 -429.000000,155.000000 -441.000000,155.000000 -482.000000C155.000000 -508.000000,137.000000 -534.000000,102.000000 -534.000000C94.000000 -534.000000,92.000000 -534.000000,89.000000 -533.000000C112.000000 -598.000000,166.000000 -635.000000,224.000000 -635.000000C315.000000 -635.000000,358.000000 -554.000000,358.000000 -472.000000C358.000000 -392.000000,308.000000 -313.000000,253.000000 -251.000000L61.000000 -37.000000C50.000000 -26.000000,50.000000 -24.000000,50.000000 -0.000000L421.000000 -0.000000L449.000000 -174.000000L424.000000 -174.000000C419.000000 -144.000000,412.000000 -100.000000,402.000000 -85.000000C395.000000 -77.000000,329.000000 -77.000000,307.000000 -77.000000"></path>
    </g>
    <g transform="scale(0.009963,0.009963)" id="GLYPHcmr10_51">
      <path style="fill-rule: evenodd;" d="M290.000000 -352.000000C372.000000 -379.000000,430.000000 -449.000000,430.000000 -528.000000C430.000000 -610.000000,342.000000 -666.000000,246.000000 -666.000000C145.000000 -666.000000,69.000000 -606.000000,69.000000 -530.000000C69.000000 -497.000000,91.000000 -478.000000,120.000000 -478.000000C151.000000 -478.000000,171.000000 -500.000000,171.000000 -529.000000C171.000000 -579.000000,124.000000 -579.000000,109.000000 -579.000000C140.000000 -628.000000,206.000000 -641.000000,242.000000 -641.000000C283.000000 -641.000000,338.000000 -619.000000,338.000000 -529.000000C338.000000 -517.000000,336.000000 -459.000000,310.000000 -415.000000C280.000000 -367.000000,246.000000 -364.000000,221.000000 -363.000000C213.000000 -362.000000,189.000000 -360.000000,182.000000 -360.000000C174.000000 -359.000000,167.000000 -358.000000,167.000000 -348.000000C167.000000 -337.000000,174.000000 -337.000000,191.000000 -337.000000L235.000000 -337.000000C317.000000 -337.000000,354.000000 -269.000000,354.000000 -171.000000C354.000000 -35.000000,285.000000 -6.000000,241.000000 -6.000000C198.000000 -6.000000,123.000000 -23.000000,88.000000 -82.000000C123.000000 -77.000000,154.000000 -99.000000,154.000000 -137.000000C154.000000 -173.000000,127.000000 -193.000000,98.000000 -193.000000C74.000000 -193.000000,42.000000 -179.000000,42.000000 -135.000000C42.000000 -44.000000,135.000000 22.000000,244.000000 22.000000C366.000000 22.000000,457.000000 -69.000000,457.000000 -171.000000C457.000000 -253.000000,394.000000 -331.000000,290.000000 -352.000000"></path>
    </g>
    <g transform="scale(0.009963,0.009963)" id="GLYPHcmr10_52">
      <path style="fill-rule: evenodd;" d="M294.000000 -165.000000L294.000000 -78.000000C294.000000 -42.000000,292.000000 -31.000000,218.000000 -31.000000L197.000000 -31.000000L197.000000 -0.000000C238.000000 -3.000000,290.000000 -3.000000,332.000000 -3.000000C374.000000 -3.000000,427.000000 -3.000000,468.000000 -0.000000L468.000000 -31.000000L447.000000 -31.000000C373.000000 -31.000000,371.000000 -42.000000,371.000000 -78.000000L371.000000 -165.000000L471.000000 -165.000000L471.000000 -196.000000L371.000000 -196.000000L371.000000 -651.000000C371.000000 -671.000000,371.000000 -677.000000,355.000000 -677.000000C346.000000 -677.000000,343.000000 -677.000000,335.000000 -665.000000L28.000000 -196.000000L28.000000 -165.000000M300.000000 -196.000000L56.000000 -196.000000L300.000000 -569.000000"></path>
    </g>
    <g transform="scale(0.009963,0.009963)" id="GLYPHcmr10_53">
      <path style="fill-rule: evenodd;" d="M449.000000 -201.000000C449.000000 -320.000000,367.000000 -420.000000,259.000000 -420.000000C211.000000 -420.000000,168.000000 -404.000000,132.000000 -369.000000L132.000000 -564.000000C152.000000 -558.000000,185.000000 -551.000000,217.000000 -551.000000C340.000000 -551.000000,410.000000 -642.000000,410.000000 -655.000000C410.000000 -661.000000,407.000000 -666.000000,400.000000 -666.000000C399.000000 -666.000000,397.000000 -666.000000,392.000000 -663.000000C372.000000 -654.000000,323.000000 -634.000000,256.000000 -634.000000C216.000000 -634.000000,170.000000 -641.000000,123.000000 -662.000000C115.000000 -665.000000,113.000000 -665.000000,111.000000 -665.000000C101.000000 -665.000000,101.000000 -657.000000,101.000000 -641.000000L101.000000 -345.000000C101.000000 -327.000000,101.000000 -319.000000,115.000000 -319.000000C122.000000 -319.000000,124.000000 -322.000000,128.000000 -328.000000C139.000000 -344.000000,176.000000 -398.000000,257.000000 -398.000000C309.000000 -398.000000,334.000000 -352.000000,342.000000 -334.000000C358.000000 -297.000000,360.000000 -258.000000,360.000000 -208.000000C360.000000 -173.000000,360.000000 -113.000000,336.000000 -71.000000C312.000000 -32.000000,275.000000 -6.000000,229.000000 -6.000000C156.000000 -6.000000,99.000000 -59.000000,82.000000 -118.000000C85.000000 -117.000000,88.000000 -116.000000,99.000000 -116.000000C132.000000 -116.000000,149.000000 -141.000000,149.000000 -165.000000C149.000000 -189.000000,132.000000 -214.000000,99.000000 -214.000000C85.000000 -214.000000,50.000000 -207.000000,50.000000 -161.000000C50.000000 -75.000000,119.000000 22.000000,231.000000 22.000000C347.000000 22.000000,449.000000 -74.000000,449.000000 -201.000000"></path>
    </g>
    <g transform="scale(0.009963,0.009963)" id="GLYPHcmr10_54">
      <path style="fill-rule: evenodd;" d="M132.000000 -328.000000L132.000000 -352.000000C132.000000 -605.000000,256.000000 -641.000000,307.000000 -641.000000C331.000000 -641.000000,373.000000 -635.000000,395.000000 -601.000000C380.000000 -601.000000,340.000000 -601.000000,340.000000 -556.000000C340.000000 -525.000000,364.000000 -510.000000,386.000000 -510.000000C402.000000 -510.000000,432.000000 -519.000000,432.000000 -558.000000C432.000000 -618.000000,388.000000 -666.000000,305.000000 -666.000000C177.000000 -666.000000,42.000000 -537.000000,42.000000 -316.000000C42.000000 -49.000000,158.000000 22.000000,251.000000 22.000000C362.000000 22.000000,457.000000 -72.000000,457.000000 -204.000000C457.000000 -331.000000,368.000000 -427.000000,257.000000 -427.000000C189.000000 -427.000000,152.000000 -376.000000,132.000000 -328.000000M251.000000 -6.000000C188.000000 -6.000000,158.000000 -66.000000,152.000000 -81.000000C134.000000 -128.000000,134.000000 -208.000000,134.000000 -226.000000C134.000000 -304.000000,166.000000 -404.000000,256.000000 -404.000000C272.000000 -404.000000,318.000000 -404.000000,349.000000 -342.000000C367.000000 -305.000000,367.000000 -254.000000,367.000000 -205.000000C367.000000 -157.000000,367.000000 -107.000000,350.000000 -71.000000C320.000000 -11.000000,274.000000 -6.000000,251.000000 -6.000000"></path>
    </g>
    <g transform="scale(0.009963,0.009963)" id="GLYPHcmr10_55">
      <path style="fill-rule: evenodd;" d="M476.000000 -609.000000C485.000000 -621.000000,485.000000 -623.000000,485.000000 -644.000000L242.000000 -644.000000C120.000000 -644.000000,118.000000 -657.000000,114.000000 -676.000000L89.000000 -676.000000L56.000000 -470.000000L81.000000 -470.000000C84.000000 -486.000000,93.000000 -549.000000,106.000000 -561.000000C113.000000 -567.000000,191.000000 -567.000000,204.000000 -567.000000L411.000000 -567.000000C400.000000 -551.000000,321.000000 -442.000000,299.000000 -409.000000C209.000000 -274.000000,176.000000 -135.000000,176.000000 -33.000000C176.000000 -23.000000,176.000000 22.000000,222.000000 22.000000C268.000000 22.000000,268.000000 -23.000000,268.000000 -33.000000L268.000000 -84.000000C268.000000 -139.000000,271.000000 -194.000000,279.000000 -248.000000C283.000000 -271.000000,297.000000 -357.000000,341.000000 -419.000000"></path>
    </g>
    <g transform="scale(0.009963,0.009963)" id="GLYPHcmr10_56">
      <path style="fill-rule: evenodd;" d="M163.000000 -457.000000C117.000000 -487.000000,113.000000 -521.000000,113.000000 -538.000000C113.000000 -599.000000,178.000000 -641.000000,249.000000 -641.000000C322.000000 -641.000000,386.000000 -589.000000,386.000000 -517.000000C386.000000 -460.000000,347.000000 -412.000000,287.000000 -377.000000M309.000000 -362.000000C381.000000 -399.000000,430.000000 -451.000000,430.000000 -517.000000C430.000000 -609.000000,341.000000 -666.000000,250.000000 -666.000000C150.000000 -666.000000,69.000000 -592.000000,69.000000 -499.000000C69.000000 -481.000000,71.000000 -436.000000,113.000000 -389.000000C124.000000 -377.000000,161.000000 -352.000000,186.000000 -335.000000C128.000000 -306.000000,42.000000 -250.000000,42.000000 -151.000000C42.000000 -45.000000,144.000000 22.000000,249.000000 22.000000C362.000000 22.000000,457.000000 -61.000000,457.000000 -168.000000C457.000000 -204.000000,446.000000 -249.000000,408.000000 -291.000000C389.000000 -312.000000,373.000000 -322.000000,309.000000 -362.000000M209.000000 -320.000000L332.000000 -242.000000C360.000000 -223.000000,407.000000 -193.000000,407.000000 -132.000000C407.000000 -58.000000,332.000000 -6.000000,250.000000 -6.000000C164.000000 -6.000000,92.000000 -68.000000,92.000000 -151.000000C92.000000 -209.000000,124.000000 -273.000000,209.000000 -320.000000"></path>
    </g>
    <g transform="scale(0.009963,0.009963)" id="GLYPHcmr10_57">
      <path style="fill-rule: evenodd;" d="M367.000000 -318.000000L367.000000 -286.000000C367.000000 -52.000000,263.000000 -6.000000,205.000000 -6.000000C188.000000 -6.000000,134.000000 -8.000000,107.000000 -42.000000C151.000000 -42.000000,159.000000 -71.000000,159.000000 -88.000000C159.000000 -119.000000,135.000000 -134.000000,113.000000 -134.000000C97.000000 -134.000000,67.000000 -125.000000,67.000000 -86.000000C67.000000 -19.000000,121.000000 22.000000,206.000000 22.000000C335.000000 22.000000,457.000000 -114.000000,457.000000 -329.000000C457.000000 -598.000000,342.000000 -666.000000,253.000000 -666.000000C198.000000 -666.000000,149.000000 -648.000000,106.000000 -603.000000C65.000000 -558.000000,42.000000 -516.000000,42.000000 -441.000000C42.000000 -316.000000,130.000000 -218.000000,242.000000 -218.000000C303.000000 -218.000000,344.000000 -260.000000,367.000000 -318.000000M243.000000 -241.000000C227.000000 -241.000000,181.000000 -241.000000,150.000000 -304.000000C132.000000 -341.000000,132.000000 -391.000000,132.000000 -440.000000C132.000000 -494.000000,132.000000 -541.000000,153.000000 -578.000000C180.000000 -628.000000,218.000000 -641.000000,253.000000 -641.000000C299.000000 -641.000000,332.000000 -607.000000,349.000000 -562.000000C361.000000 -530.000000,365.000000 -467.000000,365.000000 -421.000000C365.000000 -338.000000,331.000000 -241.000000,243.000000 -241.000000"></path>
    </g>
  </defs>
  <path d="M21.028198 104.009048L11.908295 120.103012" style="stroke:rgb(100.000000%,0.000000%,0.000000%); stroke-width: 0.398499;stroke-linecap: round;stroke-linejoin: round;stroke-miterlimit: 10.000000;fill: none;"></path>
  <path d="M12.398407 116.133209L11.908295 120.103012L15.061981 117.642548Z" style="stroke:rgb(100.000000%,0.000000%,0.000000%); stroke-width: 0.398499;fill: rgb(100.000000%,0.000000%,0.000000%);"></path>
  <path d="M52.865967 72.468445L30.879822 91.868011" style="stroke:rgb(0.000000%,0.000000%,0.000000%); stroke-width: 0.398499;stroke-linecap: round;stroke-linejoin: round;stroke-miterlimit: 10.000000;fill: none;"></path>
  <path d="M32.637985 88.275330L30.879822 91.868011L34.663467 90.570862Z" style="stroke:rgb(0.000000%,0.000000%,0.000000%); stroke-width: 0.398499;fill: rgb(0.000000%,0.000000%,0.000000%);"></path>
  <path d="M28.844696 104.009048L37.964600 120.103012" style="stroke:rgb(100.000000%,0.000000%,0.000000%); stroke-width: 0.398499;stroke-linecap: round;stroke-linejoin: round;stroke-miterlimit: 10.000000;fill: none;"></path>
  <path d="M34.810913 117.642548L37.964600 120.103012L37.474487 116.133209Z" style="stroke:rgb(100.000000%,0.000000%,0.000000%); stroke-width: 0.398499;fill: rgb(100.000000%,0.000000%,0.000000%);"></path>
  <path d="M119.301544 40.536591L66.062561 64.024353" style="stroke:rgb(0.000000%,0.000000%,0.000000%); stroke-width: 0.398499;stroke-linecap: round;stroke-linejoin: round;stroke-miterlimit: 10.000000;fill: none;"></path>
  <path d="M68.825760 61.132156L66.062561 64.024353L70.061539 63.933212Z" style="stroke:rgb(0.000000%,0.000000%,0.000000%); stroke-width: 0.398499;fill: rgb(0.000000%,0.000000%,0.000000%);"></path>
  <path d="M88.773987 104.009048L79.654083 120.103012" style="stroke:rgb(100.000000%,0.000000%,0.000000%); stroke-width: 0.398499;stroke-linecap: round;stroke-linejoin: round;stroke-miterlimit: 10.000000;fill: none;"></path>
  <path d="M80.144196 116.133209L79.654083 120.103012L82.807770 117.642548Z" style="stroke:rgb(100.000000%,0.000000%,0.000000%); stroke-width: 0.398499;fill: rgb(100.000000%,0.000000%,0.000000%);"></path>
  <path d="M64.752716 72.468445L86.738861 91.868011" style="stroke:rgb(0.000000%,0.000000%,0.000000%); stroke-width: 0.398499;stroke-linecap: round;stroke-linejoin: round;stroke-miterlimit: 10.000000;fill: none;"></path>
  <path d="M82.955215 90.570862L86.738861 91.868011L84.980698 88.275330Z" style="stroke:rgb(0.000000%,0.000000%,0.000000%); stroke-width: 0.398499;fill: rgb(0.000000%,0.000000%,0.000000%);"></path>
  <path d="M96.590485 104.009048L105.710388 120.103012" style="stroke:rgb(100.000000%,0.000000%,0.000000%); stroke-width: 0.398499;stroke-linecap: round;stroke-linejoin: round;stroke-miterlimit: 10.000000;fill: none;"></path>
  <path d="M102.556702 117.642548L105.710388 120.103012L105.220276 116.133209Z" style="stroke:rgb(100.000000%,0.000000%,0.000000%); stroke-width: 0.398499;fill: rgb(100.000000%,0.000000%,0.000000%);"></path>
  <path d="M271.203140 8.974106L134.335327 35.810913" style="stroke:rgb(100.000000%,0.000000%,0.000000%); stroke-width: 0.398499;stroke-linecap: round;stroke-linejoin: round;stroke-miterlimit: 10.000000;fill: none;"></path>
  <path d="M137.668060 33.597122L134.335327 35.810913L138.257294 36.602188Z" style="stroke:rgb(100.000000%,0.000000%,0.000000%); stroke-width: 0.398499;fill: rgb(100.000000%,0.000000%,0.000000%);"></path>
  <path d="M156.519775 104.009048L147.399872 120.103012" style="stroke:rgb(0.000000%,0.000000%,0.000000%); stroke-width: 0.398499;stroke-linecap: round;stroke-linejoin: round;stroke-miterlimit: 10.000000;fill: none;"></path>
  <path d="M147.889984 116.133209L147.399872 120.103012L150.553558 117.642548Z" style="stroke:rgb(0.000000%,0.000000%,0.000000%); stroke-width: 0.398499;fill: rgb(0.000000%,0.000000%,0.000000%);"></path>
  <path d="M188.357544 72.468445L166.371399 91.868011" style="stroke:rgb(100.000000%,0.000000%,0.000000%); stroke-width: 0.398499;stroke-linecap: round;stroke-linejoin: round;stroke-miterlimit: 10.000000;fill: none;"></path>
  <path d="M168.129562 88.275330L166.371399 91.868011L170.155045 90.570862Z" style="stroke:rgb(100.000000%,0.000000%,0.000000%); stroke-width: 0.398499;fill: rgb(100.000000%,0.000000%,0.000000%);"></path>
  <path d="M164.336273 104.009048L173.456177 120.103012" style="stroke:rgb(0.000000%,0.000000%,0.000000%); stroke-width: 0.398499;stroke-linecap: round;stroke-linejoin: round;stroke-miterlimit: 10.000000;fill: none;"></path>
  <path d="M170.302490 117.642548L173.456177 120.103012L172.966064 116.133209Z" style="stroke:rgb(0.000000%,0.000000%,0.000000%); stroke-width: 0.398499;fill: rgb(0.000000%,0.000000%,0.000000%);"></path>
  <path d="M133.808716 40.536591L187.047699 64.024353" style="stroke:rgb(0.000000%,0.000000%,0.000000%); stroke-width: 0.398499;stroke-linecap: round;stroke-linejoin: round;stroke-miterlimit: 10.000000;fill: none;"></path>
  <path d="M183.048721 63.933212L187.047699 64.024353L184.284500 61.132156Z" style="stroke:rgb(0.000000%,0.000000%,0.000000%); stroke-width: 0.398499;fill: rgb(0.000000%,0.000000%,0.000000%);"></path>
  <path d="M224.265564 104.009048L215.145660 120.103012" style="stroke:rgb(0.000000%,0.000000%,0.000000%); stroke-width: 0.398499;stroke-linecap: round;stroke-linejoin: round;stroke-miterlimit: 10.000000;fill: none;"></path>
  <path d="M215.635773 116.133209L215.145660 120.103012L218.299347 117.642548Z" style="stroke:rgb(0.000000%,0.000000%,0.000000%); stroke-width: 0.398499;fill: rgb(0.000000%,0.000000%,0.000000%);"></path>
  <path d="M200.244293 72.468445L222.230438 91.868011" style="stroke:rgb(100.000000%,0.000000%,0.000000%); stroke-width: 0.398499;stroke-linecap: round;stroke-linejoin: round;stroke-miterlimit: 10.000000;fill: none;"></path>
  <path d="M218.446793 90.570862L222.230438 91.868011L220.472275 88.275330Z" style="stroke:rgb(100.000000%,0.000000%,0.000000%); stroke-width: 0.398499;fill: rgb(100.000000%,0.000000%,0.000000%);"></path>
  <path d="M258.138458 133.896896L249.018555 149.990860" style="stroke:rgb(100.000000%,0.000000%,0.000000%); stroke-width: 0.398499;stroke-linecap: round;stroke-linejoin: round;stroke-miterlimit: 10.000000;fill: none;"></path>
  <path d="M249.508667 146.021057L249.018555 149.990860L252.172241 147.530396Z" style="stroke:rgb(100.000000%,0.000000%,0.000000%); stroke-width: 0.398499;fill: rgb(100.000000%,0.000000%,0.000000%);"></path>
  <path d="M234.117188 102.356293L256.103333 121.755859" style="stroke:rgb(0.000000%,0.000000%,0.000000%); stroke-width: 0.398499;stroke-linecap: round;stroke-linejoin: round;stroke-miterlimit: 10.000000;fill: none;"></path>
  <path d="M252.319687 120.458710L256.103333 121.755859L254.345169 118.163177Z" style="stroke:rgb(0.000000%,0.000000%,0.000000%); stroke-width: 0.398499;fill: rgb(0.000000%,0.000000%,0.000000%);"></path>
  <path d="M308.947800 74.121201L299.827896 90.215164" style="stroke:rgb(100.000000%,0.000000%,0.000000%); stroke-width: 0.398499;stroke-linecap: round;stroke-linejoin: round;stroke-miterlimit: 10.000000;fill: none;"></path>
  <path d="M300.318008 86.245361L299.827896 90.215164L302.981583 87.754700Z" style="stroke:rgb(100.000000%,0.000000%,0.000000%); stroke-width: 0.398499;fill: rgb(100.000000%,0.000000%,0.000000%);"></path>
  <path d="M340.785568 42.580597L318.799423 61.980164" style="stroke:rgb(0.000000%,0.000000%,0.000000%); stroke-width: 0.398499;stroke-linecap: round;stroke-linejoin: round;stroke-miterlimit: 10.000000;fill: none;"></path>
  <path d="M320.557587 58.387482L318.799423 61.980164L322.583069 60.683014Z" style="stroke:rgb(0.000000%,0.000000%,0.000000%); stroke-width: 0.398499;fill: rgb(0.000000%,0.000000%,0.000000%);"></path>
  <path d="M316.764297 74.121201L325.884201 90.215164" style="stroke:rgb(100.000000%,0.000000%,0.000000%); stroke-width: 0.398499;stroke-linecap: round;stroke-linejoin: round;stroke-miterlimit: 10.000000;fill: none;"></path>
  <path d="M322.730515 87.754700L325.884201 90.215164L325.394089 86.245361Z" style="stroke:rgb(100.000000%,0.000000%,0.000000%); stroke-width: 0.398499;fill: rgb(100.000000%,0.000000%,0.000000%);"></path>
  <path d="M286.236740 10.648743L339.475723 34.136505" style="stroke:rgb(0.000000%,0.000000%,0.000000%); stroke-width: 0.398499;stroke-linecap: round;stroke-linejoin: round;stroke-miterlimit: 10.000000;fill: none;"></path>
  <path d="M335.476746 34.045364L339.475723 34.136505L336.712524 31.244308Z" style="stroke:rgb(0.000000%,0.000000%,0.000000%); stroke-width: 0.398499;fill: rgb(0.000000%,0.000000%,0.000000%);"></path>
  <path d="M391.594910 72.468445L369.608765 91.868011" style="stroke:rgb(0.000000%,0.000000%,0.000000%); stroke-width: 0.398499;stroke-linecap: round;stroke-linejoin: round;stroke-miterlimit: 10.000000;fill: none;"></path>
  <path d="M371.366928 88.275330L369.608765 91.868011L373.392410 90.570862Z" style="stroke:rgb(0.000000%,0.000000%,0.000000%); stroke-width: 0.398499;fill: rgb(0.000000%,0.000000%,0.000000%);"></path>
  <path d="M367.573639 104.009048L376.693542 120.103012" style="stroke:rgb(100.000000%,0.000000%,0.000000%); stroke-width: 0.398499;stroke-linecap: round;stroke-linejoin: round;stroke-miterlimit: 10.000000;fill: none;"></path>
  <path d="M373.539856 117.642548L376.693542 120.103012L376.203430 116.133209Z" style="stroke:rgb(100.000000%,0.000000%,0.000000%); stroke-width: 0.398499;fill: rgb(100.000000%,0.000000%,0.000000%);"></path>
  <path d="M353.561569 41.355667L390.705154 63.204819" style="stroke:rgb(100.000000%,0.000000%,0.000000%); stroke-width: 0.398499;stroke-linecap: round;stroke-linejoin: round;stroke-miterlimit: 10.000000;fill: none;"></path>
  <path d="M386.743851 62.650558L390.705154 63.204819L388.296066 60.011795Z" style="stroke:rgb(100.000000%,0.000000%,0.000000%); stroke-width: 0.398499;fill: rgb(100.000000%,0.000000%,0.000000%);"></path>
  <path d="M401.446533 74.121201L410.566437 90.215164" style="stroke:rgb(0.000000%,0.000000%,0.000000%); stroke-width: 0.398499;stroke-linecap: round;stroke-linejoin: round;stroke-miterlimit: 10.000000;fill: none;"></path>
  <path d="M407.412750 87.754700L410.566437 90.215164L410.076324 86.245361Z" style="stroke:rgb(0.000000%,0.000000%,0.000000%); stroke-width: 0.398499;fill: rgb(0.000000%,0.000000%,0.000000%);"></path>
  <path d="M418.382980 104.009048L427.502884 120.103012" style="stroke:rgb(100.000000%,0.000000%,0.000000%); stroke-width: 0.398499;stroke-linecap: round;stroke-linejoin: round;stroke-miterlimit: 10.000000;fill: none;"></path>
  <path d="M424.349197 117.642548L427.502884 120.103012L427.012772 116.133209Z" style="stroke:rgb(100.000000%,0.000000%,0.000000%); stroke-width: 0.398499;fill: rgb(100.000000%,0.000000%,0.000000%);"></path>
  <path d="M15.926132 127.000000C15.926132 122.622513,12.377487 119.073868,8.000000 119.073868C3.622513 119.073868,0.073868 122.622513,0.073868 127.000000C0.073868 131.377487,3.622513 134.926132,8.000000 134.926132C12.377487 134.926132,15.926132 131.377487,15.926132 127.000000Z" style="fill: rgb(100.000000%,69.999695%,69.999695%);stroke: none;"></path>
  <path d="M15.926132 127.000000C15.926132 122.622513,12.377487 119.073868,8.000000 119.073868C3.622513 119.073868,0.073868 122.622513,0.073868 127.000000C0.073868 131.377487,3.622513 134.926132,8.000000 134.926132C12.377487 134.926132,15.926132 131.377487,15.926132 127.000000Z" style="stroke:rgb(100.000000%,0.000000%,0.000000%); stroke-width: 0.996262;stroke-linecap: round;stroke-linejoin: round;stroke-miterlimit: 10.000000;fill: none;"></path>
  <g transform="translate(3.018661 130.210190)" style="fill: rgb(0.000000%,0.000000%,0.000000%);">
    <use xlink:href="#GLYPHcmr10_49"></use>
    <use xlink:href="#GLYPHcmr10_49" x="5.000095"></use>
  </g>
  <path d="M32.862579 97.112152C32.862579 92.734665,29.313934 89.186020,24.936447 89.186020C20.558960 89.186020,17.010315 92.734665,17.010315 97.112152C17.010315 101.489639,20.558960 105.038284,24.936447 105.038284C29.313934 105.038284,32.862579 101.489639,32.862579 97.112152Z" style="stroke:rgb(0.000000%,0.000000%,0.000000%); stroke-width: 0.398499;stroke-linecap: round;stroke-linejoin: round;stroke-miterlimit: 10.000000;fill: none;"></path>
  <g transform="translate(19.955109 100.322342)" style="fill: rgb(0.000000%,0.000000%,0.000000%);">
    <use xlink:href="#GLYPHcmr10_49"></use>
    <use xlink:href="#GLYPHcmr10_53" x="5.000095"></use>
  </g>
  <path d="M49.799026 127.000000C49.799026 122.622513,46.250381 119.073868,41.872894 119.073868C37.495407 119.073868,33.946762 122.622513,33.946762 127.000000C33.946762 131.377487,37.495407 134.926132,41.872894 134.926132C46.250381 134.926132,49.799026 131.377487,49.799026 127.000000Z" style="fill: rgb(100.000000%,69.999695%,69.999695%);stroke: none;"></path>
  <path d="M49.799026 127.000000C49.799026 122.622513,46.250381 119.073868,41.872894 119.073868C37.495407 119.073868,33.946762 122.622513,33.946762 127.000000C33.946762 131.377487,37.495407 134.926132,41.872894 134.926132C46.250381 134.926132,49.799026 131.377487,49.799026 127.000000Z" style="stroke:rgb(100.000000%,0.000000%,0.000000%); stroke-width: 0.996262;stroke-linecap: round;stroke-linejoin: round;stroke-miterlimit: 10.000000;fill: none;"></path>
  <g transform="translate(36.891556 130.210190)" style="fill: rgb(0.000000%,0.000000%,0.000000%);">
    <use xlink:href="#GLYPHcmr10_49"></use>
    <use xlink:href="#GLYPHcmr10_54" x="5.000095"></use>
  </g>
  <path d="M66.735474 67.224304C66.735474 62.846817,63.186829 59.298172,58.809341 59.298172C54.431854 59.298172,50.883209 62.846817,50.883209 67.224304C50.883209 71.601791,54.431854 75.150436,58.809341 75.150436C63.186829 75.150436,66.735474 71.601791,66.735474 67.224304Z" style="stroke:rgb(0.000000%,0.000000%,0.000000%); stroke-width: 0.398499;stroke-linecap: round;stroke-linejoin: round;stroke-miterlimit: 10.000000;fill: none;"></path>
  <g transform="translate(53.828003 70.434494)" style="fill: rgb(0.000000%,0.000000%,0.000000%);">
    <use xlink:href="#GLYPHcmr10_50"></use>
    <use xlink:href="#GLYPHcmr10_48" x="5.000095"></use>
  </g>
  <path d="M83.671921 127.000000C83.671921 122.622513,80.123276 119.073868,75.745789 119.073868C71.368301 119.073868,67.819656 122.622513,67.819656 127.000000C67.819656 131.377487,71.368301 134.926132,75.745789 134.926132C80.123276 134.926132,83.671921 131.377487,83.671921 127.000000Z" style="fill: rgb(100.000000%,69.999695%,69.999695%);stroke: none;"></path>
  <path d="M83.671921 127.000000C83.671921 122.622513,80.123276 119.073868,75.745789 119.073868C71.368301 119.073868,67.819656 122.622513,67.819656 127.000000C67.819656 131.377487,71.368301 134.926132,75.745789 134.926132C80.123276 134.926132,83.671921 131.377487,83.671921 127.000000Z" style="stroke:rgb(100.000000%,0.000000%,0.000000%); stroke-width: 0.996262;stroke-linecap: round;stroke-linejoin: round;stroke-miterlimit: 10.000000;fill: none;"></path>
  <g transform="translate(70.764450 130.210190)" style="fill: rgb(0.000000%,0.000000%,0.000000%);">
    <use xlink:href="#GLYPHcmr10_50"></use>
    <use xlink:href="#GLYPHcmr10_50" x="5.000095"></use>
  </g>
  <path d="M100.608368 97.112152C100.608368 92.734665,97.059723 89.186020,92.682236 89.186020C88.304749 89.186020,84.756104 92.734665,84.756104 97.112152C84.756104 101.489639,88.304749 105.038284,92.682236 105.038284C97.059723 105.038284,100.608368 101.489639,100.608368 97.112152Z" style="stroke:rgb(0.000000%,0.000000%,0.000000%); stroke-width: 0.398499;stroke-linecap: round;stroke-linejoin: round;stroke-miterlimit: 10.000000;fill: none;"></path>
  <g transform="translate(87.700897 100.322342)" style="fill: rgb(0.000000%,0.000000%,0.000000%);">
    <use xlink:href="#GLYPHcmr10_50"></use>
    <use xlink:href="#GLYPHcmr10_52" x="5.000095"></use>
  </g>
  <path d="M117.544815 127.000000C117.544815 122.622513,113.996170 119.073868,109.618683 119.073868C105.241196 119.073868,101.692551 122.622513,101.692551 127.000000C101.692551 131.377487,105.241196 134.926132,109.618683 134.926132C113.996170 134.926132,117.544815 131.377487,117.544815 127.000000Z" style="fill: rgb(100.000000%,69.999695%,69.999695%);stroke: none;"></path>
  <path d="M117.544815 127.000000C117.544815 122.622513,113.996170 119.073868,109.618683 119.073868C105.241196 119.073868,101.692551 122.622513,101.692551 127.000000C101.692551 131.377487,105.241196 134.926132,109.618683 134.926132C113.996170 134.926132,117.544815 131.377487,117.544815 127.000000Z" style="stroke:rgb(100.000000%,0.000000%,0.000000%); stroke-width: 0.996262;stroke-linecap: round;stroke-linejoin: round;stroke-miterlimit: 10.000000;fill: none;"></path>
  <g transform="translate(104.637344 130.210190)" style="fill: rgb(0.000000%,0.000000%,0.000000%);">
    <use xlink:href="#GLYPHcmr10_50"></use>
    <use xlink:href="#GLYPHcmr10_53" x="5.000095"></use>
  </g>
  <path d="M134.481262 37.336456C134.481262 32.958969,130.932617 29.410324,126.555130 29.410324C122.177643 29.410324,118.628998 32.958969,118.628998 37.336456C118.628998 41.713943,122.177643 45.262589,126.555130 45.262589C130.932617 45.262589,134.481262 41.713943,134.481262 37.336456Z" style="fill: rgb(100.000000%,69.999695%,69.999695%);stroke: none;"></path>
  <path d="M134.481262 37.336456C134.481262 32.958969,130.932617 29.410324,126.555130 29.410324C122.177643 29.410324,118.628998 32.958969,118.628998 37.336456C118.628998 41.713943,122.177643 45.262589,126.555130 45.262589C130.932617 45.262589,134.481262 41.713943,134.481262 37.336456Z" style="stroke:rgb(100.000000%,0.000000%,0.000000%); stroke-width: 0.996262;stroke-linecap: round;stroke-linejoin: round;stroke-miterlimit: 10.000000;fill: none;"></path>
  <g transform="translate(121.573792 40.546646)" style="fill: rgb(0.000000%,0.000000%,0.000000%);">
    <use xlink:href="#GLYPHcmr10_51"></use>
    <use xlink:href="#GLYPHcmr10_48" x="5.000095"></use>
  </g>
  <path d="M151.417709 127.000000C151.417709 122.622513,147.869064 119.073868,143.491577 119.073868C139.114090 119.073868,135.565445 122.622513,135.565445 127.000000C135.565445 131.377487,139.114090 134.926132,143.491577 134.926132C147.869064 134.926132,151.417709 131.377487,151.417709 127.000000Z" style="stroke:rgb(0.000000%,0.000000%,0.000000%); stroke-width: 0.398499;stroke-linecap: round;stroke-linejoin: round;stroke-miterlimit: 10.000000;fill: none;"></path>
  <g transform="translate(138.510239 130.210190)" style="fill: rgb(0.000000%,0.000000%,0.000000%);">
    <use xlink:href="#GLYPHcmr10_51"></use>
    <use xlink:href="#GLYPHcmr10_49" x="5.000095"></use>
  </g>
  <path d="M168.354156 97.112152C168.354156 92.734665,164.805511 89.186020,160.428024 89.186020C156.050537 89.186020,152.501892 92.734665,152.501892 97.112152C152.501892 101.489639,156.050537 105.038284,160.428024 105.038284C164.805511 105.038284,168.354156 101.489639,168.354156 97.112152Z" style="fill: rgb(100.000000%,69.999695%,69.999695%);stroke: none;"></path>
  <path d="M168.354156 97.112152C168.354156 92.734665,164.805511 89.186020,160.428024 89.186020C156.050537 89.186020,152.501892 92.734665,152.501892 97.112152C152.501892 101.489639,156.050537 105.038284,160.428024 105.038284C164.805511 105.038284,168.354156 101.489639,168.354156 97.112152Z" style="stroke:rgb(100.000000%,0.000000%,0.000000%); stroke-width: 0.996262;stroke-linecap: round;stroke-linejoin: round;stroke-miterlimit: 10.000000;fill: none;"></path>
  <g transform="translate(155.446686 100.322342)" style="fill: rgb(0.000000%,0.000000%,0.000000%);">
    <use xlink:href="#GLYPHcmr10_51"></use>
    <use xlink:href="#GLYPHcmr10_53" x="5.000095"></use>
  </g>
  <path d="M185.290604 127.000000C185.290604 122.622513,181.741959 119.073868,177.364471 119.073868C172.986984 119.073868,169.438339 122.622513,169.438339 127.000000C169.438339 131.377487,172.986984 134.926132,177.364471 134.926132C181.741959 134.926132,185.290604 131.377487,185.290604 127.000000Z" style="stroke:rgb(0.000000%,0.000000%,0.000000%); stroke-width: 0.398499;stroke-linecap: round;stroke-linejoin: round;stroke-miterlimit: 10.000000;fill: none;"></path>
  <g transform="translate(172.383133 130.210190)" style="fill: rgb(0.000000%,0.000000%,0.000000%);">
    <use xlink:href="#GLYPHcmr10_52"></use>
    <use xlink:href="#GLYPHcmr10_49" x="5.000095"></use>
  </g>
  <path d="M202.227051 67.224304C202.227051 62.846817,198.678406 59.298172,194.300919 59.298172C189.923431 59.298172,186.374786 62.846817,186.374786 67.224304C186.374786 71.601791,189.923431 75.150436,194.300919 75.150436C198.678406 75.150436,202.227051 71.601791,202.227051 67.224304Z" style="stroke:rgb(0.000000%,0.000000%,0.000000%); stroke-width: 0.398499;stroke-linecap: round;stroke-linejoin: round;stroke-miterlimit: 10.000000;fill: none;"></path>
  <g transform="translate(189.319580 70.434494)" style="fill: rgb(0.000000%,0.000000%,0.000000%);">
    <use xlink:href="#GLYPHcmr10_52"></use>
    <use xlink:href="#GLYPHcmr10_51" x="5.000095"></use>
  </g>
  <path d="M219.163498 127.000000C219.163498 122.622513,215.614853 119.073868,211.237366 119.073868C206.859879 119.073868,203.311234 122.622513,203.311234 127.000000C203.311234 131.377487,206.859879 134.926132,211.237366 134.926132C215.614853 134.926132,219.163498 131.377487,219.163498 127.000000Z" style="stroke:rgb(0.000000%,0.000000%,0.000000%); stroke-width: 0.398499;stroke-linecap: round;stroke-linejoin: round;stroke-miterlimit: 10.000000;fill: none;"></path>
  <g transform="translate(206.256027 130.210190)" style="fill: rgb(0.000000%,0.000000%,0.000000%);">
    <use xlink:href="#GLYPHcmr10_52"></use>
    <use xlink:href="#GLYPHcmr10_57" x="5.000095"></use>
  </g>
  <path d="M236.099945 97.112152C236.099945 92.734665,232.551300 89.186020,228.173813 89.186020C223.796326 89.186020,220.247681 92.734665,220.247681 97.112152C220.247681 101.489639,223.796326 105.038284,228.173813 105.038284C232.551300 105.038284,236.099945 101.489639,236.099945 97.112152Z" style="fill: rgb(100.000000%,69.999695%,69.999695%);stroke: none;"></path>
  <path d="M236.099945 97.112152C236.099945 92.734665,232.551300 89.186020,228.173813 89.186020C223.796326 89.186020,220.247681 92.734665,220.247681 97.112152C220.247681 101.489639,223.796326 105.038284,228.173813 105.038284C232.551300 105.038284,236.099945 101.489639,236.099945 97.112152Z" style="stroke:rgb(100.000000%,0.000000%,0.000000%); stroke-width: 0.996262;stroke-linecap: round;stroke-linejoin: round;stroke-miterlimit: 10.000000;fill: none;"></path>
  <g transform="translate(223.192474 100.322342)" style="fill: rgb(0.000000%,0.000000%,0.000000%);">
    <use xlink:href="#GLYPHcmr10_53"></use>
    <use xlink:href="#GLYPHcmr10_49" x="5.000095"></use>
  </g>
  <path d="M253.036392 156.887848C253.036392 152.510361,249.487747 148.961716,245.110260 148.961716C240.732773 148.961716,237.184128 152.510361,237.184128 156.887848C237.184128 161.265335,240.732773 164.813980,245.110260 164.813980C249.487747 164.813980,253.036392 161.265335,253.036392 156.887848Z" style="fill: rgb(100.000000%,69.999695%,69.999695%);stroke: none;"></path>
  <path d="M253.036392 156.887848C253.036392 152.510361,249.487747 148.961716,245.110260 148.961716C240.732773 148.961716,237.184128 152.510361,237.184128 156.887848C237.184128 161.265335,240.732773 164.813980,245.110260 164.813980C249.487747 164.813980,253.036392 161.265335,253.036392 156.887848Z" style="stroke:rgb(100.000000%,0.000000%,0.000000%); stroke-width: 0.996262;stroke-linecap: round;stroke-linejoin: round;stroke-miterlimit: 10.000000;fill: none;"></path>
  <g transform="translate(240.128922 160.098038)" style="fill: rgb(0.000000%,0.000000%,0.000000%);">
    <use xlink:href="#GLYPHcmr10_53"></use>
    <use xlink:href="#GLYPHcmr10_50" x="5.000095"></use>
  </g>
  <path d="M269.972839 127.000000C269.972839 122.622513,266.424194 119.073868,262.046707 119.073868C257.669220 119.073868,254.120575 122.622513,254.120575 127.000000C254.120575 131.377487,257.669220 134.926132,262.046707 134.926132C266.424194 134.926132,269.972839 131.377487,269.972839 127.000000Z" style="stroke:rgb(0.000000%,0.000000%,0.000000%); stroke-width: 0.398499;stroke-linecap: round;stroke-linejoin: round;stroke-miterlimit: 10.000000;fill: none;"></path>
  <g transform="translate(257.065369 130.210190)" style="fill: rgb(0.000000%,0.000000%,0.000000%);">
    <use xlink:href="#GLYPHcmr10_53"></use>
    <use xlink:href="#GLYPHcmr10_54" x="5.000095"></use>
  </g>
  <path d="M286.909286 7.448608C286.909286 3.071121,283.360641 -0.477524,278.983154 -0.477524C274.605667 -0.477524,271.057022 3.071121,271.057022 7.448608C271.057022 11.826096,274.605667 15.374741,278.983154 15.374741C283.360641 15.374741,286.909286 11.826096,286.909286 7.448608Z" style="stroke:rgb(0.000000%,0.000000%,0.000000%); stroke-width: 0.398499;stroke-linecap: round;stroke-linejoin: round;stroke-miterlimit: 10.000000;fill: none;"></path>
  <g transform="translate(274.001816 10.658798)" style="fill: rgb(0.000000%,0.000000%,0.000000%);">
    <use xlink:href="#GLYPHcmr10_53"></use>
    <use xlink:href="#GLYPHcmr10_55" x="5.000095"></use>
  </g>
  <path d="M303.845734 97.112152C303.845734 92.734665,300.297089 89.186020,295.919601 89.186020C291.542114 89.186020,287.993469 92.734665,287.993469 97.112152C287.993469 101.489639,291.542114 105.038284,295.919601 105.038284C300.297089 105.038284,303.845734 101.489639,303.845734 97.112152Z" style="fill: rgb(100.000000%,69.999695%,69.999695%);stroke: none;"></path>
  <path d="M303.845734 97.112152C303.845734 92.734665,300.297089 89.186020,295.919601 89.186020C291.542114 89.186020,287.993469 92.734665,287.993469 97.112152C287.993469 101.489639,291.542114 105.038284,295.919601 105.038284C300.297089 105.038284,303.845734 101.489639,303.845734 97.112152Z" style="stroke:rgb(100.000000%,0.000000%,0.000000%); stroke-width: 0.996262;stroke-linecap: round;stroke-linejoin: round;stroke-miterlimit: 10.000000;fill: none;"></path>
  <g transform="translate(290.938263 100.322342)" style="fill: rgb(0.000000%,0.000000%,0.000000%);">
    <use xlink:href="#GLYPHcmr10_55"></use>
    <use xlink:href="#GLYPHcmr10_52" x="5.000095"></use>
  </g>
  <path d="M320.782181 67.224304C320.782181 62.846817,317.233536 59.298172,312.856049 59.298172C308.478561 59.298172,304.929916 62.846817,304.929916 67.224304C304.929916 71.601791,308.478561 75.150436,312.856049 75.150436C317.233536 75.150436,320.782181 71.601791,320.782181 67.224304Z" style="stroke:rgb(0.000000%,0.000000%,0.000000%); stroke-width: 0.398499;stroke-linecap: round;stroke-linejoin: round;stroke-miterlimit: 10.000000;fill: none;"></path>
  <g transform="translate(307.874710 70.434494)" style="fill: rgb(0.000000%,0.000000%,0.000000%);">
    <use xlink:href="#GLYPHcmr10_56"></use>
    <use xlink:href="#GLYPHcmr10_51" x="5.000095"></use>
  </g>
  <path d="M337.718628 97.112152C337.718628 92.734665,334.169983 89.186020,329.792496 89.186020C325.415009 89.186020,321.866364 92.734665,321.866364 97.112152C321.866364 101.489639,325.415009 105.038284,329.792496 105.038284C334.169983 105.038284,337.718628 101.489639,337.718628 97.112152Z" style="fill: rgb(100.000000%,69.999695%,69.999695%);stroke: none;"></path>
  <path d="M337.718628 97.112152C337.718628 92.734665,334.169983 89.186020,329.792496 89.186020C325.415009 89.186020,321.866364 92.734665,321.866364 97.112152C321.866364 101.489639,325.415009 105.038284,329.792496 105.038284C334.169983 105.038284,337.718628 101.489639,337.718628 97.112152Z" style="stroke:rgb(100.000000%,0.000000%,0.000000%); stroke-width: 0.996262;stroke-linecap: round;stroke-linejoin: round;stroke-miterlimit: 10.000000;fill: none;"></path>
  <g transform="translate(324.811157 100.322342)" style="fill: rgb(0.000000%,0.000000%,0.000000%);">
    <use xlink:href="#GLYPHcmr10_56"></use>
    <use xlink:href="#GLYPHcmr10_53" x="5.000095"></use>
  </g>
  <path d="M354.655075 37.336456C354.655075 32.958969,351.106430 29.410324,346.728943 29.410324C342.351456 29.410324,338.802811 32.958969,338.802811 37.336456C338.802811 41.713943,342.351456 45.262589,346.728943 45.262589C351.106430 45.262589,354.655075 41.713943,354.655075 37.336456Z" style="stroke:rgb(0.000000%,0.000000%,0.000000%); stroke-width: 0.398499;stroke-linecap: round;stroke-linejoin: round;stroke-miterlimit: 10.000000;fill: none;"></path>
  <g transform="translate(341.747604 40.546646)" style="fill: rgb(0.000000%,0.000000%,0.000000%);">
    <use xlink:href="#GLYPHcmr10_56"></use>
    <use xlink:href="#GLYPHcmr10_54" x="5.000095"></use>
  </g>
  <path d="M371.591522 97.112152C371.591522 92.734665,368.042877 89.186020,363.665390 89.186020C359.287903 89.186020,355.739258 92.734665,355.739258 97.112152C355.739258 101.489639,359.287903 105.038284,363.665390 105.038284C368.042877 105.038284,371.591522 101.489639,371.591522 97.112152Z" style="stroke:rgb(0.000000%,0.000000%,0.000000%); stroke-width: 0.398499;stroke-linecap: round;stroke-linejoin: round;stroke-miterlimit: 10.000000;fill: none;"></path>
  <g transform="translate(358.684052 100.322342)" style="fill: rgb(0.000000%,0.000000%,0.000000%);">
    <use xlink:href="#GLYPHcmr10_56"></use>
    <use xlink:href="#GLYPHcmr10_56" x="5.000095"></use>
  </g>
  <path d="M388.527969 127.000000C388.527969 122.622513,384.979324 119.073868,380.601837 119.073868C376.224350 119.073868,372.675705 122.622513,372.675705 127.000000C372.675705 131.377487,376.224350 134.926132,380.601837 134.926132C384.979324 134.926132,388.527969 131.377487,388.527969 127.000000Z" style="fill: rgb(100.000000%,69.999695%,69.999695%);stroke: none;"></path>
  <path d="M388.527969 127.000000C388.527969 122.622513,384.979324 119.073868,380.601837 119.073868C376.224350 119.073868,372.675705 122.622513,372.675705 127.000000C372.675705 131.377487,376.224350 134.926132,380.601837 134.926132C384.979324 134.926132,388.527969 131.377487,388.527969 127.000000Z" style="stroke:rgb(100.000000%,0.000000%,0.000000%); stroke-width: 0.996262;stroke-linecap: round;stroke-linejoin: round;stroke-miterlimit: 10.000000;fill: none;"></path>
  <g transform="translate(375.620499 130.210190)" style="fill: rgb(0.000000%,0.000000%,0.000000%);">
    <use xlink:href="#GLYPHcmr10_57"></use>
    <use xlink:href="#GLYPHcmr10_49" x="5.000095"></use>
  </g>
  <path d="M405.464417 67.224304C405.464417 62.846817,401.915771 59.298172,397.538284 59.298172C393.160797 59.298172,389.612152 62.846817,389.612152 67.224304C389.612152 71.601791,393.160797 75.150436,397.538284 75.150436C401.915771 75.150436,405.464417 71.601791,405.464417 67.224304Z" style="fill: rgb(100.000000%,69.999695%,69.999695%);stroke: none;"></path>
  <path d="M405.464417 67.224304C405.464417 62.846817,401.915771 59.298172,397.538284 59.298172C393.160797 59.298172,389.612152 62.846817,389.612152 67.224304C389.612152 71.601791,393.160797 75.150436,397.538284 75.150436C401.915771 75.150436,405.464417 71.601791,405.464417 67.224304Z" style="stroke:rgb(100.000000%,0.000000%,0.000000%); stroke-width: 0.996262;stroke-linecap: round;stroke-linejoin: round;stroke-miterlimit: 10.000000;fill: none;"></path>
  <g transform="translate(392.556946 70.434494)" style="fill: rgb(0.000000%,0.000000%,0.000000%);">
    <use xlink:href="#GLYPHcmr10_57"></use>
    <use xlink:href="#GLYPHcmr10_50" x="5.000095"></use>
  </g>
  <path d="M422.400864 97.112152C422.400864 92.734665,418.852219 89.186020,414.474731 89.186020C410.097244 89.186020,406.548599 92.734665,406.548599 97.112152C406.548599 101.489639,410.097244 105.038284,414.474731 105.038284C418.852219 105.038284,422.400864 101.489639,422.400864 97.112152Z" style="stroke:rgb(0.000000%,0.000000%,0.000000%); stroke-width: 0.398499;stroke-linecap: round;stroke-linejoin: round;stroke-miterlimit: 10.000000;fill: none;"></path>
  <g transform="translate(409.493393 100.322342)" style="fill: rgb(0.000000%,0.000000%,0.000000%);">
    <use xlink:href="#GLYPHcmr10_57"></use>
    <use xlink:href="#GLYPHcmr10_54" x="5.000095"></use>
  </g>
  <path d="M439.337311 127.000000C439.337311 122.622513,435.788666 119.073868,431.411179 119.073868C427.033691 119.073868,423.485046 122.622513,423.485046 127.000000C423.485046 131.377487,427.033691 134.926132,431.411179 134.926132C435.788666 134.926132,439.337311 131.377487,439.337311 127.000000Z" style="fill: rgb(100.000000%,69.999695%,69.999695%);stroke: none;"></path>
  <path d="M439.337311 127.000000C439.337311 122.622513,435.788666 119.073868,431.411179 119.073868C427.033691 119.073868,423.485046 122.622513,423.485046 127.000000C423.485046 131.377487,427.033691 134.926132,431.411179 134.926132C435.788666 134.926132,439.337311 131.377487,439.337311 127.000000Z" style="stroke:rgb(100.000000%,0.000000%,0.000000%); stroke-width: 0.996262;stroke-linecap: round;stroke-linejoin: round;stroke-miterlimit: 10.000000;fill: none;"></path>
  <g transform="translate(426.429840 130.210190)" style="fill: rgb(0.000000%,0.000000%,0.000000%);">
    <use xlink:href="#GLYPHcmr10_57"></use>
    <use xlink:href="#GLYPHcmr10_57" x="5.000095"></use>
  </g>
</svg>
